<?xml version="1.0" encoding="UTF-8" standalone="no"?>
<svg width="27px" height="32px" viewBox="0 0 27 32" version="1.1" xmlns="http://www.w3.org/2000/svg" xmlns:xlink="http://www.w3.org/1999/xlink">
    <!-- Generator: sketchtool 41.2 (35397) - http://www.bohemiancoding.com/sketch -->
    <title>6051BFBA-5A45-499A-BFE8-6482E15AB412</title>
    <desc>Created with sketchtool.</desc>
    <defs></defs>
    <g id="personal-profile---himanshu" stroke="none" stroke-width="1" fill="none" fill-rule="evenodd">
        <g id="Hamburger-Menu_Bg" transform="translate(-91.000000, -719.000000)" stroke="#3949AB" stroke-width="0.5" fill="#3949AB">
            <g id="Group-2" transform="translate(89.000000, 619.000000)">
                <g id="Group" transform="translate(1.000000, 100.000000)">
                    <g id="Article" transform="translate(1.000000, 0.000000)">
                        <g id="Group" transform="translate(1.000000, 1.000000)">
                            <path d="M1.20512821,29.8717949 L24.6923077,29.8717949 C25.2820513,29.8717949 25.7435897,29.4102564 25.7435897,28.8205128 L25.7435897,1.15384615 C25.7435897,0.564102564 25.2820513,0.102564103 24.6923077,0.102564103 L7.07692308,0.102564103 C7,0.102564103 6.8974359,0.102564103 6.82051282,0.128205128 C6.79487179,0.128205128 6.76923077,0.153846154 6.76923077,0.153846154 C6.69230769,0.179487179 6.64102564,0.205128205 6.56410256,0.230769231 C6.53846154,0.256410256 6.51282051,0.256410256 6.48717949,0.282051282 C6.41025641,0.333333333 6.33333333,0.384615385 6.28205128,0.461538462 L0.41025641,7.38461538 C0.333333333,7.46153846 0.282051282,7.56410256 0.230769231,7.66666667 C0.205128205,7.69230769 0.205128205,7.74358974 0.205128205,7.76923077 C0.179487179,7.84615385 0.179487179,7.92307692 0.153846154,8 L0.153846154,8.05128205 L0.153846154,28.7948718 C0.153846154,29.4102564 0.641025641,29.8717949 1.20512821,29.8717949 L1.20512821,29.8717949 Z M6.02564103,4.02564103 L6.02564103,7.05128205 L3.46153846,7.05128205 L6.02564103,4.02564103 L6.02564103,4.02564103 Z M2.25641026,9.12820513 L7.07692308,9.12820513 C7.66666667,9.12820513 8.12820513,8.66666667 8.12820513,8.07692308 L8.12820513,2.20512821 L23.6410256,2.20512821 L23.6410256,27.7692308 L2.25641026,27.7692308 L2.25641026,9.12820513 L2.25641026,9.12820513 Z" id="Shape"></path>
                            <path d="M20.5128205,11.4102564 L5.38461538,11.4102564 C4.79487179,11.4102564 4.33333333,11.8717949 4.33333333,12.4615385 C4.33333333,13.0512821 4.79487179,13.5128205 5.38461538,13.5128205 L20.5128205,13.5128205 C21.1025641,13.5128205 21.5641026,13.0512821 21.5641026,12.4615385 C21.5641026,11.8717949 21.1025641,11.4102564 20.5128205,11.4102564 Z" id="Shape"></path>
                            <path d="M20.5128205,16.4871795 L5.38461538,16.4871795 C4.79487179,16.4871795 4.33333333,16.9487179 4.33333333,17.5384615 C4.33333333,18.1282051 4.79487179,18.5897436 5.38461538,18.5897436 L20.5128205,18.5897436 C21.1025641,18.5897436 21.5641026,18.1282051 21.5641026,17.5384615 C21.5641026,16.974359 21.1025641,16.4871795 20.5128205,16.4871795 Z" id="Shape"></path>
                        </g>
                    </g>
                </g>
            </g>
        </g>
    </g>
</svg>