<svg xmlns="http://www.w3.org/2000/svg" width="47" height="37" viewBox="0 0 47 37">
    <path fill="#03D3F3" fill-rule="evenodd" d="M22.953 12.011H10.22c-.52 0-.93.414-.93.939 0 .525.41.939.93.939h12.733c.52 0 .93-.414.93-.939.027-.525-.41-.939-.93-.939zm0 4.888H10.22c-.52 0-.93.414-.93.938 0 .525.41.94.93.94h12.733c.52 0 .93-.415.93-.94.027-.497-.41-.938-.93-.938zm0 4.914H10.22c-.52 0-.93.415-.93.94 0 .524.41.938.93.938h12.733c.52 0 .93-.414.93-.939.027-.524-.41-.939-.93-.939zM35.277 0H25.25a11.48 11.48 0 0 0-7.706 2.982H11.75C5.383 2.982.191 8.228.191 14.662v5.77c0 5.468 3.744 10.162 8.99 11.377l2.569 4.556a.963.963 0 0 0 .847.497c.328 0 .656-.193.847-.47l2.541-4.28h5.793a11.48 11.48 0 0 0 7.706-2.981h1.558l2.541 4.28c.164.303.492.469.847.469s.656-.193.847-.497l2.569-4.556c5.22-1.215 8.99-5.91 8.99-11.376V11.68C46.836 5.246 41.672 0 35.277 0zM21.778 30.152h-6.366c-.356 0-.656.194-.847.47l-1.968 3.313-1.967-3.479c-.137-.249-.383-.442-.656-.47-4.509-.855-7.815-4.887-7.815-9.553v-5.771c0-5.357 4.317-9.72 9.618-9.72h10.029c5.301 0 9.618 4.363 9.618 9.72v5.77c-.027 5.358-4.317 9.72-9.646 9.72zm23.118-12.701c0 4.666-3.306 8.67-7.843 9.526a.96.96 0 0 0-.655.47l-1.968 3.478-1.967-3.313c-.164-.304-.492-.47-.847-.47h-.383a11.672 11.672 0 0 0 2.132-6.737V18.75h4.208c.519 0 .929-.415.929-.94a.926.926 0 0 0-.93-.938h-4.207v-2.264c0-.249 0-.497-.028-.773h4.236c.519 0 .929-.415.929-.94a.926.926 0 0 0-.93-.938h-4.508c-1.202-5.163-5.793-9.03-11.258-9.03h-.793a9.615 9.615 0 0 1 4.263-1.02h10.029c5.3 0 9.618 4.362 9.618 9.719v5.826h-.027z"/>
</svg>
