<?xml version="1.0" encoding="UTF-8" standalone="no"?>
<svg width="32px" height="27px" viewBox="0 0 32 27" version="1.1" xmlns="http://www.w3.org/2000/svg" xmlns:xlink="http://www.w3.org/1999/xlink">
    <!-- Generator: sketchtool 41.2 (35397) - http://www.bohemiancoding.com/sketch -->
    <title>954CCFA6-D536-4FC0-A3A0-22BC09B8E7FE</title>
    <desc>Created with sketchtool.</desc>
    <defs></defs>
    <g id="Edit-&amp;-Create-Community" stroke="none" stroke-width="1" fill="none" fill-rule="evenodd">
        <g id="COMMUNITy-Search-Tag_2" transform="translate(-40.000000, -84.000000)" fill="#000000">
            <g id="header" transform="translate(0.000000, 68.000000)">
                <path d="M52.8,42.1333333 C52.7123288,42.1333333 52.5369863,42.1333333 52.4493151,42.0458392 L52.4493151,42.0458392 C52.3616438,42.0458392 52.2739726,41.9583451 52.1863014,41.870851 L52.1863014,41.870851 L40.2630137,29.9716508 L40.2630137,29.9716508 L40.2630137,29.9716508 C40.0876712,29.7966625 40,29.6216743 40,29.3591919 L40,29.3591919 L40,29.3591919 L40,29.3591919 L40,29.3591919 L40,29.3591919 L40,29.3591919 L40,29.3591919 L40,29.3591919 L40,29.3591919 L40,29.3591919 L40,29.3591919 L40,29.3591919 L40,29.3591919 L40,29.3591919 L40,29.3591919 L40,29.3591919 L40,29.3591919 L40,29.3591919 L40,29.3591919 L40,29.3591919 L40,29.3591919 L40,29.3591919 L40,29.3591919 L40,29.3591919 L40,29.3591919 L40,29.3591919 L40,29.3591919 L40,29.3591919 L40,29.3591919 L40,29.3591919 L40,29.3591919 L40,29.3591919 L40,29.3591919 L40,29.3591919 L40,29.3591919 L40,29.3591919 L40,29.3591919 L40,29.3591919 L40,29.3591919 L40,29.3591919 L40,29.3591919 L40,29.3591919 L40,29.3591919 L40,29.3591919 L40,29.3591919 L40,29.3591919 L40,29.3591919 L40,29.3591919 L40,29.3591919 L40,29.3591919 L40,29.3591919 L40,29.3591919 L40,29.3591919 L40,29.3591919 L40,29.3591919 L40,29.3591919 L40,29.3591919 L40,29.3591919 C40,29.2716978 40,29.1842037 40.0876712,29.1842037 L40.0876712,29.1842037 L40.0876712,29.1842037 L40.0876712,29.1842037 L40.0876712,29.1842037 L40.0876712,29.1842037 L40.0876712,29.1842037 L40.0876712,29.1842037 L40.0876712,29.1842037 L40.0876712,29.1842037 L40.0876712,29.1842037 L40.0876712,29.1842037 L40.0876712,29.1842037 L40.0876712,29.1842037 C40.0876712,29.0967096 40.1753425,29.0092154 40.2630137,28.9217213 L40.2630137,28.9217213 L52.1863014,17.0225211 L52.1863014,17.0225211 C52.3616438,16.8475329 52.6246575,16.7600387 52.8,16.7600387 C53.0630137,16.7600387 53.2383562,16.8475329 53.4136986,17.0225211 L53.4136986,17.0225211 C53.5890411,17.1975093 53.6767123,17.4599917 53.6767123,17.6349799 C53.6767123,17.8974623 53.5890411,18.0724505 53.4136986,18.2474388 L53.4136986,18.2474388 L43.0684932,28.3967566 L71.1232877,28.3967566 C71.3863014,28.3967566 71.5616438,28.4842507 71.7369863,28.659239 L71.7369863,28.659239 C71.9123288,28.8342272 72,29.0092154 72,29.2716978 C72,29.5341802 71.9123288,29.7091684 71.7369863,29.8841566 L71.7369863,29.8841566 C71.5616438,30.0591449 71.3863014,30.146639 71.1232877,30.146639 L43.0684932,30.146639 L53.5013699,40.5584392 L53.5013699,40.5584392 C53.6767123,40.7334274 53.7643836,40.9959098 53.7643836,41.170898 C53.7643836,41.4333804 53.6767123,41.6083686 53.5013699,41.7833569 C53.4136986,41.870851 53.3260274,41.9583451 53.2383562,41.9583451 L53.2383562,41.9583451 C53.0630137,42.0458392 52.9753425,42.1333333 52.8,42.1333333" id="Shape"></path>
            </g>
        </g>
    </g>
</svg>