<svg xmlns="http://www.w3.org/2000/svg" width="19" height="16" viewBox="0 0 19 16">
    <g fill="#6E2F95" fill-rule="evenodd">
        <path d="M0 4.898v8.692c0 1.327 1.017 2.404 2.27 2.404h14.055c1.252 0 2.27-1.077 2.27-2.404V4.898c0-1.262-.968-2.287-2.16-2.287h-3.02l-.073-.334C13.05.94 11.938.006 10.641.006H7.95c-1.294 0-2.406.933-2.702 2.271l-.072.334H2.16C.968 2.611 0 3.641 0 4.898zm5.548-1.302A.47.47 0 0 0 6 3.214l.155-.716C6.352 1.61 7.09.991 7.95.991h2.69c.862 0 1.598.62 1.795 1.507l.156.716c.05.221.235.382.452.382h3.388c.68 0 1.23.583 1.23 1.302v8.692c0 .784-.6 1.419-1.34 1.419H2.27c-.74 0-1.34-.635-1.34-1.42V4.9c0-.72.551-1.303 1.23-1.303h3.389z"/>
        <ellipse cx="3.126" cy="5.679" rx=".602" ry=".64"/>
        <path d="M9.297 13.465c2.152 0 3.905-1.857 3.905-4.136 0-2.28-1.753-4.137-3.905-4.137-2.151 0-3.905 1.853-3.905 4.137 0 2.283 1.754 4.136 3.905 4.136zm0-7.288c1.64 0 2.975 1.415 2.975 3.152 0 1.736-1.335 3.151-2.975 3.151-1.64 0-2.975-1.415-2.975-3.151 0-1.737 1.336-3.152 2.975-3.152z"/>
    </g>
</svg>
