<svg width="29" height="28" viewBox="0 0 29 28" xmlns="http://www.w3.org/2000/svg"><title>97D4553E-3BC5-4CF2-A970-D0A9E590C042</title><path d="M8.205 11.204l-1.947 1.937 6.258 6.224L26.424 5.533l-1.947-1.937-11.96 11.896-4.312-4.288zm16.828 2.628c0 6.087-5.007 11.066-11.126 11.066S2.781 19.918 2.781 13.832 7.788 2.766 13.907 2.766a10.9 10.9 0 0 1 3.06.415L19.192.968C17.523.415 15.715 0 13.907 0 6.258 0 0 6.225 0 13.832c0 7.608 6.258 13.833 13.907 13.833 7.65 0 13.907-6.225 13.907-13.833h-2.781z" fill="#3949AB" fill-rule="evenodd"/></svg>