<?xml version="1.0" encoding="UTF-8" standalone="no"?>
<svg width="38px" height="32px" viewBox="0 0 38 32" version="1.1" xmlns="http://www.w3.org/2000/svg" xmlns:xlink="http://www.w3.org/1999/xlink">
    <!-- Generator: Sketch 41.2 (35397) - http://www.bohemiancoding.com/sketch -->
    <title>Group</title>
    <desc>Created with Sketch.</desc>
    <defs></defs>
    <g id="community" stroke="none" stroke-width="1" fill="none" fill-rule="evenodd">
        <g id="Artboard" transform="translate(-255.000000, -349.000000)" fill="#FFFFFF">
            <g id="fab-icon" transform="translate(236.000000, 326.000000)">
                <g id="Group" transform="translate(18.000000, 23.000000)">
                    <path d="M22.8529501,21.7141556 C20.2053161,21.7141556 18.0589847,19.542053 18.0589847,16.8626286 C18.0589847,14.1832042 20.2053161,12.0111016 22.8529501,12.0111016 C25.5005841,12.0111016 27.6469155,14.1832042 27.6469155,16.8626286 C27.6469155,19.542053 25.5005841,21.7141556 22.8529501,21.7141556 L22.8529501,21.7141556 Z M22.8529501,13.9517124 C21.2643697,13.9517124 19.9765709,15.254974 19.9765709,16.8626286 C19.9765709,18.4702833 21.2643697,19.7735448 22.8529501,19.7735448 C24.4415305,19.7735448 25.7293293,18.4702833 25.7293293,16.8626286 C25.7293293,15.254974 24.4415305,13.9517124 22.8529501,13.9517124 L22.8529501,13.9517124 Z M14.693621,26.8761804 C13.7321523,24.834932 11.6626819,23.5684222 9.429847,23.6547664 C5.10569021,23.6547664 3.37027473,27.1992921 2.88129026,31.4172097 L0.973292035,31.4172097 C1.59650754,26.1533029 4.05101782,21.7141556 9.429847,21.7141556 C12.060906,21.6249322 14.5349512,22.9788126 15.9017003,25.2557704 C15.4224607,25.7328482 15.0153857,26.2788625 14.693621,26.8761804 L14.693621,26.8761804 Z M9.429847,19.7735448 C6.25268622,19.7735448 3.67708852,17.1670217 3.67708852,13.9517124 C3.67708852,10.7364032 6.25268622,8.12988 9.429847,8.12988 C12.6070078,8.12988 15.1826055,10.7364032 15.1826055,13.9517124 C15.1826055,17.1670217 12.6070078,19.7735448 9.429847,19.7735448 L9.429847,19.7735448 Z M9.429847,10.0704908 C7.31173981,10.0704908 5.59467468,11.8081729 5.59467468,13.9517124 C5.59467468,16.0952519 7.31173981,17.832934 9.429847,17.832934 C11.5479542,17.832934 13.2650193,16.0952519 13.2650193,13.9517124 C13.2650193,11.8081729 11.5479542,10.0704908 9.429847,10.0704908 L9.429847,10.0704908 Z M22.8529501,23.6547664 C27.0716397,23.6547664 28.97005,27.2138467 29.4398586,31.4172097 L27.5414483,31.4172097 C27.1962828,28.2530437 25.9498518,25.5953773 22.8529501,25.5953773 C19.7560485,25.5953773 18.5096175,28.2549844 18.164452,31.4172097 L16.2660417,31.4172097 C16.7358503,27.214817 18.6342606,23.6547664 22.8529501,23.6547664 L22.8529501,23.6547664 Z" id="users"></path>
                    <path d="M31.3183258,6.48274723 L25.5130869,6.48274723 L25.5130869,7.35918243 L31.3183258,7.35918243 L31.3183258,13.1644214 L32.194761,13.1644214 L32.194761,7.35918243 L38,7.35918243 L38,6.48274723 L32.194761,6.48274723 L32.194761,0.677508256 L31.3183258,0.677508256 L31.3183258,6.48274723 Z" id="Combined-Shape" stroke="#FFFFFF"></path>
                </g>
            </g>
        </g>
    </g>
</svg>