<?xml version="1.0" encoding="UTF-8" standalone="no"?>
<svg width="19px" height="25px" viewBox="0 0 19 25" version="1.1" xmlns="http://www.w3.org/2000/svg" xmlns:xlink="http://www.w3.org/1999/xlink">
    <!-- Generator: Sketch 41.2 (35397) - http://www.bohemiancoding.com/sketch -->
    <title>Shape</title>
    <desc>Created with Sketch.</desc>
    <defs></defs>
    <g id="jobs" stroke="none" stroke-width="1" fill="none" fill-rule="evenodd">
        <g id="Artboard" transform="translate(-420.000000, -178.000000)" fill="#F2403C">
            <g id="Deadline" transform="translate(420.000000, 178.000000)">
                <path d="M14.3364198,1.72839506 L14.3364198,7.59259259 C14.3364198,8.88888889 13.287037,9.87654321 12.0524691,9.87654321 L11.8055556,9.87654321 C10.4475309,9.87654321 9.27469136,10.9876543 9.27469136,12.4074074 C9.27469136,13.8271605 10.3858025,14.9382716 11.8055556,14.9382716 L12.0524691,14.9382716 C13.3487654,14.9382716 14.3364198,15.9876543 14.3364198,17.2222222 L14.3364198,18.7654321 L3.84259259,18.7654321 L3.84259259,17.1604938 C3.84259259,15.8641975 4.89197531,14.8765432 6.12654321,14.8765432 L6.37345679,14.8765432 C7.73148148,14.8765432 8.90432099,13.7654321 8.90432099,12.345679 C8.90432099,10.9876543 7.79320988,9.81481481 6.37345679,9.81481481 L6.12654321,9.81481481 C4.83024691,9.81481481 3.84259259,8.7654321 3.84259259,7.5308642 L3.84259259,1.66666667 C3.84259259,1.72839506 14.3364198,1.72839506 14.3364198,1.72839506 Z M6.68209877,7.77777778 L6.68209877,3.58024691 C6.68209877,2.59259259 5.13888889,2.59259259 5.13888889,3.58024691 L5.13888889,7.77777778 C5.13888889,8.7654321 6.68209877,8.7654321 6.68209877,7.77777778 Z M12.0524691,11.7283951 C14.3364198,11.7283951 16.1265432,9.87654321 16.1265432,7.65432099 L16.1265432,1.79012346 L17.2993827,1.79012346 C18.4104938,1.79012346 18.4722222,0 17.2993827,0 L16.1265432,0 L2.05246914,0 L0.87962963,0 C-0.293209877,0 -0.293209877,1.79012346 0.87962963,1.79012346 L2.05246914,1.79012346 L2.05246914,7.71604938 C2.05246914,9.9382716 3.90432099,11.7901235 6.12654321,11.7901235 L6.37345679,11.7901235 C6.74382716,11.7901235 7.11419753,12.0987654 7.11419753,12.5308642 C7.11419753,12.9012346 6.80555556,13.2716049 6.37345679,13.2716049 L6.12654321,13.2716049 C3.90432099,13.2716049 2.05246914,15.1234568 2.05246914,17.345679 L2.05246914,23.2098765 L0.87962963,23.2098765 C-0.231481481,23.2098765 -0.293209877,25 0.87962963,25 L2.05246914,25 L16.1265432,25 L17.2993827,25 C18.4104938,25 18.4104938,23.2098765 17.2993827,23.2098765 L16.1265432,23.2098765 L16.1265432,17.345679 C16.1265432,15.0617284 14.2746914,13.2716049 12.0524691,13.2716049 L11.8055556,13.2716049 C11.4351852,13.2716049 11.0648148,12.962963 11.0648148,12.5308642 C11.0648148,12.0987654 11.3734568,11.7901235 11.8055556,11.7901235 C11.8055556,11.7283951 12.0524691,11.7283951 12.0524691,11.7283951 Z M3.84259259,20.4320988 L14.3364198,20.4320988 L14.3364198,23.2098765 L3.84259259,23.2098765 L3.84259259,20.4320988 Z" id="Shape"></path>
            </g>
        </g>
    </g>
</svg>