<?xml version="1.0" encoding="UTF-8" standalone="no"?>
<svg width="33px" height="25px" viewBox="0 0 33 25" version="1.1" xmlns="http://www.w3.org/2000/svg" xmlns:xlink="http://www.w3.org/1999/xlink">
    <!-- Generator: Sketch 41.2 (35397) - http://www.bohemiancoding.com/sketch -->
    <title>Shape</title>
    <desc>Created with Sketch.</desc>
    <defs></defs>
    <g id="jobs" stroke="none" stroke-width="1" fill="none" fill-rule="evenodd">
        <g id="Artboard" transform="translate(-457.000000, -178.000000)" fill="#F2403C">
            <g id="Education" transform="translate(457.000000, 178.000000)">
                <path d="M31.5594974,18.3481153 C31.0421286,18.3481153 30.5247598,18.7915743 30.5247598,19.3828529 C30.5986696,19.9741316 30.9682188,20.4175905 31.5594974,20.4175905 C32.0768662,20.4175905 32.594235,19.9741316 32.594235,19.3828529 C32.5203252,18.7915743 32.0768662,18.3481153 31.5594974,18.3481153 Z M30.5247598,11.6962306 L30.5247598,16.5742794 C30.5247598,17.8307465 32.5203252,17.8307465 32.5203252,16.5742794 L32.5203252,11.6962306 C32.5203252,10.4397635 30.5247598,10.4397635 30.5247598,11.6962306 Z M6.43015521,11.9918699 L15.5210643,15.9830007 C15.9645233,16.2047302 16.4818921,16.2047302 16.9253511,15.9830007 L26.09017,11.9918699 L26.09017,21.8957871 C24.9076127,21.4523282 23.3555063,21.1566888 21.72949,21.1566888 C19.4382853,21.1566888 17.4427199,21.6740576 16.2601626,22.5609756 C15.1515152,21.6740576 13.0820399,21.1566888 10.7908352,21.1566888 C9.09090909,21.1566888 7.53880266,21.4523282 6.43015521,21.969697 L6.43015521,11.9918699 L6.43015521,11.9918699 Z M31.5594974,6.44863267 L16.9992609,0.166297118 C16.5558019,-0.0554323725 16.0384331,-0.0554323725 15.5949741,0.166297118 L1.03473762,6.44863267 C0.36954915,6.74427199 0,7.33555063 0,8.07464893 C0,8.81374723 0.44345898,9.40502587 1.03473762,9.70066519 L4.28677014,11.104952 L4.28677014,23.3000739 C4.28677014,23.8174427 4.58240946,24.3348115 5.09977827,24.556541 C5.54323725,24.7782705 6.13451589,24.7043607 6.50406504,24.3348115 C7.02143385,23.8174427 8.57354028,23.3000739 10.7908352,23.3000739 C13.1559497,23.3000739 14.781966,23.9652624 15.1515152,24.4087214 C15.4471545,24.7782705 15.8167036,25 16.2601626,25 C16.7036216,25 17.0731707,24.7782705 17.3688101,24.4826312 C17.6644494,24.0391722 19.2904656,23.3739837 21.72949,23.3739837 C23.9467849,23.3739837 25.4988914,23.8913525 26.0162602,24.4087214 C26.3858093,24.7782705 26.977088,24.8521803 27.4205469,24.6304508 C27.8640059,24.4087214 28.2335551,23.9652624 28.2335551,23.3739837 L28.2335551,11.1788618 L31.4855876,9.77457502 C32.1507761,9.4789357 32.5203252,8.81374723 32.5203252,8.14855876 C32.594235,7.33555063 32.2246859,6.74427199 31.5594974,6.44863267 Z M28.3074649,8.81374723 L28.3074649,8.81374723 L16.3340724,13.9874353 L5.83887657,9.40502587 L5.83887657,9.40502587 L2.73466371,8.07464893 L16.3340724,2.16186253 L29.9334812,8.07464893 L28.3074649,8.81374723 Z" id="Shape"></path>
            </g>
        </g>
    </g>
</svg>