<?xml version="1.0" encoding="UTF-8" standalone="no"?>
<svg width="38px" height="35px" viewBox="0 0 38 35" version="1.1" xmlns="http://www.w3.org/2000/svg" xmlns:xlink="http://www.w3.org/1999/xlink">
    <!-- Generator: sketchtool 41.2 (35397) - http://www.bohemiancoding.com/sketch -->
    <title>9C8BF996-C258-4897-8573-5656C57111C5</title>
    <desc>Created with sketchtool.</desc>
    <defs></defs>
    <g id="cards" stroke="none" stroke-width="1" fill="none" fill-rule="evenodd">
        <g id="ARTICLE-Reaction-Emoticons&amp;Bottom-nevigation" transform="translate(-272.000000, -318.000000)">
            <g id="Group" transform="translate(123.000000, 318.000000)">
                <g id="Facepalm" transform="translate(149.000000, 0.000000)">
                    <g id="Layer_1">
                        <g>
                            <path d="M19.7417355,0.0433884298 C29.3595041,0.0433884298 37.1549587,7.83884298 37.1549587,17.4566116 C37.1549587,27.0743802 29.3595041,34.8698347 19.7417355,34.8698347 C10.1239669,34.8698347 2.3285124,27.0743802 2.3285124,17.4566116 C2.3285124,7.83884298 10.1239669,0.0433884298 19.7417355,0.0433884298" id="Shape" fill="#8E300E"></path>
                            <path d="M19.7417355,6.81198347 C27.4938017,6.81198347 33.7706612,13.088843 33.7706612,20.8409091 C33.7706612,28.5929752 27.4938017,34.8698347 19.7417355,34.8698347 C11.9896694,34.8698347 5.71280992,28.5929752 5.71280992,20.8409091 C5.71280992,13.088843 11.9896694,6.81198347 19.7417355,6.81198347" id="Shape" fill="#F4E38C"></path>
                            <path d="M19.7417355,34.8553719 C27.4938017,34.8553719 33.7706612,28.5785124 33.7706612,20.8264463 C33.7706612,13.0743802 27.4938017,6.79752066 19.7417355,6.79752066 C18.8161157,6.79752066 17.9194215,6.88429752 17.0371901,7.05785124 C23.4876033,8.3161157 28.3615702,14 28.3615702,20.8264463 C28.3615702,27.6528926 23.4876033,33.3367769 17.0371901,34.5950413 C17.9194215,34.768595 18.8161157,34.8553719 19.7417355,34.8553719" id="Shape" fill="#F4CA92"></path>
                            <path d="M21.5495868,21.3615702 C21.303719,21.3615702 21.1157025,21.1850532 21.1157025,20.9542232 L21.1157025,20.8999103 C21.1157025,18.7002363 23.0103306,16.9214876 25.338843,16.9214876 C27.6818182,16.9214876 29.5764463,18.7002363 29.5764463,20.8999103 C29.5764463,21.1307403 29.3884298,21.3072573 29.142562,21.3072573 C28.8966942,21.3072573 28.7086777,21.1307403 28.7086777,20.8999103 C28.7086777,19.1618963 27.1900826,17.7361817 25.338843,17.7361817 C23.4876033,17.7361817 21.9834711,19.1618963 21.9834711,20.8999103 L21.9834711,20.9542232 C21.9834711,21.1850532 21.7954545,21.3615702 21.5495868,21.3615702 Z" id="Shape" fill="#262476" transform="translate(25.346074, 19.141529) scale(1, -1) translate(-25.346074, -19.141529) "></path>
                            <path d="M24.9194215,30.3285124 C23.2272727,30.3285124 21.5061983,29.0557851 19.8140496,29.0557851 C18.0495868,29.0557851 16.3285124,30.3285124 14.5785124,30.3285124 L14.5785124,30.3285124 C14,30.3285124 13.5371901,29.8801653 13.5371901,29.3305785 C13.5371901,28.2892562 14.5929752,26.5392562 15.3305785,25.8161157 C16.4586777,24.6880165 18.035124,23.9793388 19.7561983,23.9793388 C21.4917355,23.9793388 23.053719,24.6735537 24.1818182,25.8161157 C24.9049587,26.5392562 25.9752066,28.2892562 25.9752066,29.3305785 C25.9607438,29.8946281 25.4834711,30.3285124 24.9194215,30.3285124" id="Shape" fill="#262476"></path>
                            <path d="M23.6768448,30.1382813 C22.3893804,29.7833461 21.0934472,29.0557851 19.8140496,29.0557851 C18.462986,29.0557851 17.1373614,29.8019966 15.804711,30.1516591 C15.786353,30.030441 15.7774984,29.9059509 15.7789256,29.7789256 C15.7789256,28.5061983 16.8057851,27.464876 18.0929752,27.464876 C18.7438017,27.464876 19.322314,27.7396694 19.7417355,28.1590909 C20.161157,27.7252066 20.7396694,27.464876 21.3904959,27.464876 C22.6632231,27.464876 23.7045455,28.4917355 23.7045455,29.7789256 C23.7045455,29.9010812 23.695086,30.0211052 23.6768448,30.1382813 Z" id="Combined-Shape" fill="#F48792"></path>
                            <path d="M21.4483471,3.94834711 C13.8987603,3.94834711 7.47727273,8.73553719 5.06198347,15.446281 C6.5661157,15.9380165 8.1714876,16.1983471 9.83471074,16.1983471 L10.1673554,16.1983471 L10.1818182,16.1983471 C10.2830579,16.1983471 10.3987603,16.1983471 10.5,16.1838843 L10.5289256,16.1838843 C10.6301653,16.1838843 10.731405,16.1694215 10.8326446,16.1694215 L10.8615702,16.1694215 C10.9628099,16.1694215 11.0640496,16.1549587 11.1652893,16.1404959 L11.2086777,16.1404959 C11.3099174,16.1260331 11.411157,16.1260331 11.4979339,16.1115702 L11.5413223,16.1115702 C11.642562,16.0971074 11.7438017,16.0826446 11.8305785,16.0826446 L11.8595041,16.0826446 C11.9607438,16.0681818 12.0619835,16.053719 12.1487603,16.0392562 L12.177686,16.0392562 C12.2789256,16.0247934 12.3801653,16.0103306 12.481405,15.9958678 L12.5103306,15.9958678 C12.6115702,15.981405 12.7128099,15.9524793 12.8140496,15.9380165 L12.8429752,15.9235537 C12.9297521,15.9090909 13.0309917,15.8801653 13.1177686,15.8657025 L13.161157,15.8512397 C13.2479339,15.8367769 13.3347107,15.8078512 13.4214876,15.7933884 L13.4793388,15.7789256 C13.5661157,15.7644628 13.6528926,15.7355372 13.7396694,15.7210744 L13.7975207,15.7066116 C13.8842975,15.677686 13.9566116,15.6632231 14.0433884,15.6342975 L14.1012397,15.6198347 C14.1880165,15.5909091 14.2603306,15.5764463 14.3471074,15.5475207 L14.4049587,15.5330579 C14.4917355,15.5041322 14.5640496,15.4752066 14.6508264,15.446281 L14.7086777,15.4318182 C14.7954545,15.4028926 14.8822314,15.3739669 14.9690083,15.3450413 L15.0413223,15.3161157 C15.1280992,15.2871901 15.2004132,15.2582645 15.2871901,15.2293388 C15.3161157,15.214876 15.3305785,15.214876 15.3595041,15.2004132 C15.4318182,15.1714876 15.518595,15.142562 15.5909091,15.1136364 L15.6487603,15.0847107 C15.7210744,15.0557851 15.7933884,15.0268595 15.8657025,14.9834711 L15.9380165,14.9545455 C16.0103306,14.9256198 16.0826446,14.8966942 16.1549587,14.8677686 L16.2272727,14.838843 C16.2995868,14.8099174 16.3719008,14.7809917 16.4297521,14.7376033 L16.5020661,14.6942149 C16.5743802,14.6652893 16.6322314,14.6219008 16.7045455,14.5929752 C16.7334711,14.5785124 16.7623967,14.5640496 16.7913223,14.5495868 C16.8636364,14.5206612 16.9214876,14.4772727 16.9938017,14.4483471 C17.0227273,14.4338843 17.0516529,14.4194215 17.0805785,14.4049587 C17.1384298,14.3760331 17.2107438,14.3326446 17.268595,14.303719 C17.2975207,14.2892562 17.3409091,14.2603306 17.3698347,14.2458678 C17.427686,14.2169421 17.4855372,14.1735537 17.5433884,14.1446281 C17.572314,14.1301653 17.6157025,14.1012397 17.6446281,14.0867769 C17.7024793,14.0578512 17.7603306,14.0144628 17.8181818,13.9855372 C17.8471074,13.9710744 17.8760331,13.9421488 17.9194215,13.927686 C17.9772727,13.8842975 18.035124,13.8553719 18.0929752,13.8119835 C18.1219008,13.7975207 18.1508264,13.768595 18.1797521,13.7541322 C18.2376033,13.7107438 18.2954545,13.6818182 18.3533058,13.6384298 C18.3822314,13.6239669 18.411157,13.5950413 18.4400826,13.5805785 C18.4979339,13.5371901 18.5557851,13.5082645 18.6136364,13.464876 C18.642562,13.4504132 18.6714876,13.4214876 18.7004132,13.4070248 C18.7582645,13.3636364 18.8161157,13.3347107 18.8595041,13.2913223 C18.8884298,13.2768595 18.9173554,13.2479339 18.946281,13.2334711 C18.9173554,14 18.9896694,14.7809917 19.1487603,15.5330579 C19.9731405,15.3305785 20.768595,14.9979339 21.5206612,14.5206612 C24.8181818,12.4524793 26.1342975,8.41735537 24.9049587,4.90289256 C24.7892562,4.94628099 24.6880165,4.98966942 24.572314,5.03305785 L24.572314,5.03305785 C24.5867769,4.98966942 24.6012397,4.94628099 24.6012397,4.91735537 C24.6157025,4.84504132 24.6446281,4.75826446 24.6590909,4.68595041 L24.6735537,4.64256198 C24.7024793,4.54132231 24.7169421,4.44008264 24.7458678,4.33884298 C23.7190083,4.06404959 22.5909091,3.94834711 21.4483471,3.94834711" id="Shape" fill="#8E300E"></path>
                            <path d="M8.57644628,26.3512397 C6.47933884,26.3512397 4.45454545,25.5268595 2.86363636,24.0371901 C1.21487603,22.5041322 0.260330579,20.4793388 0.144628099,18.3243802 C0.0289256198,16.1694215 0.780991736,14.0867769 2.27066116,12.4524793 C2.54545455,12.1487603 2.79132231,11.8884298 3.02272727,11.6280992 C4.04958678,10.5 4.80165289,9.69008264 6.04545455,8.43181818 C6.05991736,8.38842975 6.10330579,8.3161157 6.1322314,8.27272727 C6.33471074,7.8677686 6.65289256,7.17355372 7.40495868,6.91322314 C7.8822314,6.73966942 8.40289256,6.79752066 8.95247934,7.07231405 L9.12603306,7.15909091 L9.24173554,7.30371901 C9.73347107,7.8822314 9.9214876,8.38842975 9.86363636,9.09710744 C10.6880165,8.22933884 11.4834711,7.34710744 12.2789256,6.47933884 C12.5392562,6.19008264 12.8140496,5.90082645 13.0743802,5.61157025 L13.088843,5.59710744 C13.4359504,5.22107438 13.927686,4.80165289 14.5785124,4.78719008 C15.0413223,4.78719008 15.4752066,4.97520661 15.8657025,5.38016529 C16.1838843,5.69834711 16.4731405,6.10330579 16.5454545,6.59504132 C16.6322314,6.50826446 16.7045455,6.4214876 16.7913223,6.33471074 C16.8636364,6.26239669 16.9214876,6.19008264 16.9938017,6.10330579 C17.3698347,5.6838843 17.8615702,5.1053719 18.642562,5.07644628 C19.1342975,5.06198347 19.6260331,5.26446281 20.0743802,5.71280992 C20.5227273,6.14669421 20.7541322,6.62396694 20.7396694,7.11570248 C20.7396694,7.67975207 20.4359504,8.09917355 20.1177686,8.44628099 C20.5371901,8.48966942 20.9421488,8.69214876 21.3181818,9.0392562 L21.3326446,9.05371901 C22.6632231,10.3553719 21.5206612,11.5702479 21.0867769,12.0330579 L21.0578512,12.0619835 C20.768595,12.3801653 20.464876,12.6983471 20.161157,13.0165289 C20.4938017,13.0309917 20.927686,13.1466942 21.3760331,13.5516529 C21.8099174,13.927686 22.0413223,14.3760331 22.0557851,14.8677686 C22.0847107,15.6053719 21.607438,16.1838843 21.1735537,16.6177686 C20.4793388,17.3553719 19.7706612,18.1219008 19.0909091,18.8595041 C18.6136364,19.3801653 18.1363636,19.9008264 17.6590909,20.4070248 L17.6590909,20.4070248 L14.4772727,23.8057851 C12.9442149,25.4256198 10.9194215,26.3367769 8.76446281,26.3801653 C8.69214876,26.3512397 8.63429752,26.3512397 8.57644628,26.3512397 Z M7.95454545,8.56198347 C7.8677686,8.63429752 7.73760331,8.8946281 7.67975207,9.0392562 C7.5785124,9.25619835 7.47727273,9.44421488 7.31818182,9.6177686 L7.30371901,9.6322314 C6.05991736,10.8760331 5.32231405,11.7004132 4.29545455,12.8140496 C4.06404959,13.0743802 3.81818182,13.3347107 3.54338843,13.6384298 C1.11363636,16.2995868 1.33057851,20.2334711 4.04958678,22.7789256 C6.76859504,25.3099174 10.7024793,25.2376033 13.1900826,22.6053719 L16.3719008,19.2066116 C16.8491736,18.6859504 17.3264463,18.1797521 17.803719,17.6590909 C18.4834711,16.9214876 19.1921488,16.1549587 19.9008264,15.4028926 L19.9152893,15.3884298 C20.1756198,15.1280992 20.2623967,14.9979339 20.2913223,14.9256198 C20.2768595,14.911157 20.2479339,14.8822314 20.2045455,14.838843 C20.1177686,14.7520661 20.0599174,14.7376033 20.0599174,14.7376033 C20.0599174,14.7376033 19.9152893,14.7665289 19.6260331,15.1136364 C18.642562,16.2272727 17.6157025,17.2975207 16.6177686,18.338843 C16.588843,18.3677686 16.5743802,18.3966942 16.5454545,18.4256198 C16.3719008,18.6570248 16.0392562,19.0909091 15.446281,19.1487603 C15.0557851,19.177686 14.6942149,19.0330579 14.3471074,18.714876 L14.3181818,18.6859504 C14,18.3533058 13.8409091,17.9917355 13.8553719,17.6157025 C13.8698347,17.0371901 14.2747934,16.6900826 14.4917355,16.4876033 C14.5206612,16.4586777 14.5640496,16.4297521 14.5929752,16.4008264 C15.446281,15.4896694 16.3140496,14.5640496 17.1673554,13.6384298 C18.035124,12.7128099 18.9028926,11.7871901 19.7561983,10.8615702 L19.785124,10.8181818 C19.9008264,10.6880165 20.1033058,10.4855372 20.161157,10.3698347 C20.1466942,10.3553719 20.1177686,10.3119835 20.088843,10.2830579 C20.0165289,10.2107438 19.9586777,10.1818182 19.9297521,10.1673554 C19.8429752,10.2107438 19.6694215,10.3698347 19.4235537,10.6301653 C19.0475207,11.035124 18.6714876,11.4400826 18.2954545,11.8450413 C17.0950413,13.1466942 15.8367769,14.4917355 14.5785124,15.7789256 C14.5495868,15.8078512 14.4917355,15.9090909 14.4483471,15.981405 C14.2169421,16.3429752 13.8842975,16.8780992 13.2190083,16.964876 C12.785124,17.0227273 12.3801653,16.8636364 11.9896694,16.4876033 C11.5268595,16.0681818 11.4545455,15.6342975 11.4690083,15.3450413 C11.5123967,14.6942149 12.0330579,14.303719 12.3367769,14.0867769 C12.3946281,14.0433884 12.481405,13.9710744 12.5247934,13.9421488 C13.5950413,12.7561983 14.7086777,11.5847107 15.7789256,10.4421488 C16.588843,9.58884298 17.4132231,8.70661157 18.2231405,7.82438017 C18.338843,7.70867769 18.4400826,7.60743802 18.5413223,7.50619835 C18.6570248,7.39049587 18.8595041,7.21694215 18.9318182,7.10123967 C18.9173554,7.07231405 18.8739669,7.02892562 18.8016529,6.95661157 C18.7293388,6.88429752 18.6714876,6.84090909 18.642562,6.82644628 C18.5268595,6.89876033 18.338843,7.11570248 18.2231405,7.24586777 C18.1363636,7.34710744 18.0640496,7.4338843 17.9772727,7.52066116 C17.4421488,8.09917355 16.9070248,8.67768595 16.357438,9.25619835 C14.9834711,10.731405 13.5661157,12.2644628 12.1198347,13.7396694 L12.0909091,13.768595 C12.0619835,13.7975207 12.018595,13.8842975 11.9752066,13.927686 C11.7727273,14.231405 11.4400826,14.7520661 10.7892562,14.8099174 C10.3698347,14.8533058 9.96487603,14.6942149 9.57438017,14.3181818 C9.14049587,13.8842975 9.06818182,13.464876 9.09710744,13.1756198 C9.14049587,12.5392562 9.6322314,12.177686 9.9214876,11.9607438 C9.96487603,11.9318182 10.0371901,11.8739669 10.0661157,11.8450413 C11.5702479,10.2107438 13.0309917,8.64876033 14.5206612,7.08677686 C14.6508264,6.94214876 14.7086777,6.8553719 14.7231405,6.81198347 C14.7086777,6.78305785 14.6508264,6.7107438 14.5495868,6.59504132 C14.535124,6.58057851 14.5206612,6.5661157 14.5061983,6.55165289 C14.4628099,6.59504132 14.3760331,6.65289256 14.2747934,6.76859504 C14.0144628,7.05785124 13.7541322,7.34710744 13.4938017,7.63636364 C12.25,8.99586777 10.9628099,10.4132231 9.6322314,11.7438017 C9.45867769,11.9173554 9.24173554,12.1632231 9.01033058,12.4090909 C7.99793388,13.5371901 7.11570248,14.5206612 6.1322314,14.2024793 C5.77066116,14.0867769 5.30785124,13.7396694 5.22107438,12.8140496 L5.17768595,12.4235537 L5.45247934,12.1342975 C6.30578512,11.2231405 7.17355372,10.2975207 7.99793388,9.40082645 C8.11363636,8.90909091 8.09917355,8.75 7.96900826,8.57644628 C7.99793388,8.56198347 7.96900826,8.56198347 7.95454545,8.56198347 Z" id="Shape" fill="#FBB98D"></path>
                            <path d="M17.0082645,19.785124 C15.9524793,20.9132231 14.8822314,22.0557851 13.8264463,23.1838843 C11.0061983,26.1632231 6.50826446,26.25 3.45661157,23.4008264 C0.404958678,20.5516529 0.159090909,16.053719 2.90702479,13.0454545 C4.3822314,11.4400826 5.16322314,10.5578512 6.69628099,9.01033058 C6.98553719,8.70661157 7.21694215,7.20247934 8.56198347,7.85330579 C9.02479339,8.40289256 9.11157025,8.77892562 8.83677686,9.82024793 C7.94008264,10.7892562 7.04338843,11.7582645 6.1322314,12.7272727 C6.32024793,14.5640496 8.04132231,12.1632231 9.06818182,11.1363636 C10.6735537,9.54545455 12.177686,7.85330579 13.696281,6.19008264 C14.1880165,5.66942149 14.6363636,5.3946281 15.2293388,5.98760331 C15.8367769,6.59504132 15.7933884,7.05785124 15.214876,7.67975207 C13.7107438,9.25619835 12.2355372,10.8326446 10.7603306,12.4380165 C10.4710744,12.7417355 9.6322314,13.0599174 10.2541322,13.6818182 C10.9772727,14.3904959 11.2231405,13.4214876 11.5557851,13.1177686 C13.5371901,11.0785124 15.446281,8.99586777 17.3987603,6.91322314 C17.9483471,6.33471074 18.4979339,5.3946281 19.4524793,6.32024793 C20.4070248,7.24586777 19.4524793,7.80991736 18.9028926,8.38842975 C17.0082645,10.4421488 15.0702479,12.4524793 13.1900826,14.5206612 C12.857438,14.8677686 11.9318182,15.2004132 12.6115702,15.8367769 C13.3636364,16.5454545 13.6384298,15.518595 13.9855372,15.1570248 C15.6198347,13.4793388 17.196281,11.7582645 18.8161157,10.0227273 C19.3801653,9.41528926 19.9297521,8.90909091 20.7107438,9.64669421 C21.4483471,10.3698347 20.8987603,10.9194215 20.4070248,11.4400826 C18.6859504,13.2913223 16.9504132,15.1280992 15.2293388,16.9793388 C14.9690083,17.2541322 14.4194215,17.5289256 14.9400826,18.0640496 C15.4896694,18.5702479 15.7355372,18.0061983 15.981405,17.731405 C16.9938017,16.6756198 18.0061983,15.6198347 18.9752066,14.5206612 C19.5247934,13.8987603 20.1177686,13.5805785 20.7830579,14.1735537 C21.5061983,14.8099174 21.1012397,15.4173554 20.5371901,15.981405 C19.3512397,17.2396694 18.1942149,18.5123967 17.0082645,19.785124 L17.0082645,19.785124" id="Shape" fill="#F4E38C"></path>
                        </g>
                    </g>
                </g>
            </g>
        </g>
    </g>
</svg>