<?xml version="1.0" encoding="UTF-8" standalone="no"?>
<svg width="80px" height="80px" viewBox="0 0 80 80" version="1.1" xmlns="http://www.w3.org/2000/svg" xmlns:xlink="http://www.w3.org/1999/xlink">
    <!-- Generator: Sketch 41.2 (35397) - http://www.bohemiancoding.com/sketch -->
    <title>fab icon</title>
    <desc>Created with Sketch.</desc>
    <defs></defs>
    <g id="Business" stroke="none" stroke-width="1" fill="none" fill-rule="evenodd">
        <g id="COMMUNITY-My-Community-Full-View" transform="translate(-462.000000, -1971.000000)">
            <g id="fab-icon" transform="translate(462.000000, 1971.000000)">
                <circle id="Oval-2" stroke="#FFFFFF" stroke-width="3" fill="#3949AB" cx="40" cy="40" r="38"></circle>
                <g id="Community" transform="translate(20.573149, 33.129880)" fill="#FFFFFF">
                    <path d="M22.2798007,13.5842756 C19.6321667,13.5842756 17.4858353,11.412173 17.4858353,8.73274862 C17.4858353,6.05332424 19.6321667,3.88122161 22.2798007,3.88122161 C24.9274347,3.88122161 27.0737661,6.05332424 27.0737661,8.73274862 C27.0737661,11.412173 24.9274347,13.5842756 22.2798007,13.5842756 L22.2798007,13.5842756 Z M22.2798007,5.82183242 C20.6912203,5.82183242 19.4034214,7.12509399 19.4034214,8.73274862 C19.4034214,10.3404033 20.6912203,11.6436648 22.2798007,11.6436648 C23.8683811,11.6436648 25.1561799,10.3404033 25.1561799,8.73274862 C25.1561799,7.12509399 23.8683811,5.82183242 22.2798007,5.82183242 L22.2798007,5.82183242 Z M14.1204716,18.7463004 C13.1590029,16.705052 11.0895324,15.4385422 8.85669757,15.5248864 C4.53254078,15.5248864 2.79712531,19.0694121 2.30814084,23.2873297 L0.400142609,23.2873297 C1.02335811,18.0234229 3.47786839,13.5842756 8.85669757,13.5842756 C11.4877565,13.4950522 13.9618018,14.8489326 15.3285509,17.1258904 C14.8493113,17.6029682 14.4422362,18.1489825 14.1204716,18.7463004 L14.1204716,18.7463004 Z M8.85669757,11.6436648 C5.67953679,11.6436648 3.10393909,9.03714167 3.10393909,5.82183242 C3.10393909,2.60652316 5.67953679,0 8.85669757,0 C12.0338583,0 14.609456,2.60652316 14.609456,5.82183242 C14.609456,9.03714167 12.0338583,11.6436648 8.85669757,11.6436648 L8.85669757,11.6436648 Z M8.85669757,1.94061081 C6.73859039,1.94061081 5.02152525,3.67829291 5.02152525,5.82183242 C5.02152525,7.96537192 6.73859039,9.70305403 8.85669757,9.70305403 C10.9748048,9.70305403 12.6918699,7.96537192 12.6918699,5.82183242 C12.6918699,3.67829291 10.9748048,1.94061081 8.85669757,1.94061081 L8.85669757,1.94061081 Z M22.2798007,15.5248864 C26.4984902,15.5248864 28.3969005,19.0839667 28.8667091,23.2873297 L26.9682988,23.2873297 C26.6231333,20.1231637 25.3767023,17.4654972 22.2798007,17.4654972 C19.182899,17.4654972 17.936468,20.1251044 17.5913025,23.2873297 L15.6928922,23.2873297 C16.1627008,19.084937 18.0611111,15.5248864 22.2798007,15.5248864 L22.2798007,15.5248864 Z" id="users"></path>
                </g>
                <g id="Group-2" transform="translate(45.513087, 25.489029)" stroke="#FFFFFF" fill="#FFFFFF">
                    <path d="M5.80523897,5.99371831 L-3.55271368e-15,5.99371831 L-3.55271368e-15,6.87015351 L5.80523897,6.87015351 L5.80523897,12.6753925 L6.68167417,12.6753925 L6.68167417,6.87015351 L12.4869131,6.87015351 L12.4869131,5.99371831 L6.68167417,5.99371831 L6.68167417,0.188479337 L5.80523897,0.188479337 L5.80523897,5.99371831 Z" id="Combined-Shape"></path>
                </g>
            </g>
        </g>
    </g>
</svg>