<svg width="59dp" height="64dp" viewBox="0 0 118 129" xmlns="http://www.w3.org/2000/svg"><title>6AC6F927-C355-4EB8-B435-9900CD2A6438</title><g fill="none" fill-rule="evenodd"><path d="M24.51 104.06h85.892C91.376 82.237 90.839 39.345 90.839 37.41c0-18.275-14.835-33.217-33.11-33.217-18.276 0-33.11 14.835-33.11 33.11l-.108 66.757zm90.3 4.192H20.317V37.41C20.317 16.77 37.087 0 57.727 0c20.64 0 37.41 16.77 37.41 37.41 0 .43.538 47.515 21.393 66.758l1.075.967-.43 1.612c-.537.86-1.397 1.505-2.365 1.505z" fill="#36357D"/><path d="M100.513 28.273c0 1.075-.86 1.934-1.936 1.934a1.927 1.927 0 0 1-1.934-1.934c0-1.075.86-1.936 1.934-1.936.968-.107 1.936.753 1.936 1.936zM16.878 52.998c0 1.075-.86 1.934-1.935 1.934a1.927 1.927 0 0 1-1.935-1.934c0-1.075.86-1.935 1.935-1.935 1.074-.108 1.935.86 1.935 1.934zM116.422 55.685a2.661 2.661 0 0 1-2.687 2.688 2.661 2.661 0 0 1-2.688-2.688 2.661 2.661 0 0 1 2.688-2.688c1.397 0 2.688 1.183 2.688 2.688zM5.912 91.375a2.661 2.661 0 0 1-2.687 2.688 2.661 2.661 0 0 1-2.688-2.688 2.661 2.661 0 0 1 2.688-2.688c1.397 0 2.687 1.183 2.687 2.688zM117.82 7.633a2.661 2.661 0 0 1-2.688 2.687 2.661 2.661 0 0 1-2.687-2.688 2.661 2.661 0 0 1 2.688-2.687c1.505-.107 2.687 1.183 2.687 2.688zM10.75 19.672c0 2.043-1.72 3.763-3.763 3.763-2.042 0-3.762-1.72-3.762-3.762 0-2.043 1.72-3.763 3.762-3.763 2.043 0 3.763 1.613 3.763 3.762z" fill="#FEFEFE"/><path d="M92.343 129v-5.59c0-18.705-15.266-33.97-33.97-33.97-18.706 0-33.97 15.265-33.97 33.97V129h67.94z" fill="#70B4E3"/><path d="M94.493 129H90.3v-5.59c0-17.63-14.297-31.927-31.927-31.927-7.633 0-14.943 2.794-20.748 7.74l-2.795-3.225a35.942 35.942 0 0 1 23.543-8.816c19.887 0 36.12 16.233 36.12 36.12V129zM30.207 108.468l-3.762-2.043a39.12 39.12 0 0 1 3.762-5.59l3.333 2.688c-1.29 1.505-2.473 3.225-3.332 4.945zM26.445 129h-4.192v-5.59c0-2.795.322-5.59.967-8.278l4.085.968c-.538 2.365-.86 4.838-.86 7.31V129z" fill="#36357D"/><path d="M57.727 103.2c-4.084 0-7.417-3.332-7.417-7.418V80.088c0-4.085 3.332-7.418 7.417-7.418 4.086 0 7.418 3.332 7.418 7.418v15.695c0 4.085-3.332 7.417-7.417 7.417z" fill="#FEFEFE"/><path d="M57.727 74.82a5.276 5.276 0 0 0-5.267 5.268v15.695a5.276 5.276 0 0 0 5.267 5.267 5.276 5.276 0 0 0 5.268-5.267V80.088a5.276 5.276 0 0 0-5.267-5.268zm0 30.53c-5.267 0-9.567-4.3-9.567-9.567V80.088c0-5.268 4.3-9.568 9.568-9.568 5.267 0 9.567 4.3 9.567 9.568v15.695c-.108 5.267-4.3 9.567-9.568 9.567z" fill="#36357D"/><path d="M86.323 38.055v19.672c0 16.556-12.9 29.993-28.595 29.993-15.696 0-28.596-13.545-28.596-29.992V38.055h25.693c3.762 0 7.203-1.935 9.352-5.16l3.118-4.623 2.365 3.548c2.472 3.655 6.558 5.913 10.858 6.127l5.805.108z" fill="#FEFEFE"/><path d="M89.547 39.667h-9.46c-4.73 0-9.245-2.364-11.932-6.235l-1.075-1.505-.43.645c-3.01 4.408-8.063 6.988-13.438 6.988H25.477v-4.085h27.735c3.978 0 7.74-1.935 9.998-5.268l3.977-5.697 4.516 6.45c1.934 2.795 5.16 4.407 8.492 4.407h9.46l-.108 4.3zM57.727 89.87c-15.587 0-29.024-12.148-30.53-27.628l4.193-.43c1.29 13.33 12.9 23.865 26.337 23.865 13.545 0 25.155-10.535 26.338-23.972l4.192.43C86.86 77.615 73.422 89.87 57.727 89.87z" fill="#36357D"/><path fill="#36357D" d="M63.962 70.627h-8.707V58.48h4.192v7.955h4.515zM62.995 80.195H54.18c-2.58 0-4.945-.967-6.773-2.795l-1.934-1.935 3.01-3.01 1.934 1.935c.968.968 2.365 1.612 3.763 1.612h8.815c1.398 0 2.795-.537 3.762-1.612l1.935-1.935 3.01 3.01-1.934 1.935c-1.828 1.828-4.193 2.795-6.773 2.795z"/><path d="M60.523 48.053c-4.73 17.952-26.016 19.35-26.016 19.35l.43-28.488h25.586s.537 6.88 0 9.138z" fill="#70B4E3"/><path d="M60.523 48.053c4.73 17.952 25.584 19.887 25.584 19.887V39.023H60.523c0-.108-.646 6.772 0 9.03z" fill="#70B4E3"/><path d="M36.443 40.42l-.43 25.37c4.837-.753 19.35-4.193 23.112-18.06.322-1.182.215-4.622.108-7.202l-22.79-.108zm-3.44 28.595l.43-31.498h28.38l.107 1.29c.108.753.645 7.203 0 9.568C56.975 67.188 34.83 68.8 34.615 68.907l-1.613.108z" fill="#36357D"/><path d="M61.92 40.42c-.215 2.58-.215 6.02.108 7.203 3.655 13.974 17.845 17.63 22.682 18.49v-25.8H61.92v.107zm25.585 29.025l-1.612-.107c-.216 0-21.823-2.15-26.876-20.963-.645-2.365-.107-8.815 0-9.568l.108-1.29h28.38v31.928z" fill="#36357D"/><path d="M52.998 55.04c0 8.922-7.31 16.232-16.233 16.232-8.922 0-16.233-7.31-16.233-16.232s7.31-16.233 16.233-16.233c8.922 0 16.233 7.31 16.233 16.233z" fill="#DCEDFA"/><path d="M49.343 55.04c0 6.988-5.59 12.578-12.578 12.578A12.525 12.525 0 0 1 24.187 55.04c0-6.987 5.59-12.578 12.578-12.578 6.88 0 12.578 5.698 12.578 12.578z" fill="#70B4E3"/><path d="M36.765 42.462a12.358 12.358 0 0 0-8.385 3.225l17.738 17.738a12.358 12.358 0 0 0 3.224-8.385v-.43L37.196 42.462h-.43zM25.155 50.417l16.34 16.34c1.183-.537 2.365-1.182 3.333-2.042l-17.63-17.63c-.968.968-1.613 2.042-2.043 3.332z" fill="#B0D5F2"/><path d="M100.942 55.04c0 8.922-7.31 16.232-16.232 16.232s-16.232-7.31-16.232-16.232 7.31-16.233 16.232-16.233 16.233 7.31 16.233 16.233z" fill="#DCEDFA"/><path d="M36.765 40.313c-8.17 0-14.727 6.664-14.727 14.727 0 8.17 6.665 14.727 14.727 14.727 8.17 0 14.727-6.664 14.727-14.727 0-8.17-6.557-14.727-14.727-14.727zm0 32.465c-9.782 0-17.63-7.956-17.63-17.63 0-9.783 7.955-17.63 17.63-17.63 9.782 0 17.63 7.954 17.63 17.63 0 9.675-7.848 17.63-17.63 17.63zM84.71 40.313c-8.17 0-14.727 6.664-14.727 14.727 0 8.17 6.664 14.727 14.727 14.727 8.17 0 14.728-6.664 14.728-14.727.107-8.17-6.558-14.727-14.728-14.727zm0 32.465c-9.782 0-17.63-7.956-17.63-17.63 0-9.783 7.955-17.63 17.63-17.63 9.783 0 17.63 7.954 17.63 17.63.108 9.675-7.847 17.63-17.63 17.63z" fill="#36357D"/><path d="M97.287 55.04c0 6.988-5.59 12.578-12.577 12.578A12.525 12.525 0 0 1 72.132 55.04c0-6.987 5.59-12.578 12.578-12.578 6.988 0 12.578 5.698 12.578 12.578z" fill="#70B4E3"/><path d="M84.71 42.462a12.358 12.358 0 0 0-8.385 3.225l17.737 17.738a12.358 12.358 0 0 0 3.225-8.385v-.43L85.14 42.462h-.43zM73.1 50.417l16.34 16.34c1.183-.537 2.365-1.182 3.332-2.042l-17.63-17.63c-.86.968-1.504 2.042-2.042 3.332zM66.22 44.398c0 3.01-2.472 5.482-5.483 5.482-3.01 0-5.482-2.473-5.482-5.483s2.472-5.482 5.482-5.482c3.01 0 5.483 2.473 5.483 5.483z" fill="#B0D5F2"/><path d="M60.737 40.42a3.968 3.968 0 0 0-3.977 3.977 3.968 3.968 0 0 0 3.977 3.978c2.15 0 3.978-1.828 3.978-3.977 0-2.258-1.72-3.978-3.978-3.978zm0 10.858a6.859 6.859 0 0 1-6.88-6.88c0-3.87 3.118-6.88 6.88-6.88 3.87 0 6.88 3.117 6.88 6.88.108 3.87-3.01 6.88-6.88 6.88z" fill="#36357D"/><path fill="#3484C5" d="M62.028 45.903h-2.795v-3.01h2.795z"/></g></svg>