<?xml version="1.0" encoding="UTF-8" standalone="no"?>
<svg width="40px" height="22px" viewBox="0 0 40 22" version="1.1" xmlns="http://www.w3.org/2000/svg" xmlns:xlink="http://www.w3.org/1999/xlink">
    <!-- Generator: sketchtool 41.2 (35397) - http://www.bohemiancoding.com/sketch -->
    <title>A225DD61-FC76-495B-A153-0F0647A47D8B</title>
    <desc>Created with sketchtool.</desc>
    <defs></defs>
    <g id="personal-profile---himanshu" stroke="none" stroke-width="1" fill="none" fill-rule="evenodd">
        <g id="personal---profile-full-view" transform="translate(-40.000000, -87.000000)" fill="#FFFFFF">
            <g id="header">
                <path d="M41.2429379,96.7777778 C40.5649718,96.7777778 40,97.3333333 40,98 C40,98.6666667 40.5649718,99.2222222 41.2429379,99.2222222 L78.7570621,99.2222222 C79.4350282,99.2222222 80,98.6666667 80,98 C80,97.3333333 79.4350282,96.7777778 78.7570621,96.7777778 C78.7570621,96.7777778 41.2429379,96.7777778 41.2429379,96.7777778 Z M41.2429379,106.555556 C40.5649718,106.555556 40,107.111111 40,107.777778 C40,108.444444 40.5649718,109 41.2429379,109 L78.7570621,109 C79.4350282,109 80,108.444444 80,107.777778 C80,107.111111 79.4350282,106.555556 78.7570621,106.555556 C78.7570621,106.555556 41.2429379,106.555556 41.2429379,106.555556 Z M41.2429379,87 C40.5649718,87 40,87.5555556 40,88.2222222 C40,88.8888889 40.5649718,89.4444444 41.2429379,89.4444444 L78.7570621,89.4444444 C79.4350282,89.4444444 80,88.8888889 80,88.2222222 C80,87.5555556 79.4350282,87 78.7570621,87 C78.7570621,87 41.2429379,87 41.2429379,87 Z" id="Hamburger"></path>
            </g>
        </g>
    </g>
</svg>