<?xml version="1.0" encoding="UTF-8" standalone="no"?>
<svg width="250px" height="250px" viewBox="0 0 250 250" version="1.1" xmlns="http://www.w3.org/2000/svg" xmlns:xlink="http://www.w3.org/1999/xlink">
    <!-- Generator: sketchtool 41.2 (35397) - http://www.bohemiancoding.com/sketch -->
    <title>B5613772-DD79-4563-8872-A14462F2CCB7</title>
    <desc>Created with sketchtool.</desc>
    <defs></defs>
    <g id="settings" stroke="none" stroke-width="1" fill="none" fill-rule="evenodd">
        <g id="SETTING-feedback-view4" transform="translate(-235.000000, -366.000000)">
            <g id="header">
                <g id="Thank-You-Smile" transform="translate(235.000000, 366.000000)">
                    <ellipse id="Oval" fill="#FFFFFF" cx="124.758285" cy="124.758772" rx="120.299708" ry="120.299708"></ellipse>
                    <path d="M61.5526316,187.960039 C18.2772904,144.684211 14.8674464,76.6413255 51.3196881,29.460039 C47.2816764,32.5794347 43.3966862,35.9897661 39.6929825,39.6934698 C-7.28606238,86.6725146 -7.28606238,162.840643 39.6929825,209.819688 C86.6720273,256.798733 162.840156,256.798733 209.819201,209.819688 C213.522417,206.116472 216.932749,202.230507 220.052632,198.192982 C172.871832,234.645224 104.82846,231.23538 61.5526316,187.960039 Z" id="Shape" fill="#E8EAF6"></path>
                    <path d="M124.756823,249.513158 C55.9653996,249.513158 0,193.547758 0,124.756823 C0,55.9658869 55.9653996,0.000487329435 124.756823,0.000487329435 C193.548246,0.000487329435 249.513158,55.9658869 249.513158,124.756335 C249.512671,193.547758 193.547758,249.513158 124.756823,249.513158 Z M124.756823,8.91812865 C60.8830409,8.91812865 8.91764133,60.8830409 8.91764133,124.75731 C8.91764133,188.631579 60.8825536,240.596491 124.756823,240.596491 C188.631092,240.596491 240.595517,188.630604 240.595517,124.756823 C240.595029,60.8830409 188.62963,8.91812865 124.756823,8.91812865 Z" id="Shape" fill="#0D57A1"></path>
                    <path d="M230.191033,129.215887 C227.72807,129.215887 225.731969,127.219298 225.731969,124.756823 C225.731969,100.401559 216.903021,76.8630604 200.87232,58.4770955 C184.994152,40.2670565 163.185185,28.3245614 139.463938,24.8489279 C137.026803,24.4922027 135.341131,22.2270955 135.698343,19.7909357 C136.055556,17.3538012 138.326511,15.668616 140.756335,16.0253411 C166.581384,19.8094542 190.317739,32.8040936 207.593567,52.6164717 C225.041423,72.6262183 234.64961,98.2461014 234.64961,124.756823 C234.650097,127.219298 232.653996,129.215887 230.191033,129.215887 Z" id="Shape" fill="#E8EAF6"></path>
                    <path d="M96.8123782,116.800682 C95.294347,116.800682 93.8153021,116.025341 92.9805068,114.62768 C88.952729,107.885965 81.8591618,103.860624 74.0053606,103.860624 C66.1515595,103.860624 59.0579922,107.885478 55.0302144,114.62768 C53.7680312,116.741715 51.0302144,117.431287 48.915692,116.168616 C46.8016569,114.905458 46.1120858,112.168129 47.3747563,110.054094 C53.0277778,100.591618 62.9829435,94.9434698 74.0053606,94.9434698 C85.0277778,94.9434698 94.9829435,100.592593 100.635965,110.054094 C101.898635,112.168129 101.209064,114.905945 99.0950292,116.168616 C98.378655,116.597466 97.5896686,116.800682 96.8123782,116.800682 Z" id="Shape" fill="#0D57A1"></path>
                    <path d="M198.314327,116.800682 C196.796296,116.800682 195.317251,116.025341 194.482456,114.62768 C190.454678,107.885965 183.361111,103.860624 175.506823,103.860624 C167.653509,103.860624 160.559942,107.885965 156.532164,114.62768 C155.269493,116.741715 152.531676,117.431287 150.417641,116.168616 C148.303606,114.905945 147.614035,112.168129 148.876706,110.054094 C154.529727,100.592593 164.484893,94.9434698 175.506823,94.9434698 C186.52924,94.9434698 196.484405,100.592105 202.137914,110.054094 C203.400585,112.168129 202.711014,114.905458 200.596979,116.168616 C199.881092,116.597466 199.092593,116.800682 198.314327,116.800682 Z" id="Shape" fill="#0D57A1"></path>
                    <path d="M124.756823,182.356725 C100.567251,182.356725 76.3874269,173.152534 57.9722222,154.738304 C56.2309942,152.997076 56.2309942,150.174464 57.9722222,148.432749 C59.7139376,146.69152 62.537037,146.69152 64.2782651,148.432749 C97.6237817,181.780214 151.885478,181.780702 185.234893,148.432749 C186.977583,146.69152 189.800195,146.692008 191.540936,148.432749 C193.282164,150.173977 193.282164,152.997563 191.540936,154.738791 C173.130117,173.148635 148.939084,182.356725 124.756823,182.356725 Z" id="Shape" fill="#0D57A1"></path>
                    <path d="M124.756823,199.654971 C117.565789,199.654971 110.378168,198.675439 103.387427,196.714912 C101.016569,196.050195 99.6330409,193.589181 100.297758,191.217836 C100.962476,188.846979 103.422027,187.462963 105.794834,188.128168 C118.199318,191.606238 131.31384,191.606725 143.719298,188.128168 C146.092105,187.46345 148.551657,188.846979 149.216374,191.217836 C149.881092,193.589181 148.497563,196.050195 146.126706,196.714912 C139.13694,198.674464 131.944932,199.654971 124.756823,199.654971 Z" id="Shape" fill="#448AFF"></path>
                    <ellipse id="Oval" fill="#E8EAF6" cx="124.758285" cy="19.3221248" rx="4.45906433" ry="4.45906433"></ellipse>
                </g>
            </g>
        </g>
    </g>
</svg>