<?xml version="1.0" encoding="UTF-8" standalone="no"?>
<svg width="60px" height="52px" viewBox="0 0 60 52" version="1.1" xmlns="http://www.w3.org/2000/svg" xmlns:xlink="http://www.w3.org/1999/xlink">
    <!-- Generator: sketchtool 41.2 (35397) - http://www.bohemiancoding.com/sketch -->
    <title>5C0A42A0-9BF8-4376-A58B-D5BF9882FEF7</title>
    <desc>Created with sketchtool.</desc>
    <defs></defs>
    <g id="cards" stroke="none" stroke-width="1" fill="none" fill-rule="evenodd">
        <g id="ARTICLE-Reaction-Emoticons&amp;Bottom-nevigation" transform="translate(-594.000000, -158.000000)" fill="#F1403C">
            <path d="M628.674221,160.889518 C631.223796,159.189802 634.453258,158.169972 637.68272,158.169972 C642.101983,158.169972 646.181303,160.379603 649.070822,163.609065 C652.130312,167.008499 654,171.427762 654,176.016997 L654,176.016997 L654,176.016997 L654,176.016997 C654,185.535411 647.541076,193.864023 640.74221,199.983003 C633.943343,206.101983 626.294618,209.84136 624.084986,209.84136 L624.084986,209.84136 L624.084986,209.84136 C621.535411,209.84136 610.31728,204.062323 602.498584,195.053824 C597.739377,189.614731 594,182.985836 594,175.847025 C594,171.25779 595.869688,166.668555 598.929178,163.439093 C601.818697,160.209632 605.898017,158 610.31728,158 C613.716714,158 616.776204,159.01983 619.325779,160.719547 C621.195467,161.909348 622.725212,163.439093 623.915014,165.308782 C625.274788,163.609065 626.804533,162.07932 628.674221,160.889518 L628.674221,160.889518 Z" id="Shape"></path>
        </g>
    </g>
</svg>