<svg width="360" height="640" viewBox="0 0 360 640" xmlns="http://www.w3.org/2000/svg" xmlns:xlink="http://www.w3.org/1999/xlink"><title>F4AEFDDD-48AC-463B-ADAA-35DAA4326C34</title><defs><linearGradient x1="0%" y1="0%" x2="102%" y2="101%" id="b"><stop stop-color="#3567FF" offset="0%"/><stop stop-color="#6133FF" offset="99.201%"/></linearGradient><path id="a" d="M0 0h360v640H0z"/><linearGradient x1="50%" y1="0%" x2="50%" y2="100%" id="f"><stop stop-color="#FFF" offset="0%"/><stop stop-color="#FFF" stop-opacity="0" offset="100%"/></linearGradient><path id="e" d="M0 0h360v640H0z"/><filter x="-50%" y="-50%" width="200%" height="200%" filterUnits="objectBoundingBox" id="d"><feOffset dy="2" in="SourceAlpha" result="shadowOffsetOuter1"/><feGaussianBlur stdDeviation="21" in="shadowOffsetOuter1" result="shadowBlurOuter1"/><feColorMatrix values="0 0 0 0 0.556862745 0 0 0 0 0.474509804 0 0 0 0 0.843137255 0 0 0 1 0" in="shadowBlurOuter1"/></filter><linearGradient x1="50%" y1="0%" x2="50%" y2="28.786%" id="i"><stop stop-color="#A9D3F7" offset="0%"/><stop stop-color="#70A8EC" offset="100%"/></linearGradient><circle id="g" cx="437" cy="437" r="437"/><filter x="-50%" y="-50%" width="200%" height="200%" filterUnits="objectBoundingBox" id="h"><feOffset dy="2" in="SourceAlpha" result="shadowOffsetOuter1"/><feGaussianBlur stdDeviation="13.5" in="shadowOffsetOuter1" result="shadowBlurOuter1"/><feColorMatrix values="0 0 0 0 0.666666667 0 0 0 0 0.839215686 0 0 0 0 0.290196078 0 0 0 0.554545969 0" in="shadowBlurOuter1"/></filter><filter x="-50%" y="-50%" width="200%" height="200%" filterUnits="objectBoundingBox" id="j"><feOffset dy="76" in="SourceAlpha" result="shadowOffsetInner1"/><feComposite in="shadowOffsetInner1" in2="SourceAlpha" operator="arithmetic" k2="-1" k3="1" result="shadowInnerInner1"/><feColorMatrix values="0 0 0 0 1 0 0 0 0 1 0 0 0 0 1 0 0 0 0.093580163 0" in="shadowInnerInner1"/></filter><linearGradient x1="50%" y1="0%" x2="50%" y2="100%" id="m"><stop stop-color="#B4ED50" offset="0%"/><stop stop-color="#429321" offset="100%"/></linearGradient><path d="M629.26 44.456C571.242 15.986 505.988 0 437 0c-41.778 0-82.187 5.863-120.45 16.81 5.61 1.157 11.3 3.033 16.007 6.043 15.168 9.702 38.109 55.938 71.526 55.938 33.417 0 45.855 2.288 50.295 8.346 4.441 6.059-58.343-1.007-29.677 19.783 28.666 20.79 54.294 71.572 106.296 35.786C583 106.92 584.563 183.06 584.563 183.06L629.26 44.456z" id="k"/><filter x="-50%" y="-50%" width="200%" height="200%" filterUnits="objectBoundingBox" id="l"><feOffset dy="2" in="SourceAlpha" result="shadowOffsetOuter1"/><feColorMatrix values="0 0 0 0 0.268537249 0 0 0 0 0.566253447 0 0 0 0 0.915497449 0 0 0 0.608101223 0" in="shadowOffsetOuter1"/></filter><path d="M495.371 69.25c7.274 18.802 12.745 39.945 35.182 33.586 22.437-6.359 28.08-29.095 21.114-37.824-6.965-8.73-35.848-32.016-43.97-21.253-8.122 10.762-19.6 6.689-12.326 25.49z" id="p"/><filter x="-50%" y="-50%" width="200%" height="200%" filterUnits="objectBoundingBox" id="o"><feOffset dx="-1" dy="2" in="SourceAlpha" result="shadowOffsetOuter1"/><feColorMatrix values="0 0 0 0 0 0 0 0 0 0 0 0 0 0 0 0 0 0 0.15 0" in="shadowOffsetOuter1"/></filter><ellipse id="r" cx="519.5" cy="56.5" rx="5.5" ry="2.5"/><filter x="-50%" y="-50%" width="200%" height="200%" filterUnits="objectBoundingBox" id="q"><feOffset dy="2" in="SourceAlpha" result="shadowOffsetOuter1"/><feGaussianBlur stdDeviation="2" in="shadowOffsetOuter1" result="shadowBlurOuter1"/><feColorMatrix values="0 0 0 0 0 0 0 0 0 0 0 0 0 0 0 0 0 0 0.127094656 0" in="shadowBlurOuter1"/></filter><ellipse id="t" cx="108" cy="251" rx="17" ry="8"/><filter x="-50%" y="-50%" width="200%" height="200%" filterUnits="objectBoundingBox" id="s"><feOffset dy="2" in="SourceAlpha" result="shadowOffsetOuter1"/><feColorMatrix values="0 0 0 0 0.28627451 0 0 0 0 0.521568627 0 0 0 0 0.811764706 0 0 0 0.536005435 0" in="shadowOffsetOuter1"/></filter><ellipse id="v" cx="107.5" cy="249.5" rx="5.5" ry="2.5"/><filter x="-50%" y="-50%" width="200%" height="200%" filterUnits="objectBoundingBox" id="u"><feOffset dy="2" in="SourceAlpha" result="shadowOffsetOuter1"/><feGaussianBlur stdDeviation="2" in="shadowOffsetOuter1" result="shadowBlurOuter1"/><feColorMatrix values="0 0 0 0 0 0 0 0 0 0 0 0 0 0 0 0 0 0 0.261888587 0" in="shadowBlurOuter1"/></filter><path d="M2.09 53.967S63.766 7.1 164.077 7.1" id="x"/><filter x="-50%" y="-50%" width="200%" height="200%" filterUnits="objectBoundingBox" id="w"><feMorphology radius=".5" operator="dilate" in="SourceAlpha" result="shadowSpreadOuter1"/><feOffset dy="1" in="shadowSpreadOuter1" result="shadowOffsetOuter1"/><feMorphology radius="1" in="SourceAlpha" result="shadowInner"/><feOffset dy="1" in="shadowInner" result="shadowInner"/><feComposite in="shadowOffsetOuter1" in2="shadowInner" operator="out" result="shadowOffsetOuter1"/><feGaussianBlur stdDeviation="1" in="shadowOffsetOuter1" result="shadowBlurOuter1"/><feColorMatrix values="0 0 0 0 0 0 0 0 0 0 0 0 0 0 0 0 0 0 0.27306952 0" in="shadowBlurOuter1"/></filter></defs><g fill="none" fill-rule="evenodd"><mask id="c" fill="#fff"><use xlink:href="#a"/></mask><use fill="url(#b)" xlink:href="#a"/><g opacity=".519" mask="url(#c)"><use fill="#000" filter="url(#d)" xlink:href="#e"/><use fill="url(#f)" xlink:href="#e"/></g><path d="M110.787 122.543l-.41-.398s-.755-.244-1.277.286c-.88.896-2.064 2.097-2.064 2.097l-5.8-.84-.728.668 4.3 2.49-1.575 1.543-2.642.178-.507.182 2.707 1.498 1.445 2.72.199-.51.168-2.534 6.186-6.282c.425-.432-.002-1.098-.002-1.098zm-4.398 5.89l2.147 4.015.57-.643-.593-5.317-2.124 1.945z" fill="#FFF" mask="url(#c)" transform="rotate(40 105.53 127.528)"/><g mask="url(#c)"><g transform="translate(-250 144)"><use fill="#000" filter="url(#h)" xlink:href="#g"/><use fill="url(#i)" xlink:href="#g"/><use fill="#000" filter="url(#j)" xlink:href="#g"/><mask id="n" fill="#fff"><use xlink:href="#k"/></mask><use fill="#000" filter="url(#l)" xlink:href="#k"/><use fill="url(#m)" xlink:href="#k"/><g mask="url(#n)"><use fill="#000" filter="url(#o)" xlink:href="#p"/><use fill="#F3E87A" xlink:href="#p"/></g><g mask="url(#n)"><use fill="#000" filter="url(#q)" xlink:href="#r"/></g><ellipse fill="#D2C11C" mask="url(#n)" cx="526.5" cy="72" rx="9.5" ry="6"/></g></g><g mask="url(#c)"><use fill="#000" filter="url(#s)" xlink:href="#t"/><use fill="#AAD64A" xlink:href="#t"/></g><g mask="url(#c)" fill="#000"><use filter="url(#u)" xlink:href="#v"/></g><path d="M138.73 197.733c.032-.109.057-.219.076-.33 0-.103.038-.211.06-.33.186-1.561.262-3.134.227-4.706 0-3.522-2.28-6.367-5.09-6.367a4.347 4.347 0 0 0-2.772 1.033 1.924 1.924 0 0 0-.362.325 7.036 7.036 0 0 0-1.956 5.014 31.408 31.408 0 0 0 .254 4.869c0 .119.043.227.065.33.021.102.059.232.091.324-1.323.876-2.323 2.212-2.323 3.413v2.088c0 .598.484 1.082 1.08 1.082h11.84c.596 0 1.08-.484 1.08-1.082v-2.104c0-1.266-.93-2.694-2.27-3.56zm-8.104-5.469l-.206-.027a1 1 0 0 1-.691-.795 1.164 1.164 0 0 1 .086-.877.438.438 0 0 1 .27-.221h.125l.297.027.043-.298c.037-.241.09-.48.162-.714.368 1.201 1.394 1.082 2.88 1.26.446.058.896.087 1.345.087.055-.936-1.032-1.985-1.032-1.985.045-.01.091-.01.136 0 .2.037.394.1.578.19.676.343 1.19.94 1.432 1.66a1.621 1.621 0 0 0 1.248-1.033c.049.178.089.358.119.54l.043.298.297-.027a.464.464 0 0 1 .124 0 .443.443 0 0 1 .27.222c.14.27.17.584.087.876a.99.99 0 0 1-.692.795l-.205.027-.054.2a6.336 6.336 0 0 1-1.864 3.09 2.3 2.3 0 0 1-1.427.578 2.273 2.273 0 0 1-1.426-.579 6.287 6.287 0 0 1-1.864-3.088l-.081-.206zm5.56 6.605c-1.21.638-2.027 1.152-2.118 1.152a16.025 16.025 0 0 1-2.254-1.136 4.468 4.468 0 0 1-1.27-.882c.065-.086.32-.438.39-.54l.2-.26c.302-.39.626-.823.967-1.212a2.7 2.7 0 0 0 3.733 0c.427.487.838 1.055 1.2 1.515l.205.254c.076.092.14.173.216.249-.358.361-.78.654-1.242.865l-.027-.005zM275.73 193.733c.032-.109.057-.219.076-.33 0-.103.038-.211.06-.33.186-1.561.262-3.134.227-4.706 0-3.522-2.28-6.367-5.09-6.367a4.347 4.347 0 0 0-2.772 1.033 1.924 1.924 0 0 0-.362.325 7.036 7.036 0 0 0-1.956 5.014 31.408 31.408 0 0 0 .254 4.869c0 .119.043.227.065.33.021.102.059.232.091.324-1.323.876-2.323 2.212-2.323 3.413v2.088c0 .598.484 1.082 1.08 1.082h11.84c.596 0 1.08-.484 1.08-1.082v-2.104c0-1.266-.93-2.694-2.27-3.56zm-8.104-5.469l-.206-.027a1 1 0 0 1-.691-.795 1.164 1.164 0 0 1 .086-.877.438.438 0 0 1 .27-.221h.125l.297.027.043-.298c.037-.241.09-.48.162-.714.368 1.201 1.394 1.082 2.88 1.26.446.058.896.087 1.345.087.055-.936-1.032-1.985-1.032-1.985.045-.01.091-.01.136 0 .2.037.394.1.578.19.676.343 1.19.94 1.432 1.66a1.621 1.621 0 0 0 1.248-1.033c.049.178.089.358.119.54l.043.298.297-.027a.464.464 0 0 1 .124 0 .443.443 0 0 1 .27.222c.14.27.17.584.087.876a.99.99 0 0 1-.692.795l-.205.027-.054.2a6.336 6.336 0 0 1-1.864 3.09 2.3 2.3 0 0 1-1.427.578 2.273 2.273 0 0 1-1.426-.579 6.287 6.287 0 0 1-1.864-3.088l-.081-.206zm5.56 6.605c-1.21.638-2.027 1.152-2.118 1.152a16.025 16.025 0 0 1-2.254-1.136 4.468 4.468 0 0 1-1.27-.882c.065-.086.32-.438.39-.54l.2-.26c.302-.39.626-.823.967-1.212a2.7 2.7 0 0 0 3.733 0c.427.487.838 1.055 1.2 1.515l.205.254c.076.092.14.173.216.249-.358.361-.78.654-1.242.865l-.027-.005zM103.73 157.733c.032-.109.057-.219.076-.33 0-.103.038-.211.06-.33.186-1.561.262-3.134.227-4.706 0-3.522-2.28-6.367-5.09-6.367a4.347 4.347 0 0 0-2.772 1.033 1.924 1.924 0 0 0-.362.325 7.036 7.036 0 0 0-1.956 5.014 31.408 31.408 0 0 0 .254 4.869c0 .119.043.227.065.33.021.102.059.232.091.324C93 158.771 92 160.107 92 161.308v2.088c0 .598.484 1.082 1.08 1.082h11.84c.596 0 1.08-.484 1.08-1.082v-2.104c0-1.266-.93-2.694-2.27-3.56zm-8.104-5.469l-.206-.027a1 1 0 0 1-.691-.795 1.164 1.164 0 0 1 .086-.877.438.438 0 0 1 .27-.221h.125l.297.027.043-.298c.037-.241.09-.48.162-.714.368 1.201 1.394 1.082 2.88 1.26.446.058.896.087 1.345.087.055-.936-1.032-1.985-1.032-1.985.045-.01.091-.01.136 0 .2.037.394.1.578.19.676.343 1.19.94 1.432 1.66a1.621 1.621 0 0 0 1.248-1.033c.049.178.089.358.119.54l.043.298.297-.027a.464.464 0 0 1 .124 0 .443.443 0 0 1 .27.222c.14.27.17.584.087.876a.99.99 0 0 1-.692.795l-.205.027-.054.2a6.336 6.336 0 0 1-1.864 3.09 2.3 2.3 0 0 1-1.427.578 2.273 2.273 0 0 1-1.426-.579 6.287 6.287 0 0 1-1.864-3.088l-.081-.206zm5.56 6.605c-1.21.638-2.027 1.152-2.118 1.152a16.025 16.025 0 0 1-2.254-1.136 4.468 4.468 0 0 1-1.27-.882c.065-.086.32-.438.39-.54l.2-.26c.302-.39.626-.823.967-1.212a2.7 2.7 0 0 0 3.733 0c.427.487.838 1.055 1.2 1.515l.205.254c.076.092.14.173.216.249-.358.361-.78.654-1.242.865l-.027-.005zM193.73 167.733c.032-.109.057-.219.076-.33 0-.103.038-.211.06-.33.186-1.561.262-3.134.227-4.706 0-3.522-2.28-6.367-5.09-6.367a4.347 4.347 0 0 0-2.772 1.033 1.924 1.924 0 0 0-.362.325 7.036 7.036 0 0 0-1.956 5.014 31.408 31.408 0 0 0 .254 4.869c0 .119.043.227.065.33.021.102.059.232.091.324-1.323.876-2.323 2.212-2.323 3.413v2.088c0 .598.484 1.082 1.08 1.082h11.84c.596 0 1.08-.484 1.08-1.082v-2.104c0-1.266-.93-2.694-2.27-3.56zm-8.104-5.469l-.206-.027a1 1 0 0 1-.691-.795 1.164 1.164 0 0 1 .086-.877.438.438 0 0 1 .27-.221h.125l.297.027.043-.298c.037-.241.09-.48.162-.714.368 1.201 1.394 1.082 2.88 1.26.446.058.896.087 1.345.087.055-.936-1.032-1.985-1.032-1.985.045-.01.091-.01.136 0 .2.037.394.1.578.19.676.343 1.19.94 1.432 1.66a1.621 1.621 0 0 0 1.248-1.033c.049.178.089.358.119.54l.043.298.297-.027a.464.464 0 0 1 .124 0 .443.443 0 0 1 .27.222c.14.27.17.584.087.876a.99.99 0 0 1-.692.795l-.205.027-.054.2a6.336 6.336 0 0 1-1.864 3.09 2.3 2.3 0 0 1-1.427.578 2.273 2.273 0 0 1-1.426-.579 6.287 6.287 0 0 1-1.864-3.088l-.081-.206zm5.56 6.605c-1.21.638-2.027 1.152-2.118 1.152a16.025 16.025 0 0 1-2.254-1.136 4.468 4.468 0 0 1-1.27-.882c.065-.086.32-.438.39-.54l.2-.26c.302-.39.626-.823.967-1.212a2.7 2.7 0 0 0 3.733 0c.427.487.838 1.055 1.2 1.515l.205.254c.076.092.14.173.216.249-.358.361-.78.654-1.242.865l-.027-.005zM233.73 237.733c.032-.109.057-.219.076-.33 0-.103.038-.211.06-.33.186-1.561.262-3.134.227-4.706 0-3.522-2.28-6.367-5.09-6.367a4.347 4.347 0 0 0-2.772 1.033 1.924 1.924 0 0 0-.362.325 7.036 7.036 0 0 0-1.956 5.014 31.408 31.408 0 0 0 .254 4.869c0 .119.043.227.065.33.021.102.059.232.091.324-1.323.876-2.323 2.212-2.323 3.413v2.088c0 .598.484 1.082 1.08 1.082h11.84c.596 0 1.08-.484 1.08-1.082v-2.104c0-1.266-.93-2.694-2.27-3.56zm-8.104-5.469l-.206-.027a1 1 0 0 1-.691-.795 1.164 1.164 0 0 1 .086-.877.438.438 0 0 1 .27-.221h.125l.297.027.043-.298c.037-.241.09-.48.162-.714.368 1.201 1.394 1.082 2.88 1.26.446.058.896.087 1.345.087.055-.936-1.032-1.985-1.032-1.985.045-.01.091-.01.136 0 .2.037.394.1.578.19.676.343 1.19.94 1.432 1.66a1.621 1.621 0 0 0 1.248-1.033c.049.178.089.358.119.54l.043.298.297-.027a.464.464 0 0 1 .124 0 .443.443 0 0 1 .27.222c.14.27.17.584.087.876a.99.99 0 0 1-.692.795l-.205.027-.054.2a6.336 6.336 0 0 1-1.864 3.09 2.3 2.3 0 0 1-1.427.578 2.273 2.273 0 0 1-1.426-.579 6.287 6.287 0 0 1-1.864-3.088l-.081-.206zm5.56 6.605c-1.21.638-2.027 1.152-2.118 1.152a16.025 16.025 0 0 1-2.254-1.136 4.468 4.468 0 0 1-1.27-.882c.065-.086.32-.438.39-.54l.2-.26c.302-.39.626-.823.967-1.212a2.7 2.7 0 0 0 3.733 0c.427.487.838 1.055 1.2 1.515l.205.254c.076.092.14.173.216.249-.358.361-.78.654-1.242.865l-.027-.005zM268.73 155.733c.032-.109.057-.219.076-.33 0-.103.038-.211.06-.33.186-1.561.262-3.134.227-4.706 0-3.522-2.28-6.367-5.09-6.367a4.347 4.347 0 0 0-2.772 1.033 1.924 1.924 0 0 0-.362.325 7.036 7.036 0 0 0-1.956 5.014 31.408 31.408 0 0 0 .254 4.869c0 .119.043.227.065.33.021.102.059.232.091.324-1.323.876-2.323 2.212-2.323 3.413v2.088c0 .598.484 1.082 1.08 1.082h11.84c.596 0 1.08-.484 1.08-1.082v-2.104c0-1.266-.93-2.694-2.27-3.56zm-8.104-5.469l-.206-.027a1 1 0 0 1-.691-.795 1.164 1.164 0 0 1 .086-.877.438.438 0 0 1 .27-.221h.125l.297.027.043-.298c.037-.241.09-.48.162-.714.368 1.201 1.394 1.082 2.88 1.26.446.058.896.087 1.345.087.055-.936-1.032-1.985-1.032-1.985.045-.01.091-.01.136 0 .2.037.394.1.578.19.676.343 1.19.94 1.432 1.66a1.621 1.621 0 0 0 1.248-1.033c.049.178.089.358.119.54l.043.298.297-.027a.464.464 0 0 1 .124 0 .443.443 0 0 1 .27.222c.14.27.17.584.087.876a.99.99 0 0 1-.692.795l-.205.027-.054.2a6.336 6.336 0 0 1-1.864 3.09 2.3 2.3 0 0 1-1.427.578 2.273 2.273 0 0 1-1.426-.579 6.287 6.287 0 0 1-1.864-3.088l-.081-.206zm5.56 6.605c-1.21.638-2.027 1.152-2.118 1.152a16.025 16.025 0 0 1-2.254-1.136 4.468 4.468 0 0 1-1.27-.882c.065-.086.32-.438.39-.54l.2-.26c.302-.39.626-.823.967-1.212a2.7 2.7 0 0 0 3.733 0c.427.487.838 1.055 1.2 1.515l.205.254c.076.092.14.173.216.249-.358.361-.78.654-1.242.865l-.027-.005z" fill="#F2403C" mask="url(#c)"/><path d="M19.486 159.843s28.243-27.993 82.976-29.182" stroke="#FFF" stroke-width=".5" stroke-linecap="round" stroke-linejoin="round" stroke-dasharray="4,4" mask="url(#c)" transform="rotate(-4 60.974 145.252)"/><path d="M334.73 215.733c.032-.109.057-.219.076-.33 0-.103.038-.211.06-.33.186-1.561.262-3.134.227-4.706 0-3.522-2.28-6.367-5.09-6.367a4.347 4.347 0 0 0-2.772 1.033 1.924 1.924 0 0 0-.362.325 7.036 7.036 0 0 0-1.956 5.014 31.408 31.408 0 0 0 .254 4.869c0 .119.043.227.065.33.021.102.059.232.091.324-1.323.876-2.323 2.212-2.323 3.413v2.088c0 .598.484 1.082 1.08 1.082h11.84c.596 0 1.08-.484 1.08-1.082v-2.104c0-1.266-.93-2.694-2.27-3.56zm-8.104-5.469l-.206-.027a1 1 0 0 1-.691-.795 1.164 1.164 0 0 1 .086-.877.438.438 0 0 1 .27-.221h.125l.297.027.043-.298c.037-.241.09-.48.162-.714.368 1.201 1.394 1.082 2.88 1.26.446.058.896.087 1.345.087.055-.936-1.032-1.985-1.032-1.985.045-.01.091-.01.136 0 .2.037.394.1.578.19.676.343 1.19.94 1.432 1.66a1.621 1.621 0 0 0 1.248-1.033c.049.178.089.358.119.54l.043.298.297-.027a.464.464 0 0 1 .124 0 .443.443 0 0 1 .27.222c.14.27.17.584.087.876a.99.99 0 0 1-.692.795l-.205.027-.054.2a6.336 6.336 0 0 1-1.864 3.09 2.3 2.3 0 0 1-1.427.578 2.273 2.273 0 0 1-1.426-.579 6.287 6.287 0 0 1-1.864-3.088l-.081-.206zm5.56 6.605c-1.21.638-2.027 1.152-2.118 1.152a16.025 16.025 0 0 1-2.254-1.136 4.468 4.468 0 0 1-1.27-.882c.065-.086.32-.438.39-.54l.2-.26c.302-.39.626-.823.967-1.212a2.7 2.7 0 0 0 3.733 0c.427.487.838 1.055 1.2 1.515l.205.254c.076.092.14.173.216.249-.358.361-.78.654-1.242.865l-.027-.005z" fill="#F2403C" mask="url(#c)"/><g mask="url(#c)"><path d="M108.09 244.967s51.686-68.186 161.987-46.867" stroke="#FFF" stroke-linecap="round" stroke-linejoin="round" stroke-dasharray="4,4"/><g transform="translate(108 193)"><use fill="#000" filter="url(#w)" xlink:href="#x"/><use stroke-opacity="0" stroke="#000" stroke-linecap="round" stroke-linejoin="round" stroke-dasharray="4,4" xlink:href="#x"/></g></g><path d="M115.082 238.085c.04-.14.073-.281.097-.424 0-.132.05-.271.077-.424.24-2.008.337-4.03.292-6.051 0-4.528-2.932-8.186-6.545-8.186a5.589 5.589 0 0 0-3.563 1.328c-.173.12-.329.26-.466.418a9.047 9.047 0 0 0-2.515 6.447 40.382 40.382 0 0 0 .327 6.26c0 .152.055.291.083.423.028.133.077.3.118.418-1.702 1.126-2.987 2.844-2.987 4.388v2.685a1.39 1.39 0 0 0 1.39 1.39h15.22a1.39 1.39 0 0 0 1.39-1.39v-2.706c0-1.627-1.195-3.463-2.918-4.576zm-10.42-7.031l-.264-.035a1.286 1.286 0 0 1-.89-1.022 1.497 1.497 0 0 1 .111-1.127.563.563 0 0 1 .348-.285h.16l.382.035.055-.383c.047-.31.117-.617.209-.918.472 1.544 1.792 1.39 3.702 1.62.574.075 1.152.112 1.73.112.07-1.203-1.327-2.553-1.327-2.553a.382.382 0 0 1 .174 0c.258.048.508.13.743.244a3.72 3.72 0 0 1 1.841 2.135 2.085 2.085 0 0 0 1.605-1.329c.063.23.114.462.153.696l.056.382.382-.034a.597.597 0 0 1 .16 0 .57.57 0 0 1 .347.285c.179.348.219.75.111 1.127a1.272 1.272 0 0 1-.89 1.022l-.263.035-.07.257a8.146 8.146 0 0 1-2.396 3.971 2.958 2.958 0 0 1-1.834.744 2.923 2.923 0 0 1-1.835-.744 8.083 8.083 0 0 1-2.396-3.971l-.104-.264zm7.148 8.492c-1.556.82-2.605 1.48-2.723 1.48a20.603 20.603 0 0 1-2.897-1.46 5.745 5.745 0 0 1-1.633-1.133c.084-.112.41-.564.5-.696l.258-.334c.389-.5.805-1.057 1.243-1.557a3.47 3.47 0 0 0 4.8 0c.55.626 1.077 1.356 1.543 1.947l.264.327c.097.118.18.222.278.32a5.398 5.398 0 0 1-1.598 1.113l-.035-.007z" fill="#FFF" mask="url(#c)"/></g></svg>