<?xml version="1.0" encoding="UTF-8" standalone="no"?>
<svg width="32px" height="27px" viewBox="0 0 32 27" version="1.1" xmlns="http://www.w3.org/2000/svg" xmlns:xlink="http://www.w3.org/1999/xlink">
    <!-- Generator: sketchtool 41.2 (35397) - http://www.bohemiancoding.com/sketch -->
    <title>B24ECA69-91D7-4B15-8A3B-9A2F887E33C1</title>
    <desc>Created with sketchtool.</desc>
    <defs></defs>
    <g id="prof-profile---himanshu" stroke="none" stroke-width="1" fill="none" fill-rule="evenodd" opacity="0.699999988">
        <g id="prof---select-type-of-exp" transform="translate(-40.000000, -84.000000)" fill="#000000">
            <g id="Back" transform="translate(40.000000, 84.000000)">
                <path d="M12.8,26.1333333 C12.7123288,26.1333333 12.5369863,26.1333333 12.4493151,26.0458392 L12.4493151,26.0458392 C12.3616438,26.0458392 12.2739726,25.9583451 12.1863014,25.870851 L12.1863014,25.870851 L0.263013699,13.9716508 L0.263013699,13.9716508 L0.263013699,13.9716508 C0.0876712329,13.7966625 -7.10542736e-15,13.6216743 -7.10542736e-15,13.3591919 L-7.10542736e-15,13.3591919 L-7.10542736e-15,13.3591919 L-7.10542736e-15,13.3591919 L-7.10542736e-15,13.3591919 L-7.10542736e-15,13.3591919 L-7.10542736e-15,13.3591919 L-7.10542736e-15,13.3591919 L-7.10542736e-15,13.3591919 L-7.10542736e-15,13.3591919 L-7.10542736e-15,13.3591919 L-7.10542736e-15,13.3591919 L-7.10542736e-15,13.3591919 L-7.10542736e-15,13.3591919 L-7.10542736e-15,13.3591919 L-7.10542736e-15,13.3591919 L-7.10542736e-15,13.3591919 L-7.10542736e-15,13.3591919 L-7.10542736e-15,13.3591919 L-7.10542736e-15,13.3591919 L-7.10542736e-15,13.3591919 L-7.10542736e-15,13.3591919 L-7.10542736e-15,13.3591919 L-7.10542736e-15,13.3591919 L-7.10542736e-15,13.3591919 L-7.10542736e-15,13.3591919 L-7.10542736e-15,13.3591919 L-7.10542736e-15,13.3591919 L-7.10542736e-15,13.3591919 L-7.10542736e-15,13.3591919 L-7.10542736e-15,13.3591919 L-7.10542736e-15,13.3591919 L-7.10542736e-15,13.3591919 L-7.10542736e-15,13.3591919 L-7.10542736e-15,13.3591919 L-7.10542736e-15,13.3591919 L-7.10542736e-15,13.3591919 L-7.10542736e-15,13.3591919 L-7.10542736e-15,13.3591919 L-7.10542736e-15,13.3591919 L-7.10542736e-15,13.3591919 L-7.10542736e-15,13.3591919 L-7.10542736e-15,13.3591919 L-7.10542736e-15,13.3591919 L-7.10542736e-15,13.3591919 L-7.10542736e-15,13.3591919 L-7.10542736e-15,13.3591919 L-7.10542736e-15,13.3591919 L-7.10542736e-15,13.3591919 L-7.10542736e-15,13.3591919 L-7.10542736e-15,13.3591919 L-7.10542736e-15,13.3591919 L-7.10542736e-15,13.3591919 L-7.10542736e-15,13.3591919 L-7.10542736e-15,13.3591919 L-7.10542736e-15,13.3591919 L-7.10542736e-15,13.3591919 L-7.10542736e-15,13.3591919 L-7.10542736e-15,13.3591919 C-7.10542736e-15,13.2716978 -7.10542736e-15,13.1842037 0.0876712329,13.1842037 L0.0876712329,13.1842037 L0.0876712329,13.1842037 L0.0876712329,13.1842037 L0.0876712329,13.1842037 L0.0876712329,13.1842037 L0.0876712329,13.1842037 L0.0876712329,13.1842037 L0.0876712329,13.1842037 L0.0876712329,13.1842037 L0.0876712329,13.1842037 L0.0876712329,13.1842037 L0.0876712329,13.1842037 L0.0876712329,13.1842037 C0.0876712329,13.0967096 0.175342466,13.0092154 0.263013699,12.9217213 L0.263013699,12.9217213 L12.1863014,1.0225211 L12.1863014,1.0225211 C12.3616438,0.847532863 12.6246575,0.760038744 12.8,0.760038744 C13.0630137,0.760038744 13.2383562,0.847532863 13.4136986,1.0225211 L13.4136986,1.0225211 C13.5890411,1.19750934 13.6767123,1.4599917 13.6767123,1.63497994 C13.6767123,1.89746229 13.5890411,2.07245053 13.4136986,2.24743877 L13.4136986,2.24743877 L3.06849315,12.3967566 L31.1232877,12.3967566 C31.3863014,12.3967566 31.5616438,12.4842507 31.7369863,12.659239 L31.7369863,12.659239 C31.9123288,12.8342272 32,13.0092154 32,13.2716978 C32,13.5341802 31.9123288,13.7091684 31.7369863,13.8841566 L31.7369863,13.8841566 C31.5616438,14.0591449 31.3863014,14.146639 31.1232877,14.146639 L3.06849315,14.146639 L13.5013699,24.5584392 L13.5013699,24.5584392 C13.6767123,24.7334274 13.7643836,24.9959098 13.7643836,25.170898 C13.7643836,25.4333804 13.6767123,25.6083686 13.5013699,25.7833569 C13.4136986,25.870851 13.3260274,25.9583451 13.2383562,25.9583451 L13.2383562,25.9583451 C13.0630137,26.0458392 12.9753425,26.1333333 12.8,26.1333333" id="Shape"></path>
            </g>
        </g>
    </g>
</svg>