<?xml version="1.0" encoding="UTF-8" standalone="no"?>
<svg width="37px" height="31px" viewBox="0 0 37 31" version="1.1" xmlns="http://www.w3.org/2000/svg" xmlns:xlink="http://www.w3.org/1999/xlink">
    <!-- Generator: sketchtool 41.2 (35397) - http://www.bohemiancoding.com/sketch -->
    <title>7B4F801E-3DF8-473F-8011-8385A546AD57</title>
    <desc>Created with sketchtool.</desc>
    <defs></defs>
    <g id="personal-profile---himanshu" stroke="none" stroke-width="1" fill="none" fill-rule="evenodd">
        <g id="Hamburger-Menu_Bg" transform="translate(-89.000000, -822.000000)" stroke="#3949AB" stroke-width="0.2" fill="#3949AB">
            <g id="Group-2" transform="translate(89.000000, 619.000000)">
                <g id="Group" transform="translate(0.000000, 201.000000)">
                    <g id="Jobs" transform="translate(0.000000, 2.000000)">
                        <path d="M2.24242424,30.5151515 L34.9393939,30.5151515 C35.6363636,30.5151515 36.1818182,29.969697 36.1818182,29.2727273 L36.1818182,7.21212121 C36.1818182,6.51515152 35.6363636,5.96969697 34.9393939,5.96969697 L25.4545455,5.96969697 L25.4545455,2.24242424 C25.4545455,1.54545455 24.9090909,1 24.2121212,1 L13,1 C12.3030303,1 11.7575758,1.54545455 11.7575758,2.24242424 L11.7575758,6 L2.24242424,6 C1.54545455,6 1,6.54545455 1,7.24242424 L1,29.3030303 C1.03030303,29.969697 1.57575758,30.5151515 2.24242424,30.5151515 L2.24242424,30.5151515 Z M14.2424242,3.48484848 L22.969697,3.48484848 L22.969697,6 L14.2424242,6 L14.2424242,3.48484848 L14.2424242,3.48484848 Z M3.48484848,8.45454545 L12.6969697,8.45454545 C12.7878788,8.48484848 12.8787879,8.48484848 12.969697,8.48484848 C13.0606061,8.48484848 13.1515152,8.48484848 13.2424242,8.45454545 L23.9090909,8.45454545 C24,8.48484848 24.0909091,8.48484848 24.1818182,8.48484848 C24.2727273,8.48484848 24.3636364,8.48484848 24.4545455,8.45454545 L33.6666667,8.45454545 L33.6666667,17 L25.4545455,17 L25.4545455,15.5151515 C25.4545455,14.8181818 24.9090909,14.2727273 24.2121212,14.2727273 C23.5151515,14.2727273 22.969697,14.8181818 22.969697,15.5151515 L22.969697,17 L14.2424242,17 L14.2424242,15.5151515 C14.2424242,14.8181818 13.6969697,14.2727273 13,14.2727273 C12.3030303,14.2727273 11.7575758,14.8181818 11.7575758,15.5151515 L11.7575758,17 L3.48484848,17 L3.48484848,8.45454545 L3.48484848,8.45454545 Z M3.48484848,19.4848485 L11.7575758,19.4848485 L11.7575758,20.8787879 C11.7575758,21.5757576 12.3030303,22.1212121 13,22.1212121 C13.6969697,22.1212121 14.2424242,21.5757576 14.2424242,20.8787879 L14.2424242,19.4848485 L22.969697,19.4848485 L22.969697,20.8787879 C22.969697,21.5757576 23.5151515,22.1212121 24.2121212,22.1212121 C24.9090909,22.1212121 25.4545455,21.5757576 25.4545455,20.8787879 L25.4545455,19.4848485 L33.7272727,19.4848485 L33.7272727,28.030303 L3.48484848,28.030303 L3.48484848,19.4848485 L3.48484848,19.4848485 Z" id="Shape"></path>
                    </g>
                </g>
            </g>
        </g>
    </g>
</svg>