<?xml version="1.0" encoding="UTF-8" standalone="no"?>
<svg width="32px" height="23px" viewBox="0 0 32 23" version="1.1" xmlns="http://www.w3.org/2000/svg" xmlns:xlink="http://www.w3.org/1999/xlink">
    <!-- Generator: sketchtool 41.2 (35397) - http://www.bohemiancoding.com/sketch -->
    <title>4706B5B9-E49C-4D6B-A426-16F3AA8D1872</title>
    <desc>Created with sketchtool.</desc>
    <defs></defs>
    <g id="jobs" stroke="none" stroke-width="1" fill="none" fill-rule="evenodd">
        <g id="jobs-detail-full-screen" transform="translate(-329.000000, -196.000000)" stroke="#F2403C" stroke-width="0.3" fill="#F2403C">
            <g id="Details-1" transform="translate(44.000000, 193.500000)">
                <g id="Openings" transform="translate(285.000000, 0.000000)">
                    <g id="Group" transform="translate(0.000000, 3.000000)">
                        <path d="M8.77290391,6.52098581 C9.18905862,6.13257474 9.24454591,5.5777018 9.24454591,5.1060598 C9.24454591,2.08200224 7.63541437,1 6.24823201,1 C4.75007505,1 3.2519181,2.41492601 3.2519181,5.1060598 C3.2519181,5.46672721 3.2519181,6.41001122 4.11197117,6.79842228 C4.52812588,6.99262781 5.02751153,7.02037146 5.85982095,7.02037146 L6.05402648,7.02037146 L6.24823201,7.02037146 L6.44243754,7.02037146 C7.57992708,7.0481151 8.27351826,7.0481151 8.77290391,6.52098581 Z M23.0331386,19.0333707 C22.7557021,15.4266966 19.7316446,12.6245882 16.0972268,12.6245882 C12.4905526,12.6245882 9.43875144,15.4266966 9.16131497,19.0611144 C9.10582768,19.7547056 9.60521333,20.3928094 10.2710609,20.5315277 C11.1866012,20.6979896 13.1009129,21.0031697 15.6255848,21.0031697 C18.2889749,21.0031697 20.8413905,20.6425023 21.8401618,20.5315277 C22.5614966,20.4205531 23.0886259,19.7547056 23.0331386,19.0333707 L23.0331386,19.0333707 Z M16.0972268,14.372438 C18.6496423,14.372438 20.8691341,16.3144933 21.2298015,18.8114215 C20.1200556,18.9778834 17.9283075,19.2275763 15.6255848,19.2275763 C13.4893239,19.2275763 11.7969615,18.9778834 10.9369084,18.8391652 C11.2975758,16.3144933 13.4893239,14.372438 16.0972268,14.372438 L16.0972268,14.372438 Z M25.835247,7.43652617 C23.1441132,7.43652617 20.8691341,9.54504336 20.6471849,12.2361771 C20.5916976,12.874281 21.035596,13.429154 21.6459562,13.5401286 C22.3118038,13.6788468 23.6989861,13.900796 25.5023232,13.900796 C27.4443785,13.900796 29.2477156,13.6511032 29.9413068,13.5401286 C30.5794107,13.4568976 31.0510527,12.874281 30.9955654,12.2361771 C30.8013598,9.54504336 28.5263808,7.43652617 25.835247,7.43652617 L25.835247,7.43652617 Z M22.5060093,11.930997 C22.8389331,10.3773528 24.2261154,9.18437594 25.8907343,9.21211959 C27.4998658,9.21211959 28.8870482,10.3773528 29.2477156,11.9032534 C28.4154062,12.014228 27.0004802,12.1529462 25.5578105,12.1529462 C24.2261154,12.1529462 23.1441132,12.0419716 22.5060093,11.930997 L22.5060093,11.930997 Z M23.6989861,6.82616593 C24.1151408,7.02037146 24.6145265,7.0481151 25.4468359,7.0481151 L25.6410414,7.0481151 L25.835247,7.0481151 L26.0294525,7.0481151 C27.1946857,7.0481151 27.8605332,7.0481151 28.3876625,6.54872945 C28.8038172,6.16031839 28.8593045,5.60544545 28.8593045,5.13380344 C28.8593045,2.10974589 27.250173,1.02774365 25.8629906,1.02774365 C24.3648337,1.02774365 22.8666767,2.44266966 22.8666767,5.13380344 C22.8389331,5.49447086 22.8389331,6.41001122 23.6989861,6.82616593 Z M26.0571962,5.27252168 L25.8629906,5.27252168 L25.6132978,5.27252168 C25.2248867,5.27252168 24.8364757,5.27252168 24.5867828,5.24477803 L24.5867828,5.1060598 C24.5867828,3.5801592 25.2526304,2.74784978 25.835247,2.74784978 C26.6120691,2.74784978 27.0837111,3.63564649 27.0837111,5.1060598 L27.0837111,5.24477803 C26.8617619,5.27252168 26.4456072,5.27252168 26.0571962,5.27252168 Z M12.2408598,9.87796712 C12.2408598,10.4883274 12.2963471,11.1541749 12.7679891,11.5980733 C13.3228621,12.1806898 14.0719405,12.1806898 15.5423538,12.1806898 L15.7920467,12.1806898 L16.0694831,12.1806898 L16.3469196,12.1806898 C17.9283075,12.1806898 18.8161042,12.1806898 19.3987208,11.5980733 C19.8703628,11.1264313 19.9535938,10.4605837 19.9535938,9.87796712 C19.9535938,5.88288192 17.8728202,4.49569956 16.0972268,4.49569956 C14.1829151,4.49569956 12.2408598,6.32678027 12.2408598,9.87796712 L12.2408598,9.87796712 Z M16.3469196,10.4605837 L16.0694831,10.4605837 L15.7920467,10.4328401 C15.0429682,10.4605837 14.2661461,10.4605837 14.0164532,10.3773528 C13.9887096,10.3218655 13.9609659,10.1831472 13.9609659,9.90571077 C13.9609659,7.51975711 15.0152245,6.27129298 16.0694831,6.27129298 C17.3734346,6.27129298 18.1780003,7.6307317 18.1780003,9.90571077 C18.1780003,10.1831472 18.1502567,10.3218655 18.122513,10.3773528 C17.9005639,10.4605837 17.0959981,10.4605837 16.3469196,10.4605837 Z M11.3808068,12.2084335 C11.1866012,9.54504336 8.91162214,7.43652617 6.19274471,7.43652617 C3.50161093,7.43652617 1.22663185,9.54504336 1.00468267,12.2361771 C0.949195379,12.874281 1.39309374,13.429154 2.00345398,13.5401286 C2.66930151,13.6788468 4.05648387,13.900796 5.85982095,13.900796 C7.77413261,13.900796 9.60521333,13.6511032 10.2988045,13.5401286 C10.964652,13.429154 11.4085504,12.8465374 11.3808068,12.2084335 L11.3808068,12.2084335 Z M6.22048836,9.21211959 C7.8296199,9.21211959 9.21680226,10.3773528 9.57746968,11.9032534 C8.74516026,12.014228 7.33023425,12.1529462 5.88756459,12.1529462 C4.58361317,12.1529462 3.50161093,12.014228 2.83576339,11.9032534 C3.16868716,10.3773528 4.58361317,9.18437594 6.22048836,9.21211959 L6.22048836,9.21211959 Z M6.19274471,2.77559342 C6.96956684,2.77559342 7.44120884,3.66339014 7.44120884,5.13380344 L7.44120884,5.27252168 C7.21925966,5.30026533 6.80310495,5.30026533 6.41469389,5.30026533 L6.22048836,5.30026533 L5.97079553,5.30026533 C5.58238447,5.30026533 5.19397341,5.30026533 4.94428059,5.27252168 L4.94428059,5.13380344 C4.91653694,3.5801592 5.58238447,2.77559342 6.19274471,2.77559342 Z" id="Shape"></path>
                    </g>
                </g>
            </g>
        </g>
    </g>
</svg>