<?xml version="1.0" encoding="UTF-8" standalone="no"?>
<svg width="15px" height="18px" viewBox="0 0 15 18" version="1.1" xmlns="http://www.w3.org/2000/svg" xmlns:xlink="http://www.w3.org/1999/xlink">
    <!-- Generator: Sketch 41.2 (35397) - http://www.bohemiancoding.com/sketch -->
    <title>Shape</title>
    <desc>Created with Sketch.</desc>
    <defs></defs>
    <g id="community" stroke="none" stroke-width="1" fill="none" fill-rule="evenodd">
        <g id="COMMUNITY-Featured-Community" transform="translate(-209.000000, -1172.000000)" fill="#F2403C">
            <g id="Community-Card_2" transform="translate(0.000000, 837.000000)">
                <path d="M223.586455,343.539746 C223.344136,343.30109 223.050091,343.181851 222.703864,343.181851 L222.288818,343.181851 L222.288818,340.727179 C222.288818,339.15903 221.717955,337.812567 220.575864,336.687567 C219.433864,335.562522 218.067136,335 216.475,335 C214.882909,335 213.515909,335.562522 212.374,336.687522 C211.231909,337.812567 210.661045,339.158985 210.661045,340.727179 L210.661045,343.181851 L210.245818,343.181851 C209.899864,343.181851 209.605636,343.30109 209.363364,343.539746 C209.121091,343.778224 209,344.06806 209,344.409164 L209,351.772687 C209,352.113478 209.121136,352.403403 209.363364,352.642104 C209.605636,352.880537 209.899864,352.99991 210.245818,352.99991 L222.704182,352.99991 C223.050409,352.99991 223.344409,352.880672 223.586773,352.642104 C223.828818,352.403403 223.950136,352.113478 223.950136,351.772687 L223.950136,344.40903 C223.950318,344.068194 223.828818,343.778403 223.586455,343.539746 Z M219.797227,343.181851 L213.152773,343.181851 L213.152773,340.727179 C213.152773,339.823821 213.477273,339.052463 214.126136,338.413373 C214.775091,337.774194 215.558,337.454672 216.475136,337.454672 C217.392364,337.454672 218.175091,337.774149 218.824091,338.413373 C219.472773,339.052418 219.797227,339.823821 219.797227,340.727179 L219.797227,343.181851 Z" id="Shape"></path>
            </g>
        </g>
    </g>
</svg>