<svg xmlns="http://www.w3.org/2000/svg" width="129" height="129" viewBox="0 0 129 129">
    <g fill="none" fill-rule="evenodd">
        <path fill="#FEFEFE" d="M83.635 55.578H49.45V24.402h34.185z"/>
        <path fill="#36357D" d="M51.6 53.428h29.885V26.553H51.6v26.875zm34.185 4.3H47.3V22.252h38.485v35.474z"/>
        <path fill="#FEFEFE" d="M107.07 36.335c0 1.075-.86 1.935-1.935 1.935a1.927 1.927 0 0 1-1.935-1.935c0-1.075.86-1.935 1.935-1.935 1.075 0 1.935.86 1.935 1.935zM30.637 37.41c0 1.075-.86 1.935-1.934 1.935a1.927 1.927 0 0 1-1.936-1.935c0-1.075.86-1.935 1.936-1.935.967 0 1.934.86 1.934 1.935zM128.248 31.605a2.386 2.386 0 0 1-2.365 2.365 2.386 2.386 0 0 1-2.365-2.365 2.386 2.386 0 0 1 2.364-2.365c1.398 0 2.365 1.075 2.365 2.365zM129 12.793c0 1.72-1.397 3.01-3.01 3.01a3.005 3.005 0 0 1-3.01-3.01c0-1.72 1.397-3.01 3.01-3.01 1.613 0 3.01 1.29 3.01 3.01zM6.45 13.438a2.386 2.386 0 0 1-2.365 2.364 2.386 2.386 0 0 1-2.365-2.364 2.386 2.386 0 0 1 2.365-2.366 2.386 2.386 0 0 1 2.365 2.366zM120.938 43.43c0 1.935-1.613 3.547-3.548 3.547s-3.547-1.612-3.547-3.547 1.612-3.547 3.547-3.547 3.547 1.612 3.547 3.547zM8.277 56.438a4.083 4.083 0 0 1-4.084 4.084 4.083 4.083 0 0 1-4.085-4.084 4.083 4.083 0 0 1 4.085-4.086c2.15 0 4.085 1.828 4.085 4.086zM15.588 34.4c0 1.935-1.613 3.547-3.548 3.547S8.493 36.335 8.493 34.4s1.612-3.547 3.547-3.547 3.548 1.505 3.548 3.547zM84.388 57.513H50.31l-1.828.967-1.397 22.253 37.41-21.608zM44.182 124.7l43-24.725-1.29-20.64-40.204 23.22z"/>
        <path fill="#36357D" d="M50.633 59.77l-1.076 16.985 29.778-17.2h-28.38l-.322.215zM44.72 84.603l1.828-27.413 3.332-1.935h36.765l.323 4.945L44.72 84.603zM47.73 103.845l-1.075 16.985 38.27-22.145-1.075-15.803-36.12 20.963zm-5.912 24.833l1.827-27.305 44.182-25.478 1.613 25.37-47.622 27.413z"/>
        <path fill="#36357D" d="M46.333 124.915l-4.3-.323 4.514-69.23H86.43l3.332 51.815-4.3.215-3.01-47.73h-31.82z"/>
        <path fill="#B0D5F2" d="M87.397 61.167H45.472a1.423 1.423 0 0 1-1.397-1.397v-8.492c0-.753.645-1.398 1.397-1.398h41.925c.753 0 1.398.645 1.398 1.398v8.492c0 .86-.645 1.397-1.398 1.397z"/>
        <path fill="#36357D" d="M46.333 59.017h40.312v-6.88H46.333v6.88zm41.064 4.3H45.472c-1.934 0-3.547-1.612-3.547-3.547v-8.492c0-1.935 1.613-3.548 3.547-3.548h41.925c1.935 0 3.548 1.613 3.548 3.548v8.492c0 2.042-1.612 3.547-3.547 3.547zM45.903 22.253h41.172L66.435 5.268c.108-.108-20.532 16.985-20.532 16.985zm46.117 4.3H40.958c-1.075 0-1.935-.646-2.365-1.613-.43-.968-.108-2.043.537-2.795L64.715.968a2.504 2.504 0 0 1 3.44.107l25.37 20.963c.86.86 1.075 1.934.752 2.902-.322.967-1.182 1.612-2.257 1.612zM66.543 35.153c-1.183 0-2.258.967-2.258 2.257 0 1.183.968 2.258 2.258 2.258 1.182 0 2.257-.968 2.257-2.258s-1.075-2.257-2.257-2.257zm0 8.815a6.515 6.515 0 0 1-6.558-6.558 6.515 6.515 0 0 1 6.558-6.557A6.515 6.515 0 0 1 73.1 37.41c0 3.655-3.01 6.558-6.557 6.558zM15.91 59.233l-2.15-3.655 24.188-14.083 2.15 3.763zM37.947 33.432L13.76 19.457l2.15-3.762L40.097 29.67zM118.358 59.233L94.17 45.258l2.15-3.763 24.188 14.083zM96.32 33.432l-2.15-3.762 24.188-13.975 2.15 3.762z"/>
    </g>
</svg>
