<?xml version="1.0" encoding="UTF-8" standalone="no"?>
<svg width="110px" height="152px" viewBox="0 0 110 152" version="1.1" xmlns="http://www.w3.org/2000/svg" xmlns:xlink="http://www.w3.org/1999/xlink">
    <!-- Generator: Sketch 41.2 (35397) - http://www.bohemiancoding.com/sketch -->
    <title>Gender_</title>
    <desc>Created with Sketch.</desc>
    <defs></defs>
    <g id="login" stroke="none" stroke-width="1" fill="none" fill-rule="evenodd">
        <g id="LOGIN-Error-modal-for-Gentlement" transform="translate(-305.000000, -476.000000)">
            <g id="Gender_" transform="translate(305.000000, 476.000000)">
                <g id="_349232040">
                    <path d="M101.2,78.54 C92.62,95.26 75.02,106.7 55,106.7 C26.18,106.7 3.08,83.38 3.08,54.78 C3.08,40.04 9.24,26.62 19.14,17.16 C15.4,24.42 13.42,32.56 13.42,41.14 C13.42,69.96 36.74,93.06 65.34,93.06 C79.2,93.06 91.74,87.56 101.2,78.54 L101.2,78.54 Z" id="_258677704" fill="#E8EAF6"></path>
                    <path d="M55,0 C70.18,0 83.82,6.16 93.72,16.06 C103.62,25.96 109.78,39.6 109.78,54.78 C109.78,69.96 103.62,83.6 93.72,93.5 C83.82,103.4 70.18,109.56 55,109.56 C39.82,109.56 26.18,103.4 16.28,93.5 C6.38,83.6 0.22,69.96 0.22,54.78 C0.22,39.6 6.38,25.96 16.28,16.06 C26.18,6.16 39.82,0 55,0 Z M89.98,19.58 C80.96,10.56 68.64,5.06 55,5.06 C41.36,5.06 29.04,10.56 20.02,19.58 C11,28.6 5.5,40.92 5.5,54.56 C5.5,68.2 11,80.52 20.02,89.54 C29.04,98.56 41.36,104.06 55,104.06 C68.64,104.06 80.96,98.56 89.98,89.54 C99,80.52 104.5,68.2 104.5,54.56 C104.5,40.92 98.78,28.6 89.98,19.58 Z" id="_258677320" fill="#0D57A1"></path>
                    <path d="M60.5,10.78 C58.96,10.56 57.86,11.66 57.64,13.2 C57.42,14.74 58.52,15.84 60.06,16.06 C68.42,16.72 75.9,20.24 81.62,25.52 C87.56,30.8 91.52,37.84 93.06,46.2 C93.28,46.86 93.28,47.52 93.28,48.18 C93.28,48.84 93.5,49.5 93.5,50.38 C93.5,51.92 94.82,52.8 96.36,52.8 C97.9,52.8 98.78,51.48 98.78,49.94 C98.78,49.28 98.56,48.4 98.56,47.52 C98.56,46.64 98.34,45.98 98.12,45.1 C96.36,35.86 91.74,27.72 84.92,21.56 C78.54,15.4 69.96,11.66 60.5,10.78 L60.5,10.78 Z" id="_260675552" fill="#E8EAF6"></path>
                    <path d="M101.2,78.54 C92.62,95.26 75.02,106.7 55,106.7 C26.18,106.7 3.08,83.38 3.08,54.78 C3.08,40.04 9.24,26.62 19.14,17.16 C15.4,24.42 13.42,32.56 13.42,41.14 C13.42,69.96 36.74,93.06 65.34,93.06 C79.2,93.06 91.74,87.56 101.2,78.54 L101.2,78.54 Z" id="_258677704" fill="#E8EAF6"></path>
                    <path d="M55,0 C70.18,0 83.82,6.16 93.72,16.06 C103.62,25.96 109.78,39.6 109.78,54.78 C109.78,69.96 103.62,83.6 93.72,93.5 C83.82,103.4 70.18,109.56 55,109.56 C39.82,109.56 26.18,103.4 16.28,93.5 C6.38,83.6 0.22,69.96 0.22,54.78 C0.22,39.6 6.38,25.96 16.28,16.06 C26.18,6.16 39.82,0 55,0 Z M89.98,19.58 C80.96,10.56 68.64,5.06 55,5.06 C41.36,5.06 29.04,10.56 20.02,19.58 C11,28.6 5.5,40.92 5.5,54.56 C5.5,68.2 11,80.52 20.02,89.54 C29.04,98.56 41.36,104.06 55,104.06 C68.64,104.06 80.96,98.56 89.98,89.54 C99,80.52 104.5,68.2 104.5,54.56 C104.5,40.92 98.78,28.6 89.98,19.58 Z" id="_258677320" fill="#0D57A1"></path>
                    <path d="M60.5,10.78 C58.96,10.56 57.86,11.66 57.64,13.2 C57.42,14.74 58.52,15.84 60.06,16.06 C68.42,16.72 75.9,20.24 81.62,25.52 C87.56,30.8 91.52,37.84 93.06,46.2 C93.28,46.86 93.28,47.52 93.28,48.18 C93.28,48.84 93.5,49.5 93.5,50.38 C93.5,51.92 94.82,52.8 96.36,52.8 C97.9,52.8 98.78,51.48 98.78,49.94 C98.78,49.28 98.56,48.4 98.56,47.52 C98.56,46.64 98.34,45.98 98.12,45.1 C96.36,35.86 91.74,27.72 84.92,21.56 C78.54,15.4 69.96,11.66 60.5,10.78 L60.5,10.78 Z" id="_260675552" fill="#E8EAF6"></path>
                    <path d="M57.64,107.8825 C57.64,106.551042 56.54,105.6 55,105.6 C53.46,105.6 52.36,106.551042 52.36,107.8825 L52.36,148.9675 C52.36,150.298958 53.46,151.25 55,151.25 C56.54,151.25 57.64,150.298958 57.64,148.9675 L57.64,107.8825 Z" id="_349231608" fill="#0D57A1"></path>
                    <path d="M58.74,141.13 C60.28,141.13 61.38,140.03 61.38,138.49 C61.38,136.95 60.28,135.85 58.74,135.85 L30.58,135.85 C29.04,135.85 27.94,136.95 27.94,138.49 C27.94,140.03 29.04,141.13 30.58,141.13 L58.74,141.13 Z" id="_352422424" fill="#0D57A1" transform="translate(44.660000, 138.490000) rotate(45.000000) translate(-44.660000, -138.490000) "></path>
                    <path d="M79.64,141.13 C81.18,141.13 82.28,140.03 82.28,138.49 C82.28,136.95 81.18,135.85 79.64,135.85 L51.48,135.85 C49.94,135.85 48.84,136.95 48.84,138.49 C48.84,140.03 49.94,141.13 51.48,141.13 L79.64,141.13 Z" id="_352422424" fill="#0D57A1" transform="translate(65.560000, 138.490000) scale(-1, 1) rotate(45.000000) translate(-65.560000, -138.490000) "></path>
                </g>
            </g>
        </g>
    </g>
</svg>