<?xml version="1.0" encoding="UTF-8" standalone="no"?>
<svg width="40px" height="40px" viewBox="0 0 40 40" version="1.1" xmlns="http://www.w3.org/2000/svg" xmlns:xlink="http://www.w3.org/1999/xlink">
    <!-- Generator: sketchtool 41.2 (35397) - http://www.bohemiancoding.com/sketch -->
    <title>48420CED-8AFC-42CD-B6D2-B704584CD460</title>
    <desc>Created with sketchtool.</desc>
    <defs></defs>
    <g id="Onboarding" stroke="none" stroke-width="1" fill="none" fill-rule="evenodd">
        <g id="ONBOARDING_Basci-Details_Filled" transform="translate(-300.000000, -571.000000)">
            <g id="Next" transform="translate(300.000000, 571.000000)">
                <circle id="Oval-2" fill="#F2403C" cx="20" cy="20" r="20"></circle>
                <path d="M29.6239988,19.3100423 L21.4087611,11.0448755 C20.9075289,10.540597 20.0946311,10.540597 19.5933989,11.0448755 C19.0920641,11.5492573 19.0920641,12.3668889 19.5933989,12.8712707 L25.6173247,18.9318076 L11.2836309,18.9318076 C10.5747586,18.9318076 10,19.5100593 10,20.2232399 C10,20.9363171 10.5747586,21.5146722 11.2836309,21.5146722 L25.6173247,21.5146722 L19.5936043,27.575209 C19.0922694,28.0795908 19.0922694,28.8972224 19.5936043,29.4016042 C19.8441691,29.6535885 20.1727786,29.7798389 20.5012854,29.7798389 C20.8297922,29.7798389 21.158299,29.6535885 21.4089665,29.4016042 L29.6239988,21.1364375 C30.1253337,20.6320557 30.1253337,19.8144241 29.6239988,19.3100423 Z" id="Shape" fill="#FFFFFF"></path>
            </g>
        </g>
    </g>
</svg>