<svg xmlns="http://www.w3.org/2000/svg" width="33" height="35dp" viewBox="0 0 33 37">
    <path fill="#FFF" fill-rule="evenodd" d="M3.2 29.4l3.6-7.2v-9.6c0-2.7 1.1-5.2 2.9-7 1.8-1.8 4.3-2.9 7-2.9s5.2 1.1 7 2.9c1.8 1.8 2.9 4.3 2.9 7v9.6l3.6 7.2.2.3H3l.2-.3zm13.5 5.1c-.8 0-1.6-.3-2.2-.7-.6-.5-1.1-1.1-1.4-1.9l-.1-.3H20.4l-.1.3c-.3.8-.8 1.4-1.4 1.9-.6.5-1.4.7-2.2.7zm11.8-12.3v-9.6c0-3.3-1.3-6.2-3.5-8.4C22.9 2.1 19.9.7 16.6.7 13.3.7 10.4 2 8.2 4.2c-2.1 2.1-3.5 5.1-3.5 8.4V22.4L0 31.7H10.8v.2c.3 1.3 1 2.5 2 3.3 1 .8 2.3 1.3 3.7 1.3 1.4 0 2.7-.5 3.7-1.3s1.7-2 2-3.3v-.2H33l-4.7-9.3.2-.2z"/>
</svg>
