<?xml version="1.0" encoding="UTF-8" standalone="no"?>
<svg width="30px" height="25px" viewBox="0 0 30 25" version="1.1" xmlns="http://www.w3.org/2000/svg" xmlns:xlink="http://www.w3.org/1999/xlink">
    <!-- Generator: sketchtool 41.2 (35397) - http://www.bohemiancoding.com/sketch -->
    <title>EF92C9F3-4C76-4871-A3DC-69E777B422A1</title>
    <desc>Created with sketchtool.</desc>
    <defs></defs>
    <g id="jobs" stroke="none" stroke-width="1" fill="none" fill-rule="evenodd">
        <g id="jobs-result-view" transform="translate(-125.000000, -298.000000)" fill="#F2403C">
            <g id="job-card-1" transform="translate(0.000000, 166.000000)">
                <g id="Details">
                    <g transform="translate(125.000000, 132.000000)">
                        <g id="Type-of-job">
                            <g id="job-type">
                                <path d="M17.1305668,14.5495951 L12.5,14.5495951 C11.2854251,14.5495951 11.2854251,16.4473684 12.5,16.4473684 L17.1305668,16.4473684 C18.3451417,16.4473684 18.3704453,14.5495951 17.1305668,14.5495951 Z M27.6821862,11.5131579 L4.60526316,11.5131579 L2.0242915,11.5131579 L2.0242915,8.29959514 C2.0242915,7.4645749 2.70748988,6.78137652 3.54251012,6.78137652 L26.138664,6.78137652 C26.9736842,6.78137652 27.6568826,7.4645749 27.6568826,8.29959514 L27.6821862,11.5131579 L27.6821862,11.5131579 Z M9.33704453,3.77024291 L9.33704453,4.75708502 L3.54251012,4.75708502 C1.59412955,4.75708502 0,6.35121457 0,8.29959514 L0,21.4574899 C0,23.4058704 1.59412955,25 3.54251012,25 L26.138664,25 C28.0870445,25 29.6811741,23.4058704 29.6811741,21.4574899 L29.6811741,8.29959514 C29.6811741,6.35121457 28.0870445,4.75708502 26.138664,4.75708502 L20.3188259,4.75708502 L20.3188259,3.77024291 C20.3188259,1.69534413 18.6234818,0 16.548583,0 L13.1325911,0 C11.0323887,0 9.33704453,1.69534413 9.33704453,3.77024291 L9.33704453,3.77024291 Z M2.0242915,13.4109312 L24.9746964,13.4109312 L27.6821862,13.4109312 L27.6821862,21.4574899 C27.6821862,22.2925101 26.9989879,22.9757085 26.1639676,22.9757085 L3.56781377,22.9757085 C2.73279352,22.9757085 2.04959514,22.2925101 2.04959514,21.4574899 L2.0242915,13.4109312 L2.0242915,13.4109312 Z M18.2945344,4.75708502 L11.361336,4.75708502 L11.361336,3.77024291 C11.361336,2.80870445 12.145749,2.0242915 13.1072874,2.0242915 L16.5232794,2.0242915 C17.4848178,2.0242915 18.2692308,2.80870445 18.2692308,3.77024291 L18.2945344,4.75708502 L18.2945344,4.75708502 Z" id="Shape"></path>
                            </g>
                        </g>
                    </g>
                </g>
            </g>
        </g>
    </g>
</svg>