<?xml version="1.0" encoding="UTF-8" standalone="no"?>
<svg width="49px" height="35px" viewBox="0 0 49 35" version="1.1" xmlns="http://www.w3.org/2000/svg" xmlns:xlink="http://www.w3.org/1999/xlink">
    <!-- Generator: sketchtool 41.2 (35397) - http://www.bohemiancoding.com/sketch -->
    <title>595E5A92-BFB2-45BE-B6EC-A7C122CD32E8</title>
    <desc>Created with sketchtool.</desc>
    <defs></defs>
    <g id="articles" stroke="none" stroke-width="1" fill="none" fill-rule="evenodd">
        <g id="ARTICLE-Replies_2" transform="translate(-648.000000, -700.000000)" fill="#B5B9BF">
            <g id="Group" transform="translate(0.000000, 667.000000)">
                <path d="M696.315954,34.3582949 C695.680272,33.4917521 694.678196,32.9999012 693.635322,33 C693.365638,33 693.093189,33.0328954 692.823703,33.1007608 L650.713303,43.7009926 C649.41013,44.0288603 648.432751,45.1091739 648.235872,46.4383272 C648.039389,47.7675792 648.66213,49.0844831 649.814359,49.7756823 L658.719142,55.1185722 L658.719142,66.8387305 C658.719142,67.2822755 658.971933,67.6870967 659.370334,67.8819997 C659.768833,68.0768039 660.243594,68.0276089 660.593589,67.7551597 L668.945571,61.2546074 L675.806689,65.3711793 C676.342006,65.6924284 676.931654,65.8454465 677.51409,65.8454465 C678.631152,65.8454465 679.721048,65.2824703 680.34863,64.2626131 L696.466601,38.0669831 C697.175483,36.9151491 697.115816,35.4487834 696.315954,34.3582949 Z M677.31494,61.6921266 L666.874542,55.4276707 L677.466575,46.3004232 C677.61495,46.1725953 677.649722,45.9566511 677.548962,45.7888153 C677.448398,45.6209794 677.241542,45.5498542 677.058988,45.6204855 L660.92531,51.8582694 L653.089183,47.1563959 L692.33778,37.2766037 L677.31494,61.6921266 Z" id="Send"></path>
            </g>
        </g>
    </g>
</svg>