<?xml version="1.0" encoding="UTF-8" standalone="no"?>
<svg width="31px" height="32px" viewBox="0 0 31 32" version="1.1" xmlns="http://www.w3.org/2000/svg" xmlns:xlink="http://www.w3.org/1999/xlink">
    <!-- Generator: sketchtool 41.2 (35397) - http://www.bohemiancoding.com/sketch -->
    <title>A941CEFA-067F-4170-8074-C060C5A99892</title>
    <desc>Created with sketchtool.</desc>
    <defs></defs>
    <g id="personal-profile---himanshu" stroke="none" stroke-width="1" fill="none" fill-rule="evenodd">
        <g id="Hamburger-Menu_Bg" transform="translate(-89.000000, -619.000000)" stroke-width="0.5" stroke="#3949AB" fill="#3949AB">
            <g id="Group-2" transform="translate(89.000000, 619.000000)">
                <g id="Profile">
                    <g id="Community" transform="translate(1.000000, 1.000000)">
                        <path d="M19.5708155,5.15021459 C19.1845494,5.79399142 18.6695279,6.43776824 18.1545064,6.9527897 C17.5107296,7.59656652 16.8669528,8.11158798 16.223176,8.49785408 C15.3218884,9.1416309 14.2918455,9.527897 13.2618026,9.91416309 L13.2618026,9.91416309 C12.2317597,10.1716738 11.0729614,10.4291845 10.0429185,10.4291845 L9.27038627,10.4291845 L8.75536481,10.4291845 C8.88412017,10.8154506 9.01287554,11.2017167 9.27038627,11.5879828 C9.527897,11.9742489 9.78540773,12.360515 10.1716738,12.7467811 L10.1716738,12.7467811 C10.6866953,13.2618026 11.4592275,13.776824 12.1030043,14.0343348 C12.7467811,14.2918455 13.6480687,14.4206009 14.4206009,14.4206009 C15.3218884,14.4206009 16.0944206,14.2918455 16.7381974,13.9055794 C17.5107296,13.6480687 18.1545064,13.1330472 18.6695279,12.6180258 L18.6695279,12.6180258 C19.1845494,12.1030043 19.6995708,11.3304721 19.9570815,10.6866953 C20.2145923,10.0429185 20.3433476,9.1416309 20.3433476,8.36909871 C20.3433476,7.72532189 20.2145923,7.21030043 20.0858369,6.69527897 C20.0858369,6.05150215 19.8283262,5.66523605 19.5708155,5.15021459 Z M6.43776824,9.91416309 L6.18025751,9.78540773 C6.05150215,9.78540773 5.92274678,9.65665236 5.79399142,9.65665236 C5.15021459,9.39914163 4.50643777,9.1416309 3.86266094,8.75536481 C3.21888412,8.36909871 2.70386266,7.98283262 2.1888412,7.46781116 L2.06008584,7.33905579 L2.1888412,7.21030043 L3.34763948,5.92274678 L3.47639485,5.79399142 L3.60515021,5.92274678 C3.99141631,6.30901288 4.50643777,6.69527897 5.02145923,6.9527897 C5.40772532,7.21030043 5.92274678,7.46781116 6.43776824,7.59656652 C6.56652361,6.69527897 6.69527897,5.66523605 7.08154506,4.89270386 C7.46781116,3.99141631 8.11158798,3.09012876 8.75536481,2.44635193 L8.75536481,2.44635193 C9.527897,1.67381974 10.4291845,1.15879828 11.3304721,0.643776824 C12.2317597,0.25751073 13.3905579,0 14.4206009,0 C15.5793991,0 16.6094421,0.25751073 17.5107296,0.643776824 C18.5407725,1.03004292 19.4420601,1.67381974 20.0858369,2.44635193 C20.8583691,3.21888412 21.3733906,4.12017167 21.888412,5.02145923 C22.2746781,6.05150215 22.5321888,7.08154506 22.5321888,8.11158798 C22.5321888,9.27038627 22.2746781,10.3004292 21.888412,11.2017167 C21.5021459,12.2317597 20.8583691,13.1330472 20.0858369,13.776824 L20.0858369,13.776824 C19.6995708,14.1630901 19.1845494,14.5493562 18.6695279,14.9356223 C18.2832618,15.193133 17.8969957,15.3218884 17.5107296,15.5793991 C18.7982833,15.8369099 19.9570815,16.3519313 21.1158798,16.8669528 C22.4034335,17.5107296 23.6909871,18.4120172 24.72103,19.4420601 L24.72103,19.4420601 C26.1373391,20.8583691 27.167382,22.4034335 27.9399142,24.2060086 C28.7124464,25.8798283 29.0987124,27.8111588 29.0987124,29.7424893 L29.0987124,29.8712446 L28.9699571,29.8712446 L27.167382,29.8712446 L27.0386266,29.8712446 L27.0386266,29.7424893 C27.0386266,28.0686695 26.6523605,26.3948498 26.1373391,24.8497854 C25.4935622,23.304721 24.5922747,22.0171674 23.4334764,20.8583691 L23.4334764,20.8583691 C22.2746781,19.6995708 20.8583691,18.7982833 19.3133047,18.1545064 C17.8969957,17.5107296 16.223176,17.2532189 14.5493562,17.2532189 C12.8755365,17.2532189 11.2017167,17.639485 9.65665236,18.1545064 C8.11158798,18.7982833 6.82403433,19.6995708 5.66523605,20.8583691 L5.66523605,20.8583691 C4.50643777,22.0171674 3.60515021,23.4334764 2.96137339,24.9785408 C2.31759657,26.3948498 2.06008584,28.0686695 2.06008584,29.7424893 L2.06008584,29.8712446 L1.93133047,29.8712446 L0.128755365,29.8712446 L0,29.8712446 L0,29.7424893 C0,27.8111588 0.386266094,25.8798283 1.15879828,24.2060086 C1.93133047,22.4034335 2.96137339,20.8583691 4.3776824,19.4420601 C5.40772532,18.4120172 6.56652361,17.5107296 7.98283262,16.8669528 C9.1416309,16.223176 10.3004292,15.8369099 11.5879828,15.5793991 C11.2017167,15.4506438 10.8154506,15.193133 10.4291845,14.9356223 C9.91416309,14.5493562 9.39914163,14.1630901 9.01287554,13.776824 C8.49785408,13.2618026 7.98283262,12.6180258 7.59656652,11.8454936 C6.82403433,11.3304721 6.56652361,10.6866953 6.43776824,9.91416309 L6.43776824,9.91416309 Z M8.24034335,8.24034335 C8.49785408,8.24034335 8.75536481,8.36909871 9.01287554,8.36909871 L9.01287554,8.36909871 L9.91416309,8.36909871 C10.8154506,8.36909871 11.7167382,8.24034335 12.6180258,7.98283262 C13.5193133,7.72532189 14.2918455,7.33905579 15.0643777,6.9527897 L15.0643777,6.9527897 C15.7081545,6.56652361 16.3519313,6.05150215 16.8669528,5.40772532 C17.3819742,4.89270386 17.7682403,4.24892704 18.1545064,3.60515021 C17.639485,3.21888412 16.9957082,2.83261803 16.3519313,2.5751073 C15.7081545,2.31759657 14.9356223,2.1888412 14.1630901,2.1888412 C13.2618026,2.1888412 12.4892704,2.31759657 11.8454936,2.70386266 C11.0729614,2.96137339 10.4291845,3.47639485 9.91416309,3.99141631 L9.91416309,3.99141631 C9.39914163,4.50643777 8.88412017,5.27896996 8.62660944,5.92274678 C8.49785408,6.69527897 8.24034335,7.33905579 8.24034335,8.24034335 Z" id="Shape"></path>
                    </g>
                </g>
            </g>
        </g>
    </g>
</svg>