<?xml version="1.0" encoding="UTF-8" standalone="no"?>
<svg width="32px" height="20px" viewBox="0 0 32 20" version="1.1" xmlns="http://www.w3.org/2000/svg" xmlns:xlink="http://www.w3.org/1999/xlink">
    <!-- Generator: sketchtool 41.2 (35397) - http://www.bohemiancoding.com/sketch -->
    <title>4F187418-05EE-45C8-AEA8-DC28421FD56F</title>
    <desc>Created with sketchtool.</desc>
    <defs></defs>
    <g id="search" stroke="none" stroke-width="1" fill="none" fill-rule="evenodd">
        <g id="all-search" transform="translate(-85.000000, -693.000000)" fill="#3949AB">
            <g id="Group-2" transform="translate(76.000000, 684.000000)">
                <g id="Jobs-Icon" transform="translate(9.000000, 9.000000)">
                    <path d="M18.535,13.7290455 C18.535,13.954 18.4526818,14.1488636 18.2884545,14.313 C18.1240455,14.4775909 17.9292727,14.5597273 17.7043182,14.5597273 L13.5515455,14.5597273 C13.3264545,14.5597273 13.1318636,14.4775909 12.9674545,14.313 C12.8030909,14.1489091 12.7209091,13.9540455 12.7209091,13.7290455 L12.7209091,11.6527273 L4,11.6527273 L4,17.882 C4,18.4529091 4.20322727,18.9416364 4.60990909,19.3482273 C5.0165,19.7548636 5.50540909,19.9581818 6.07645455,19.9581818 L25.1794545,19.9581818 C25.7503636,19.9581818 26.2392273,19.7548636 26.6458636,19.3482273 C27.0526364,18.9416364 27.2557727,18.4529091 27.2557727,17.882 L27.2557727,11.6527273 L18.535,11.6527273 L18.535,13.7290455 L18.535,13.7290455 Z" id="Shape"></path>
                    <rect id="Rectangle-path" x="13.9666364" y="11.6527273" width="3.32254545" height="1.66113636"></rect>
                    <path d="M26.6458182,3.957 C26.2392273,3.55031818 25.7503182,3.34709091 25.1794091,3.34709091 L20.6111818,3.34709091 L20.6111818,1.27059091 C20.6111818,0.9245 20.4901364,0.630409091 20.2478182,0.388136364 C20.0057727,0.146 19.7114545,0.0248181818 19.3655,0.0248181818 L11.8904091,0.0248181818 C11.5444091,0.0248181818 11.2502727,0.146 11.0079545,0.388136364 C10.7656364,0.630272727 10.6445909,0.924454545 10.6445909,1.27059091 L10.6445909,3.34709091 L6.07645455,3.34709091 C5.50545455,3.34709091 5.01654545,3.55031818 4.60990909,3.957 C4.20322727,4.36363636 4,4.85227273 4,5.42331818 L4,10.4067727 L27.2557273,10.4067727 L27.2557273,5.42331818 C27.2557273,4.85227273 27.0526364,4.36363636 26.6458182,3.957 Z M18.9501818,3.34709091 L12.3056818,3.34709091 L12.3056818,1.68586364 L18.9501818,1.68586364 L18.9501818,3.34709091 Z" id="Shape"></path>
                </g>
            </g>
        </g>
    </g>
</svg>