<?xml version="1.0" encoding="UTF-8" standalone="no"?>
<svg width="30px" height="30px" viewBox="0 0 30 30" version="1.1" xmlns="http://www.w3.org/2000/svg" xmlns:xlink="http://www.w3.org/1999/xlink">
    <!-- Generator: sketchtool 41.2 (35397) - http://www.bohemiancoding.com/sketch -->
    <title>57E5FA56-A2ED-401B-AC0D-E20C5ABE5AA9</title>
    <desc>Created with sketchtool.</desc>
    <defs></defs>
    <g id="personal-profile---himanshu" stroke="none" stroke-width="1" fill="none" fill-rule="evenodd">
        <g id="Hamburger-Menu_Bg" transform="translate(-92.000000, -1028.000000)" fill="#3949AB">
            <g id="Group-2" transform="translate(89.000000, 619.000000)">
                <g id="Group" transform="translate(3.000000, 407.000000)">
                    <g id="Settings" transform="translate(0.000000, 2.000000)">
                        <g id="Group">
                            <path d="M1.15384615,11.8974359 C0.564102564,11.8974359 0.102564103,12.3589744 0.102564103,12.9487179 L0.102564103,17.0512821 C0.102564103,17.6410256 0.564102564,18.1025641 1.15384615,18.1025641 L3.07692308,18.1025641 C3.35897436,19.2051282 3.79487179,20.2564103 4.38461538,21.2307692 L3.05128205,22.5641026 C2.64102564,22.974359 2.64102564,23.6410256 3.05128205,24.0512821 L5.94871795,26.9487179 C6.35897436,27.3589744 7.02564103,27.3589744 7.43589744,26.9487179 L8.79487179,25.5897436 C9.76923077,26.1538462 10.8205128,26.5897436 11.9230769,26.8717949 L11.9230769,28.7948718 C11.9230769,29.3846154 12.3846154,29.8461538 12.974359,29.8461538 L17.0769231,29.8461538 C17.6666667,29.8461538 18.1282051,29.3846154 18.1282051,28.7948718 L18.1282051,26.8461538 C19.2307692,26.5641026 20.2564103,26.1282051 21.2307692,25.5641026 L22.6153846,26.9487179 C23.025641,27.3589744 23.6923077,27.3589744 24.1025641,26.9487179 L27,24.0512821 C27.4102564,23.6410256 27.4102564,22.974359 27,22.5641026 L25.6153846,21.1794872 C26.1794872,20.2051282 26.6153846,19.1794872 26.8974359,18.0769231 L28.8461538,18.0769231 C29.4358974,18.0769231 29.8974359,17.6153846 29.8974359,17.025641 L29.8974359,12.9230769 C29.8974359,12.3333333 29.4358974,11.8717949 28.8461538,11.8717949 L26.8974359,11.8717949 C26.6153846,10.7692308 26.1794872,9.74358974 25.6153846,8.76923077 L27,7.38461538 C27.4102564,6.97435897 27.4102564,6.30769231 27,5.8974359 L24.0769231,3.02564103 C23.6666667,2.61538462 23,2.61538462 22.5897436,3.02564103 L21.2307692,4.38461538 C20.2564103,3.82051282 19.2051282,3.38461538 18.1025641,3.07692308 L18.1025641,1.15384615 C18.1025641,0.564102564 17.6410256,0.102564103 17.0512821,0.102564103 L12.9487179,0.102564103 C12.3589744,0.102564103 11.8974359,0.564102564 11.8974359,1.15384615 L11.8974359,3.07692308 C10.7948718,3.35897436 9.74358974,3.79487179 8.76923077,4.35897436 L7.41025641,3 C7,2.58974359 6.33333333,2.58974359 5.92307692,3 L3.02564103,5.92307692 C2.61538462,6.33333333 2.61538462,7 3.02564103,7.41025641 L4.35897436,8.74358974 C3.76923077,9.71794872 3.33333333,10.7692308 3.05128205,11.8974359 L1.15384615,11.8974359 L1.15384615,11.8974359 Z M4.94871795,13.1282051 C5.20512821,11.6923077 5.76923077,10.3846154 6.56410256,9.20512821 C6.84615385,8.79487179 6.79487179,8.23076923 6.43589744,7.87179487 L5.25641026,6.66666667 L6.66666667,5.25641026 L7.87179487,6.46153846 C8.23076923,6.82051282 8.79487179,6.87179487 9.20512821,6.58974359 C10.3846154,5.76923077 11.7179487,5.23076923 13.1282051,4.97435897 C13.6153846,4.87179487 14,4.46153846 14,3.94871795 L14,2.23076923 L16,2.23076923 L16,3.94871795 C16,4.46153846 16.3589744,4.8974359 16.8461538,4.97435897 C18.2564103,5.23076923 19.5641026,5.79487179 20.7435897,6.58974359 C21.1538462,6.87179487 21.7179487,6.82051282 22.0769231,6.46153846 L23.3076923,5.23076923 L24.7179487,6.64102564 L23.4871795,7.87179487 C23.1282051,8.23076923 23.0769231,8.79487179 23.3589744,9.20512821 C24.1538462,10.3846154 24.6923077,11.6923077 24.974359,13.1025641 C25.0769231,13.5897436 25.5128205,13.974359 26,13.974359 L27.7435897,13.974359 L27.7435897,15.974359 L26,15.974359 C25.4871795,15.974359 25.0512821,16.3333333 24.974359,16.8205128 C24.7179487,18.2307692 24.1794872,19.5384615 23.3589744,20.7179487 C23.0769231,21.1282051 23.1282051,21.6923077 23.4871795,22.0512821 L24.7179487,23.2820513 L23.3076923,24.6923077 L22.0769231,23.4615385 C21.7179487,23.1025641 21.1538462,23.0512821 20.7435897,23.3333333 C19.5641026,24.1538462 18.2564103,24.6923077 16.8461538,24.9487179 C16.3589744,25.0512821 16,25.4871795 16,25.974359 L16,27.6923077 L14,27.6923077 L14,25.974359 C14,25.4615385 13.6410256,25.025641 13.1282051,24.9487179 C11.6923077,24.6923077 10.3846154,24.1538462 9.20512821,23.3333333 C8.79487179,23.0512821 8.23076923,23.1025641 7.87179487,23.4615385 L6.66666667,24.6666667 L5.25641026,23.3333333 L6.46153846,22.1282051 C6.82051282,21.7692308 6.87179487,21.2051282 6.58974359,20.7948718 C5.76923077,19.6153846 5.23076923,18.2820513 4.94871795,16.8717949 C4.84615385,16.3846154 4.43589744,16.025641 3.92307692,16.025641 L2.23076923,16.025641 L2.23076923,14.025641 L3.92307692,14.025641 C4.41025641,14 4.84615385,13.6410256 4.94871795,13.1282051 L4.94871795,13.1282051 Z" id="Shape"></path>
                            <path d="M14.974359,22.3589744 C18.9487179,22.3589744 22.1794872,19.1282051 22.1794872,15.1538462 C22.1794872,11.1794872 18.9487179,7.94871795 14.974359,7.94871795 C11,7.94871795 7.76923077,11.1794872 7.76923077,15.1538462 C7.76923077,19.1282051 11,22.3589744 14.974359,22.3589744 L14.974359,22.3589744 Z M14.974359,10.0512821 C17.7948718,10.0512821 20.0769231,12.3333333 20.0769231,15.1538462 C20.0769231,17.974359 17.7948718,20.2564103 14.974359,20.2564103 C12.1538462,20.2564103 9.87179487,17.974359 9.87179487,15.1538462 C9.87179487,12.3333333 12.1538462,10.0512821 14.974359,10.0512821 L14.974359,10.0512821 Z" id="Shape"></path>
                        </g>
                    </g>
                </g>
            </g>
        </g>
    </g>
</svg>