<?xml version="1.0" encoding="UTF-8" standalone="no"?>
<svg width="34px" height="29px" viewBox="0 0 34 29" version="1.1" xmlns="http://www.w3.org/2000/svg" xmlns:xlink="http://www.w3.org/1999/xlink">
    <!-- Generator: Sketch 41.2 (35397) - http://www.bohemiancoding.com/sketch -->
    <title>Group 2</title>
    <desc>Created with Sketch.</desc>
    <defs></defs>
    <g id="jobs" stroke="none" stroke-width="1" fill="none" fill-rule="evenodd">
        <g id="Artboard" transform="translate(-647.000000, -84.000000)" fill="#FFFFFF">
            <g id="Group-2" transform="translate(647.000000, 84.000000)">
                <path d="M12.3905109,15.6227743 L12.4878345,15.6227743 L12.5243309,15.6227743 L12.5851582,15.6227743 C14.3673966,15.5927536 15.8090024,14.9743271 16.8734793,13.7915114 C19.2153285,11.1857143 18.8260341,6.71863354 18.783455,6.29233954 C18.6313869,3.09213251 17.0985401,1.5610766 15.8333333,0.846583851 C14.8905109,0.312215321 13.7895377,0.0240165631 12.5608273,0 L12.5182482,0 L12.4939173,0 L12.4574209,0 C11.7822384,0 10.4562044,0.108074534 9.18491484,0.822567288 C7.90754258,1.53706004 6.35036496,3.06811594 6.19829684,6.29233954 C6.15571776,6.71863354 5.76642336,11.1857143 8.10827251,13.7915114 C9.16666667,14.9743271 10.6082725,15.5927536 12.3905109,15.6227743 Z M7.82238443,6.44244306 C7.82238443,6.42443064 7.82846715,6.40641822 7.82846715,6.39440994 C8.02919708,2.08944099 11.1253041,1.62712215 12.4513382,1.62712215 L12.4756691,1.62712215 L12.5243309,1.62712215 C14.1666667,1.663147 16.9586375,2.32360248 17.1472019,6.39440994 C17.1472019,6.41242236 17.1472019,6.43043478 17.1532847,6.44244306 C17.1593674,6.48447205 17.5851582,10.5672878 15.6508516,12.7167702 C14.8844282,13.5693582 13.8625304,13.989648 12.5182482,14.0016563 L12.4878345,14.0016563 L12.4878345,14.0016563 L12.4574209,14.0016563 C11.1192214,13.989648 10.0912409,13.5693582 9.33090024,12.7167702 C7.4026764,10.5792961 7.8163017,6.47846791 7.82238443,6.44244306 Z" id="Shape"></path>
                <path d="M24.9878345,23.0318841 L24.9878345,23.0138716 C24.9878345,22.9658385 24.9817518,22.9178054 24.9817518,22.8637681 C24.9452555,21.6749482 24.86618,18.8950311 22.2262774,18.0064182 C22.2080292,18.0004141 22.1836983,17.9944099 22.1654501,17.9884058 C19.4221411,17.2979296 17.1411192,15.736853 17.1167883,15.7188406 C16.7457421,15.4606625 16.2347932,15.5507246 15.973236,15.9169772 C15.7116788,16.2832298 15.8029197,16.7875776 16.1739659,17.0457557 C16.2773723,17.1178054 18.6982968,18.7809524 21.7274939,19.5494824 C23.1447689,20.0478261 23.3029197,21.5428571 23.3454988,22.9118012 C23.3454988,22.9658385 23.3454988,23.0138716 23.3515815,23.0619048 C23.3576642,23.6022774 23.3211679,24.436853 23.2238443,24.9171843 C22.2384428,25.4695652 18.3759124,27.378882 12.5,27.378882 C6.64841849,27.378882 2.76155718,25.4635611 1.77007299,24.9111801 C1.67274939,24.4308489 1.63017032,23.5962733 1.64233577,23.0559006 C1.64233577,23.0078675 1.64841849,22.9598344 1.64841849,22.9057971 C1.69099757,21.536853 1.84914842,20.0418219 3.26642336,19.5434783 C6.29562044,18.7749482 8.71654501,17.1057971 8.81995134,17.0397516 C9.19099757,16.7815735 9.28223844,16.2772257 9.02068127,15.9109731 C8.75912409,15.5447205 8.24817518,15.4546584 7.87712895,15.7128364 C7.85279805,15.7308489 5.58394161,17.2919255 2.82846715,17.9824017 C2.80413625,17.9884058 2.78588808,17.9944099 2.7676399,18.0004141 C0.127737226,18.8950311 0.0486618005,21.6749482 0.0121654501,22.857764 C0.0121654501,22.9118012 0.0121654501,22.9598344 0.00608272506,23.0078675 L0.00608272506,23.0258799 C-2.82226499e-13,23.3380952 -0.00608272506,24.9412008 0.316301703,25.7457557 C0.377128954,25.9018634 0.486618005,26.0339545 0.632603406,26.1240166 C0.815085158,26.2440994 5.18856448,28.9939959 12.5060827,28.9939959 C19.823601,28.9939959 24.1970803,26.2380952 24.379562,26.1240166 C24.5194647,26.0339545 24.6350365,25.9018634 24.6958637,25.7457557 C25,24.947205 24.9939173,23.3440994 24.9878345,23.0318841 Z" id="Shape"></path>
                <path d="M31.8484848,10.2976296 L22.2621212,10.2976296 C22.1784848,10.2976296 22.1106061,10.1856296 22.1106061,10.0476296 C22.1106061,9.90962963 22.1784848,9.79762963 22.2621212,9.79762963 L31.8484848,9.79762963 C31.9321212,9.79762963 32,9.90962963 32,10.0476296 C32,10.1856296 31.9321212,10.2976296 31.8484848,10.2976296 Z" id="Shape" stroke="#FFFFFF" transform="translate(27.055303, 10.297630) scale(-1, 1) translate(-27.055303, -10.297630) "></path>
                <path d="M32.8484091,13.8082963 C32.8096212,13.8082963 32.7708333,13.7937778 32.7411364,13.765037 L28.9420455,10.0500741 C28.9138636,10.0222222 28.897803,9.98459259 28.897803,9.94518519 C28.897803,9.90577778 28.9138636,9.86814815 28.9420455,9.8402963 L32.7414394,6.12711111 C32.8005303,6.06933333 32.8965909,6.06933333 32.9556818,6.12711111 C33.0147727,6.18488889 33.0147727,6.27881481 32.9556818,6.33659259 L29.2635606,9.94518519 L32.9556818,13.5552593 C33.0147727,13.613037 33.0147727,13.706963 32.9556818,13.7647407 C32.9259848,13.7937778 32.887197,13.8082963 32.8484091,13.8082963 Z" id="Shape" stroke="#FFFFFF" transform="translate(30.948902, 9.946037) scale(-1, 1) translate(-30.948902, -9.946037) "></path>
            </g>
        </g>
    </g>
</svg>