<?xml version="1.0" encoding="UTF-8" standalone="no"?>
<svg width="40px" height="27px" viewBox="0 0 40 27" version="1.1" xmlns="http://www.w3.org/2000/svg" xmlns:xlink="http://www.w3.org/1999/xlink">
    <!-- Generator: sketchtool 41.2 (35397) - http://www.bohemiancoding.com/sketch -->
    <title>E9FE4A2D-2964-4FDC-BEC5-757E76CCF3AE</title>
    <desc>Created with sketchtool.</desc>
    <defs></defs>
    <g id="articles" stroke="none" stroke-width="1" fill="none" fill-rule="evenodd">
        <g id="ARTICLE-Open-Article_3" transform="translate(-641.000000, -80.000000)" stroke-width="0.2" stroke="#FFFFFF" fill="#FFFFFF">
            <g id="header">
                <path d="M645.183784,100.205405 C644.772973,101.12973 644.464865,102.054054 644.259459,102.875676 C644.156757,103.183784 644.156757,103.491892 644.054054,103.8 C646.210811,101.437838 648.675676,99.6918919 651.756757,98.5621622 C655.248649,97.227027 659.356757,96.7135135 664.081081,96.7135135 L664.081081,96.7135135 L664.183784,96.7135135 C664.491892,96.7135135 664.8,96.8162162 665.005405,97.0216216 L665.005405,97.0216216 L665.005405,97.0216216 L665.005405,97.0216216 L665.108108,97.0216216 C665.313514,97.227027 665.518919,97.4324324 665.724324,97.7405405 L665.416216,97.8432432 L665.416216,97.8432432 L665.724324,97.7405405 C665.827027,97.8432432 665.827027,98.0486486 665.827027,98.1513514 L665.92973,103.594595 L678.356757,93.3243243 L665.92973,83.1567568 L665.92973,88.0864865 C665.92973,88.6 665.724324,89.0108108 665.416216,89.3189189 L664.8,88.7027027 L665.416216,89.3189189 L665.416216,89.3189189 C665.108108,89.627027 664.697297,89.8324324 664.183784,89.8324324 C659.767568,89.8324324 655.556757,90.6540541 652.27027,92.5027027 C649.189189,94.0432432 646.724324,96.6108108 645.183784,100.205405 L645.183784,100.205405 Z M642.718919,102.464865 C642.924324,101.437838 643.335135,100.410811 643.745946,99.4864865 C645.491892,95.5837838 648.059459,92.8108108 651.345946,90.9621622 C654.940541,88.9081081 659.356757,88.0864865 664.081081,88.0864865 L664.081081,88.0864865 L664.081081,88.0864865 L664.081081,88.0864865 L664.081081,88.0864865 L664.081081,88.0864865 L664.081081,82.2324324 C664.081081,81.9243243 664.183784,81.6162162 664.389189,81.4108108 C664.491892,81.3081081 664.594595,81.2054054 664.8,81.1027027 C665.005405,81 665.108108,81 665.313514,81 C665.621622,81 665.827027,81.1027027 666.032432,81.3081081 L666.135135,81.3081081 L666.135135,81.3081081 L666.135135,81.3081081 L679.486486,92.2972973 L679.589189,92.2972973 L679.589189,92.2972973 L679.691892,92.4 L679.794595,92.5027027 L679.794595,92.5027027 C680,92.7081081 680,93.0162162 680,93.2216216 C680,93.5297297 679.897297,93.7351351 679.691892,94.0432432 C679.691892,94.1459459 679.589189,94.1459459 679.486486,94.2486486 L679.486486,94.2486486 L679.486486,94.2486486 L679.486486,94.2486486 L679.486486,94.2486486 L666.135135,105.340541 C666.135135,105.340541 666.135135,105.340541 666.032432,105.443243 L665.92973,105.340541 L666.032432,105.443243 C665.827027,105.648649 665.518919,105.751351 665.210811,105.751351 L665.210811,105.751351 C665.005405,105.751351 664.8,105.751351 664.697297,105.648649 C664.491892,105.545946 664.389189,105.443243 664.286486,105.340541 C664.081081,105.135135 663.978378,104.827027 663.978378,104.518919 L663.978378,104.518919 L663.875676,98.4594595 C659.356757,98.4594595 655.454054,98.972973 652.167568,100.205405 C648.983784,101.437838 646.313514,103.286486 644.156757,106.162162 C643.951351,106.47027 643.643243,106.675676 643.335135,106.675676 C643.12973,106.675676 642.924324,106.675676 642.718919,106.572973 C642.513514,106.47027 642.308108,106.367568 642.205405,106.162162 C642,105.956757 642,105.648649 642,105.340541 L642,105.340541 L642,105.340541 L642,105.340541 L642,105.340541 C642.308108,104.416216 642.513514,103.491892 642.718919,102.464865 L642.718919,102.464865 Z M643.745946,105.545946 L643.437838,105.545946 L643.745946,105.545946 Z M643.335135,105.443243 L643.027027,105.443243 L643.335135,105.443243 L643.335135,105.443243 Z M643.540541,105.443243 L643.848649,105.443243 L643.848649,105.443243 L643.540541,105.443243 Z M678.767568,93.3243243 L678.767568,93.3243243 L678.562162,93.6324324 L678.562162,93.6324324 L678.767568,93.3243243 L679.075676,93.6324324 L678.767568,93.3243243 L678.767568,93.3243243 L678.767568,93.3243243 L678.767568,93.3243243 L678.767568,93.3243243 L678.767568,93.3243243 Z" id="Share"></path>
            </g>
        </g>
    </g>
</svg>