<?xml version="1.0" encoding="UTF-8" standalone="no"?>
<svg width="167px" height="25px" viewBox="0 0 167 25" version="1.1" xmlns="http://www.w3.org/2000/svg" xmlns:xlink="http://www.w3.org/1999/xlink">
    <!-- Generator: sketchtool 41.2 (35397) - http://www.bohemiancoding.com/sketch -->
    <title>B50E181B-CD45-4CD0-BFD0-B72855CDE5F8</title>
    <desc>Created with sketchtool.</desc>
    <defs></defs>
    <g id="personal-profile---himanshu" stroke="none" stroke-width="1" fill="none" fill-rule="evenodd">
        <g id="Hamburger-Menu_Bg" transform="translate(-216.000000, -1174.000000)" fill="#EF423E">
            <g id="Group-4" transform="translate(215.000000, 1174.000000)">
                <g id="SHEROES" transform="translate(1.000000, 0.000000)">
                    <g id="Group">
                        <path d="M9.16666667,0 C10.6666667,0 12.6666667,0.5 14.3333333,1.33333333 C14.6666667,1.5 15,1.83333333 15.3333333,2 C15.8333333,2.5 15.8333333,3.16666667 15.6666667,3.83333333 C15.3333333,4.5 14.8333333,5.16666667 14.5,5.83333333 C14.1666667,6.66666667 13.5,6.83333333 12.8333333,6.5 C12.1666667,6.33333333 11.5,5.83333333 10.8333333,5.66666667 C9.5,5.16666667 8.33333333,5 7.16666667,5.5 C6,6 5.83333333,7.16666667 6.66666667,8 C7.16666667,8.5 7.83333333,8.83333333 8.66666667,9.16666667 C9.5,9.66666667 10.6666667,10 11.6666667,10.5 C12.6666667,11 13.6666667,11.6666667 14.5,12.5 C15.5,13.5 16,14.6666667 16.1666667,16.1666667 C16.3333333,17.5 16.1666667,18.8333333 15.5,20 C14.6666667,21.6666667 13.3333333,22.8333333 11.5,23.5 C9.83333333,24.1666667 8,24.1666667 6.16666667,23.8333333 C4.33333333,23.5 2.5,22.8333333 1,21.8333333 C0.833333333,21.6666667 0.666666667,21.6666667 0.5,21.5 C1.63195846e-13,21 -0.166666667,20.3333333 0.333333333,19.6666667 C0.833333333,19 1.16666667,18.3333333 1.66666667,17.6666667 C2,17.1666667 2.66666667,17 3.16666667,17.1666667 C3.66666667,17.3333333 4,17.5 4.33333333,17.6666667 C5.33333333,18.1666667 6.16666667,18.6666667 7.33333333,18.8333333 C8,19 8.83333333,19 9.5,18.6666667 C10.6666667,18.1666667 11,17 10,16.1666667 C9.5,15.3333333 8.66666667,15 8,14.6666667 C6.5,14 5.16666667,13.5 3.83333333,12.6666667 C2.5,12 1.66666667,11.1666667 1,9.83333333 C0.5,9 0.333333333,8 0.333333333,6.83333333 C0.333333333,4 2.33333333,1.66666667 5,0.666666667 C6.16666667,0.166666667 7.33333333,0 9.16666667,0" id="Shape"></path>
                        <path d="M29.8333333,9.66666667 L38.3333333,9.66666667 L38.3333333,9.33333333 L38.3333333,2.33333333 C38.3333333,1.66666667 38.5,1.16666667 39,0.833333333 C39.3333333,0.666666667 39.6666667,0.666666667 40,0.5 L42.3333333,0.5 C43.1666667,0.5 43.6666667,1.16666667 43.8333333,2 L43.8333333,2.66666667 L43.8333333,21.5 C43.8333333,21.8333333 43.8333333,22.1666667 43.6666667,22.6666667 C43.5,23.3333333 43,23.6666667 42.3333333,23.6666667 L39.5,23.6666667 C38.5,23.6666667 38.1666667,23 38,22 L38,18.8333333 L38,14.5 L29.5,14.5 L29.5,14.8333333 L29.5,21.6666667 L29.5,22.1666667 C29.3333333,23 29,23.5 28.1666667,23.5 L25.1666667,23.5 C24.3333333,23.5 24,22.8333333 24,22.1666667 L24,21.3333333 L24,2.5 C24,2.16666667 24,1.83333333 24.1666667,1.5 C24.3333333,0.833333333 24.8333333,0.5 25.5,0.5 L28.3333333,0.5 C29.1666667,0.5 29.6666667,1.16666667 29.6666667,2 L29.6666667,2.5 L29.6666667,9.5 L29.6666667,9.66666667 L29.8333333,9.66666667 Z" id="Shape"></path>
                        <path d="M57.6666667,14.3333333 L57.6666667,18.6666667 L58,18.6666667 L65,18.6666667 L65.6666667,18.6666667 C66.3333333,18.8333333 66.8333333,19.1666667 66.8333333,19.8333333 C66.8333333,20.6666667 67,21.3333333 66.8333333,22.1666667 C66.6666667,23 66.1666667,23.3333333 65.3333333,23.5 L65,23.5 L53.8333333,23.5 L53.3333333,23.5 C52.3333333,23.3333333 52,22.8333333 52,21.6666667 L52,16.5 L52,2.5 C52,2.16666667 52,1.83333333 52.1666667,1.5 C52.3333333,0.833333333 52.8333333,0.5 53.5,0.333333333 L54.1666667,0.333333333 L64.5,0.333333333 C64.8333333,0.333333333 65.1666667,0.333333333 65.5,0.5 C66.1666667,0.666666667 66.5,1.16666667 66.6666667,1.83333333 L66.6666667,3.83333333 C66.6666667,4.66666667 66,5.16666667 65.1666667,5.16666667 L60.6666667,5.16666667 L57.8333333,5.16666667 L57.8333333,9.33333333 L58.1666667,9.33333333 L63.3333333,9.33333333 C64.1666667,9.33333333 64.8333333,9.83333333 64.8333333,10.6666667 L64.8333333,12.8333333 C64.6666667,13.6666667 64.1666667,14 63.3333333,14 L60.3333333,14 C59.5,14.3333333 58.6666667,14.3333333 57.6666667,14.3333333" id="Shape"></path>
                        <path d="M128.833333,21.8333333 L128.833333,2.16666667 L128.833333,1.83333333 C128.833333,1.16666667 129.333333,0.666666667 130,0.5 L130.833333,0.5 L141.166667,0.5 L141.833333,0.5 C142.666667,0.5 143.166667,1.16666667 143.166667,1.83333333 L143.166667,3.83333333 C143.166667,4.5 142.666667,5 142,5.16666667 C141.666667,5.16666667 141.333333,5.33333333 141,5.33333333 L134.666667,5.33333333 L134.333333,5.33333333 L134.333333,9.5 L134.666667,9.5 L139.833333,9.5 C140.666667,9.5 141.166667,10 141.333333,10.8333333 L141.333333,13.1666667 C141.333333,13.8333333 140.833333,14.3333333 140.166667,14.3333333 L139.5,14.3333333 L134.833333,14.3333333 L134.5,14.3333333 L134.5,18.6666667 L134.833333,18.6666667 L139.5,18.6666667 L142.166667,18.6666667 C143,18.6666667 143.666667,19.1666667 143.666667,20 L143.666667,22.3333333 C143.666667,23 143.166667,23.3333333 142.5,23.5 C142.5,23.5 142.5,23.5 142.333333,23.5 L130,23.5 C130,23.5 130,23.5 129.833333,23.5 C129.166667,23.3333333 128.833333,22.8333333 128.666667,22.1666667 C128.833333,22.1666667 128.833333,22 128.833333,21.8333333" id="Shape"></path>
                        <path d="M111,24 L109.5,24 C109.166667,24 108.833333,23.8333333 108.5,23.8333333 C106.333333,23.5 104.5,22.8333333 102.833333,21.5 C101,20.1666667 99.6666667,18.3333333 99,16.3333333 C98.3333333,14.3333333 98,12.1666667 98.3333333,10.1666667 C98.6666667,8.16666667 99.1666667,6.5 100.333333,4.83333333 C101.666667,2.83333333 103.5,1.5 105.833333,0.666666667 C107.833333,5.55111512e-17 110,-0.166666667 112.166667,0.166666667 C114.166667,0.5 116,1.16666667 117.5,2.33333333 C119.666667,3.83333333 121,6 121.833333,8.5 C122.333333,10.5 122.5,12.3333333 122.166667,14.3333333 C121.666667,17.3333333 120.166667,19.8333333 117.666667,21.8333333 C116.166667,23 114.333333,23.6666667 112.333333,24 C112,23.8333333 111.5,24 111,24 M116.5,11.8333333 C116.5,11.3333333 116.333333,10.6666667 116.333333,10.1666667 C116,8.33333333 115,6.83333333 113.333333,6 C112,5.16666667 110.666667,5 109.166667,5.16666667 C107.5,5.5 106.166667,6.33333333 105.166667,7.66666667 C104,9.5 103.666667,11.3333333 104.166667,13.5 C104.666667,16.3333333 106.5,18.1666667 109.166667,18.6666667 C111.5,19 113.5,18.3333333 115,16.5 C116.166667,15.1666667 116.5,13.6666667 116.5,11.8333333" id="Shape"></path>
                        <path d="M75.3333333,21.8333333 L75.3333333,2.16666667 L75.3333333,2 C75.5,1 75.8333333,0.5 77,0.5 L83.5,0.5 C84.6666667,0.5 85.6666667,0.5 86.8333333,0.666666667 C89.1666667,1.16666667 90.8333333,2.5 91.6666667,4.66666667 C92.3333333,6.16666667 92.3333333,7.66666667 92,9.33333333 C91.6666667,10.8333333 91,12.1666667 89.8333333,13.3333333 C89.5,13.6666667 89,14 88.6666667,14.1666667 C88.8333333,14.3333333 88.8333333,14.5 89,14.6666667 C90,16.3333333 90.8333333,18 91.8333333,19.6666667 C92.1666667,20.3333333 92.6666667,21 93,21.8333333 C93.5,22.6666667 93,23.5 92,23.6666667 C91,23.8333333 89.8333333,23.6666667 88.8333333,23.6666667 C88.6666667,23.6666667 88.5,23.6666667 88.3333333,23.5 C87.6666667,23.3333333 87.3333333,22.8333333 87,22.1666667 C86,20.1666667 84.8333333,18 83.8333333,16 C83.6666667,15.8333333 83.6666667,15.6666667 83.3333333,15.6666667 L81.3333333,15.6666667 L81,15.6666667 L81,16.1666667 L81,21.6666667 C81,22.6666667 80.5,23.3333333 79.6666667,23.3333333 C78.6666667,23.5 77.6666667,23.3333333 76.8333333,23.3333333 C76,23.3333333 75.6666667,22.8333333 75.5,22.1666667 C75.3333333,22.1666667 75.3333333,22 75.3333333,21.8333333 L75.3333333,21.8333333 Z M81,10.8333333 L84,10.8333333 C85,10.8333333 85.8333333,10.1666667 86.1666667,9.33333333 C86.5,8.66666667 86.5,8 86.3333333,7.16666667 C86.1666667,6.33333333 85.6666667,5.83333333 85,5.66666667 C84.5,5.5 84,5.5 83.3333333,5.33333333 L81,5.33333333 L81,10.8333333 Z" id="Shape"></path>
                        <path d="M159.5,0 C161,0 163,0.5 164.666667,1.33333333 C165,1.5 165.333333,1.83333333 165.666667,2 C166.166667,2.5 166.166667,3.16666667 166,3.83333333 C165.666667,4.5 165.333333,5.16666667 165,5.83333333 C164.666667,6.5 164,6.66666667 163.333333,6.5 C162.666667,6.16666667 162,5.83333333 161.333333,5.66666667 C160,5.16666667 158.666667,5 157.5,5.5 C156.333333,6 156.166667,7.16666667 157,8 C157.5,8.5 158.166667,8.83333333 159,9.16666667 C160,9.66666667 161,10 162,10.5 C163.166667,11 164.166667,11.6666667 165,12.5 C166,13.5 166.5,14.6666667 166.666667,16.1666667 C166.833333,17.5 166.666667,18.8333333 166,20 C165.166667,21.8333333 163.666667,22.8333333 161.833333,23.5 C160.166667,24.1666667 158.333333,24.1666667 156.5,23.8333333 C154.666667,23.5 152.833333,22.8333333 151.333333,21.8333333 C151.166667,21.6666667 151,21.6666667 150.833333,21.5 C150.333333,21 150.166667,20.3333333 150.666667,19.6666667 C151.166667,19 151.5,18.3333333 152,17.6666667 C152.333333,17.1666667 153,17 153.5,17.1666667 C154,17.3333333 154.333333,17.5 154.666667,17.6666667 C155.666667,18.1666667 156.5,18.6666667 157.666667,18.8333333 C158.333333,19 159.166667,19 159.833333,18.6666667 C161,18.1666667 161.333333,17 160.333333,16.1666667 C159.833333,15.3333333 159,15 158.333333,14.6666667 C157,14 155.5,13.3333333 154.166667,12.6666667 C153,12 152,11.1666667 151.333333,9.83333333 C150.833333,8.83333333 150.666667,7.83333333 150.666667,6.83333333 C150.666667,3.83333333 152.666667,1.66666667 155.166667,0.666666667 C156.5,0.166666667 157.833333,0 159.5,0" id="Shape"></path>
                    </g>
                </g>
            </g>
        </g>
    </g>
</svg>