<?xml version="1.0" encoding="UTF-8" standalone="no"?>
<svg width="247px" height="30px" viewBox="0 0 247 30" version="1.1" xmlns="http://www.w3.org/2000/svg" xmlns:xlink="http://www.w3.org/1999/xlink">
    <!-- Generator: Sketch 41.2 (35397) - http://www.bohemiancoding.com/sketch -->
    <title>SHEROES</title>
    <desc>Created with Sketch.</desc>
    <defs></defs>
    <g id="feed" stroke="none" stroke-width="1" fill="none" fill-rule="evenodd">
        <g id="Sample-Feed_2" transform="translate(-237.000000, -96.000000)" fill="#FFFFFF">
            <g id="SHEROES" transform="translate(237.000000, 96.000000)">
                <path d="M0.2,25.07 L2.12,21.69 C2.44970693,21.2609652 3.0514623,21.1527358 3.51,21.44 C3.67,21.52 6.61,23.68 9.3,23.68 C10.0023683,23.749438 10.7022436,23.5258191 11.2342266,23.0619905 C11.7662096,22.5981619 12.083097,21.9352794 12.11,21.23 C12.11,19.52 10.68,18.23 7.91,17.11 C4.4,15.74 0,13 0,8.11 C0,4.08 3.14,0 9.42,0 C12.5777365,0.0855520131 15.6298769,1.15537442 18.15,3.06 C18.545862,3.37112269 18.6486774,3.92803926 18.39,4.36 L16.31,7.5 C16.02,7.95 15.31,8.32 14.92,8.03 C14.53,7.74 11.58,5.59 9.09,5.59 C7.80965728,5.46715206 6.66672262,6.39217311 6.52,7.67 C6.52,9.18 7.74,10.32 10.96,11.67 C14.18,13.02 19.2,15.42 19.2,20.97 C19.2,25.17 15.57,29.41 9.58,29.41 C4.28,29.41 1.34,27.21 0.41,26.27 C0,25.81 -0.12,25.64 0.2,25.07 Z" id="Shape"></path>
                <path d="M35.18,1.18 C35.1962895,0.742058813 35.5619006,0.398741055 36,0.41 L40.85,0.41 C41.0542167,0.41 41.2500692,0.491124767 41.3944722,0.635527778 C41.5388752,0.77993079 41.62,0.975783303 41.62,1.18 L41.62,11.46 L53.24,11.46 L53.24,1.18 C53.2399645,0.758615572 53.5786511,0.415472524 54,0.41 L58.85,0.41 C59.2687024,0.425427857 59.6045721,0.761297614 59.62,1.18 L59.62,28.18 C59.6045721,28.5987024 59.2687024,28.9345721 58.85,28.95 L54,28.95 C53.5747407,28.95 53.23,28.6052593 53.23,28.18 L53.23,17.45 L41.58,17.45 L41.58,28.17 C41.58,28.3742167 41.4988752,28.5700692 41.3544722,28.7144722 C41.2100692,28.8588752 41.0142167,28.94 40.81,28.94 L36,28.94 C35.5812976,28.9245721 35.2454279,28.5887024 35.23,28.17 L35.18,1.18 Z" id="Shape"></path>
                <path d="M77.66,1.18 C77.66,0.754740743 78.0047407,0.41 78.43,0.41 L95.31,0.41 C95.7352593,0.41 96.08,0.754740743 96.08,1.18 L96.08,5.63 C96.08,5.8342167 95.9988752,6.03006921 95.8544722,6.17447222 C95.7100692,6.31887523 95.5142167,6.4 95.31,6.4 L84,6.4 L84,11.46 L93.3,11.46 C93.7187024,11.4754279 94.0545721,11.8112976 94.07,12.23 L94.07,16.67 C94.07,17.0952593 93.7252593,17.44 93.3,17.44 L84,17.44 L84,23 L95.31,23 C95.7352593,23 96.08,23.3447407 96.08,23.77 L96.08,28.21 C96.08,28.6352593 95.7352593,28.98 95.31,28.98 L78.43,28.98 C78.0047407,28.98 77.66,28.6352593 77.66,28.21 L77.66,1.18 Z" id="Shape"></path>
                <path d="M112.56,1.18 C112.56,0.754740743 112.904741,0.41 113.33,0.41 L125.52,0.41 C130.403227,0.398877676 134.376981,4.33687167 134.41,9.22 C134.41,12.97 131.92,15.99 128.41,17.41 L134,27.76 C134.153449,28.0031216 134.158675,28.3114802 134.013552,28.5596617 C133.868429,28.8078433 133.597131,28.954506 133.31,28.94 L127.89,28.94 C127.622907,28.9412069 127.375326,28.8002763 127.24,28.57 L121.82,17.77 L119,17.77 L119,28.17 C118.984572,28.5887024 118.648702,28.9245721 118.23,28.94 L113.38,28.94 C112.954741,28.94 112.61,28.5952593 112.61,28.17 L112.56,1.18 Z M125,12.6 C126.735401,12.5096607 128.097036,11.0777483 128.1,9.34 C128.089089,7.63245724 126.707543,6.25091115 125,6.24 L119,6.24 L119,12.6 L125,12.6 Z" id="Shape"></path>
                <path d="M163.43,7.90478794e-14 C171.53754,7.95443228e-14 178.11,6.57245987 178.11,14.68 C178.11,22.7875401 171.53754,29.36 163.43,29.36 C159.541609,29.3814545 155.806412,27.8455981 153.057802,25.0951095 C150.309192,22.344621 148.775889,18.6083752 148.8,14.72 C148.773347,10.8235037 150.303264,7.07758357 153.050105,4.3138442 C155.796947,1.55010484 159.533414,-0.00275640284 163.43,8.06710249e-14 L163.43,7.90478794e-14 Z M163.43,22.83 C166.733591,22.8461745 169.72015,20.8664439 170.991863,17.8173908 C172.263576,14.7683378 171.568842,11.2531973 169.232823,8.91717741 C166.896803,6.58115752 163.381662,5.88642429 160.332609,7.15813705 C157.283556,8.42984981 155.303825,11.4164086 155.32,14.72 C155.352675,19.1854248 158.964575,22.7973249 163.43,22.83 L163.43,22.83 Z" id="Shape"></path>
                <path d="M194,1.18 C193.999983,0.974038824 194.082479,0.776655463 194.229052,0.631961521 C194.375625,0.487267578 194.574056,0.407325179 194.78,0.41 L211.7,0.41 C211.905944,0.407325179 212.104375,0.487267578 212.250948,0.631961521 C212.397521,0.776655463 212.480017,0.974038824 212.48,1.18 L212.48,5.63 C212.480017,5.83596118 212.397521,6.03334454 212.250948,6.17803848 C212.104375,6.32273242 211.905944,6.40267482 211.7,6.4 L200.41,6.4 L200.41,11.46 L209.7,11.46 C210.122602,11.4702755 210.464273,11.8075657 210.48,12.23 L210.48,16.67 C210.480017,16.8759612 210.397521,17.0733445 210.250948,17.2180385 C210.104375,17.3627324 209.905944,17.4426748 209.7,17.44 L200.41,17.44 L200.41,23 L211.7,23 C211.905944,22.9973252 212.104375,23.0772676 212.250948,23.2219615 C212.397521,23.3666555 212.480017,23.5640388 212.48,23.77 L212.48,28.21 C212.480017,28.4159612 212.397521,28.6133445 212.250948,28.7580385 C212.104375,28.9027324 211.905944,28.9826748 211.7,28.98 L194.82,28.98 C194.614056,28.9826748 194.415625,28.9027324 194.269052,28.7580385 C194.122479,28.6133445 194.039983,28.4159612 194.04,28.21 L194,1.18 Z" id="Shape"></path>
                <path d="M227.31,25.07 L229.23,21.69 C229.559707,21.2609652 230.161462,21.1527358 230.62,21.44 C230.78,21.52 233.72,23.68 236.41,23.68 C237.113012,23.7524667 237.814569,23.5299234 238.347264,23.0654742 C238.879959,22.6010249 239.19601,21.9363295 239.22,21.23 C239.22,19.52 237.79,18.23 235.02,17.11 C231.51,15.72 227.11,12.99 227.11,8.11 C227.11,4.11 230.25,0 236.53,0 C239.687737,0.0855520131 242.739877,1.15537442 245.26,3.06 C245.655862,3.37112269 245.758677,3.92803926 245.5,4.36 L243.42,7.5 C243.13,7.95 242.42,8.32 242.03,8.03 C241.64,7.74 238.69,5.58 236.2,5.58 C234.919657,5.45715206 233.776723,6.38217311 233.63,7.66 C233.63,9.17 234.85,10.31 238.07,11.66 C241.29,13.01 246.31,15.41 246.31,20.96 C246.31,25.16 242.68,29.4 236.69,29.4 C231.39,29.4 228.45,27.2 227.52,26.26 C227.11,25.81 227,25.64 227.31,25.07 Z" id="Shape"></path>
            </g>
        </g>
    </g>
</svg>