<?xml version="1.0" encoding="UTF-8" standalone="no"?>
<svg width="720px" height="691px" viewBox="0 0 720 691" version="1.1" xmlns="http://www.w3.org/2000/svg" xmlns:xlink="http://www.w3.org/1999/xlink">
    <!-- Generator: Sketch 41.2 (35397) - http://www.bohemiancoding.com/sketch -->
    <title>Group 4</title>
    <desc>Created with Sketch.</desc>
    <defs></defs>
    <g id="personal-profile---himanshu" stroke="none" stroke-width="1" fill="none" fill-rule="evenodd">
        <g id="personal---VISITING-CARD" transform="translate(0.000000, -36.000000)">
            <g id="Group-4" transform="translate(0.000000, 36.000000)">
                <rect id="Rectangle-2" fill="#FFFFFF" x="0" y="0" width="720" height="691"></rect>
                <g id="Layer_11" transform="translate(121.000000, 189.000000)" fill="#586BB1">
                    <g id="Group">
                        <path d="M317.9,453.4 C317.9,472.1 302.7,487.3 284,487.3 L159.3,487.3 C140.6,487.3 125.4,472.1 125.4,453.4 C125.4,434.7 140.6,419.5 159.3,419.5 L284,419.5 C302.7,419.5 317.9,434.7 317.9,453.4 Z" id="Shape"></path>
                        <path d="M317.9,305.7 C317.9,324.4 302.7,339.6 284,339.6 L34.5,339.6 C15.8,339.6 0.6,324.4 0.6,305.7 C0.6,287 15.8,271.8 34.5,271.8 L284,271.8 C302.7,271.8 317.9,287 317.9,305.7 Z" id="Shape"></path>
                        <path d="M442.9,34.5 C442.9,15.8 458.1,0.6 476.8,0.6 L523.6,0.6 C542.3,0.6 557.5,15.8 557.5,34.5 C557.5,53.2 542.4,68.4 523.6,68.4 L476.8,68.4 C458.1,68.4 442.9,53.2 442.9,34.5 Z" id="Shape"></path>
                        <path d="M560.7,128.5 C552.5,127.4 544.2,126.9 535.8,126.9 C522.1,126.9 508.8,128.5 496,131.3 L314.8,131.3 C296.1,131.3 280.9,146.4 280.9,165.2 C280.9,183.9 296,199.1 314.8,199.1 L388.6,199.1 C363.8,230.9 348.9,270.7 348.9,314 C348.9,417.1 432.8,501 535.9,501 L602,501 L602,35 C582.3,62.4 568,94.1 560.7,128.5 Z" id="Shape"></path>
                    </g>
                </g>
            </g>
        </g>
    </g>
</svg>