<?xml version="1.0" encoding="UTF-8" standalone="no"?>
<svg width="40px" height="40px" viewBox="0 0 40 40" version="1.1" xmlns="http://www.w3.org/2000/svg" xmlns:xlink="http://www.w3.org/1999/xlink">
    <!-- Generator: sketchtool 41.2 (35397) - http://www.bohemiancoding.com/sketch -->
    <title>5DE5BB58-2CDC-4215-B934-B4B5E1B24F8D</title>
    <desc>Created with sketchtool.</desc>
    <defs></defs>
    <g id="community" stroke="none" stroke-width="1" fill="none" fill-rule="evenodd">
        <g id="COMMUNITY-Verified-Community" transform="translate(-385.000000, -326.000000)" stroke="#FFFFFF" stroke-width="3" fill="#7ED321">
            <g id="Community-Card_1" transform="translate(0.000000, 36.000000)">
                <g id="Check" transform="translate(385.000000, 290.000000)">
                    <path d="M20,37.7777778 C29.8183956,37.7777778 37.7777778,29.8183956 37.7777778,20 C37.7777778,10.1816044 29.8183956,2.22222222 20,2.22222222 C10.1816044,2.22222222 2.22222222,10.1816044 2.22222222,20 C2.22222222,29.8183956 10.1816044,37.7777778 20,37.7777778 Z M13.0742147,21.7784731 C12.8486461,21.5963364 12.53285,21.5963364 12.3523951,21.8240073 C12.1719402,22.0516781 12.1719402,22.3704173 12.3975088,22.552554 L17.630701,27.2881078 L18.0367246,27.6523811 L18.3976344,27.1970394 L28.2775403,14.1742666 C28.4579952,13.9465957 28.4128815,13.6278565 28.1873129,13.4457198 C27.9617443,13.2635831 27.6459482,13.3091173 27.4654933,13.5367882 L17.9013834,26.1042193 L13.0742147,21.7784731 Z" id="Combined-Shape"></path>
                </g>
            </g>
        </g>
    </g>
</svg>