<?xml version="1.0" encoding="UTF-8" standalone="no"?>
<svg width="129px" height="129px" viewBox="0 0 129 129" version="1.1" xmlns="http://www.w3.org/2000/svg" xmlns:xlink="http://www.w3.org/1999/xlink">
    <!-- Generator: Sketch 41.2 (35397) - http://www.bohemiancoding.com/sketch -->
    <title>Work Experience</title>
    <desc>Created with Sketch.</desc>
    <defs></defs>
    <g id="prof-profile---himanshu" stroke="none" stroke-width="1" fill="none" fill-rule="evenodd">
        <g id="prof---work-ex" transform="translate(-296.000000, -124.000000)">
            <g id="header" transform="translate(-1.000000, 0.000000)">
                <g id="Work-Experience" transform="translate(297.000000, 124.000000)">
                    <path d="M4.3,33.6475 C4.3,32.465 3.3325,31.4975 2.15,31.4975 C0.9675,31.4975 0,32.465 0,33.6475 C0,34.83 0.9675,35.7975 2.15,35.7975 C3.3325,35.7975 4.3,34.83 4.3,33.6475 Z" id="_373382576" fill="#FEFEFE"></path>
                    <path d="M60.3075,3.7625 C60.3075,1.935 58.8025,0.43 56.975,0.43 C55.1475,0.43 53.6425,1.935 53.6425,3.7625 C53.6425,5.59 55.1475,7.095 56.975,7.095 C58.8025,7.095 60.3075,5.59 60.3075,3.7625 Z" id="_373382480" fill="#FEFEFE"></path>
                    <path d="M107.93,5.4825 C107.93,4.515 107.1775,3.7625 106.21,3.7625 C105.2425,3.7625 104.49,4.515 104.49,5.4825 C104.49,6.45 105.2425,7.2025 106.21,7.2025 C107.1775,7.31 107.93,6.45 107.93,5.4825 Z" id="_373382960" fill="#FEFEFE"></path>
                    <path d="M31.2825,5.4825 C31.2825,4.515 30.53,3.7625 29.5625,3.7625 C28.595,3.7625 27.8425,4.515 27.8425,5.4825 C27.8425,6.45 28.595,7.2025 29.5625,7.2025 C30.53,7.31 31.2825,6.45 31.2825,5.4825 Z" id="_373382888" fill="#FEFEFE"></path>
                    <path d="M7.4175,8.815 C7.4175,7.095 6.02,5.6975 4.3,5.6975 C2.58,5.6975 1.1825,7.095 1.1825,8.815 C1.1825,10.535 2.58,11.9325 4.3,11.9325 C6.02,11.825 7.4175,10.4275 7.4175,8.815 Z" id="_373382408" fill="#FEFEFE"></path>
                    <path d="M129,27.1975 C129,24.725 126.9575,22.79 124.5925,22.79 C122.12,22.79 120.185,24.8325 120.185,27.1975 C120.185,29.67 122.2275,31.605 124.5925,31.605 C126.9575,31.7125 129,29.67 129,27.1975 Z" id="_373382360" fill="#FEFEFE"></path>
                    <path d="M102.0175,110.1875 L17.0925,110.1875 C12.9,110.1875 9.5675,106.855 9.5675,102.6625 L9.5675,22.145 C9.5675,16.2325 14.405,11.395 20.3175,11.395 L48.375,11.395 L48.375,15.91 L20.425,15.91 C16.985,15.91 14.19,18.705 14.19,22.145 L14.19,102.6625 C14.19,104.275 15.5875,105.6725 17.2,105.6725 L102.125,105.6725 L102.0175,110.1875 L102.0175,110.1875 Z" id="_373382864" fill="#36357D"></path>
                    <path d="M103.7375,13.6525 L20.425,13.6525 C25.9075,13.6525 28.9175,18.06 28.9175,22.145 L28.7025,115.24 C28.7025,118.1425 31.0675,120.5075 33.97,120.5075 L116.96,120.5075 C112.5525,120.5075 108.79,116.6375 108.79,112.3375 L108.79,18.705 C108.79,15.91 106.5325,13.6525 103.7375,13.6525 L103.7375,13.6525 Z" id="_373382504" fill="#FEFEFE"></path>
                    <path d="M58.265,122.765 L34.0775,122.765 C32.035,122.765 30.2075,122.0125 28.81,120.5075 C27.4125,119.11 26.66,117.175 26.66,115.24 L26.875,22.145 C26.875,19.135 24.725,15.91 20.64,15.91 L20.64,11.395 L70.4125,11.395 L70.4125,15.91 L29.455,15.91 C30.745,17.7375 31.39,19.995 31.39,22.145 L31.175,115.24 C31.175,116.1 31.4975,116.8525 32.035,117.39 C32.5725,117.9275 33.325,118.25 34.185,118.25 L58.3725,118.25 L58.3725,122.765 L58.265,122.765 Z" id="_373381568" fill="#36357D"></path>
                    <polygon id="_373382168" fill="#36357D" points="88.0425 15.91 74.175 15.91 74.175 11.5025 88.0425 11.5025"></polygon>
                    <path d="M116.96,122.765 L81.915,122.765 L81.915,118.25 L108.4675,118.25 C107.285,116.53 106.5325,114.4875 106.5325,112.3375 L106.5325,18.705 C106.5325,17.2 105.35,15.91 103.7375,15.91 L93.6325,15.91 L93.6325,11.395 L103.7375,11.395 C107.715,11.395 110.94,14.62 110.94,18.5975 L110.94,112.23 C110.94,115.3475 113.735,118.1425 116.8525,118.1425 L116.96,122.765 L116.96,122.765 Z" id="_373382120" fill="#36357D"></path>
                    <polygon id="_241431208" fill="#36357D" points="96.105 40.635 41.1725 40.635 41.1725 36.12 96.105 36.12"></polygon>
                    <polygon id="_241423840" fill="#36357D" points="96.105 49.235 41.1725 49.235 41.1725 44.72 96.105 44.72"></polygon>
                    <polygon id="_241422760" fill="#36357D" points="96.105 57.835 41.1725 57.835 41.1725 53.4275 96.105 53.4275"></polygon>
                    <polygon id="_241438264" fill="#36357D" points="96.105 66.5425 41.1725 66.5425 41.1725 62.0275 96.105 62.0275"></polygon>
                    <polygon id="_241431136" fill="#36357D" points="96.105 75.1425 41.1725 75.1425 41.1725 70.6275 96.105 70.6275"></polygon>
                    <polygon id="_241431544" fill="#70B4E3" points="70.1975 105.0275 63.7475 105.0275 63.7475 125.2375 70.1975 122.6575 76.6475 125.2375 76.6475 105.0275"></polygon>
                    <path d="M70.1975,120.185 L74.39,121.905 L74.39,107.285 L65.8975,107.285 L65.8975,121.905 L70.1975,120.185 L70.1975,120.185 Z M61.49,128.57 L61.49,102.77 L78.905,102.77 L78.905,128.57 L70.1975,125.0225 C70.1975,125.0225 61.49,128.57 61.49,128.57 Z" id="_241430992" fill="#36357D"></path>
                    <path d="M86.43,98.9 C86.43,101.05 84.495,102.6625 83.7425,104.49 C82.99,106.425 83.0975,108.8975 81.7,110.4025 C80.3025,111.8 77.7225,111.6925 75.7875,112.445 C73.96,113.1975 72.24,115.1325 70.1975,115.1325 C68.0475,115.1325 66.435,113.1975 64.6075,112.445 C62.6725,111.6925 60.2,111.8 58.695,110.4025 C57.2975,109.005 57.405,106.425 56.6525,104.49 C55.9,102.6625 53.965,100.9425 53.965,98.9 C53.965,96.75 55.9,95.1375 56.6525,93.31 C57.405,91.375 57.2975,88.9025 58.695,87.3975 C60.0925,86 62.6725,86.1075 64.6075,85.355 C66.435,84.6025 68.155,82.6675 70.1975,82.6675 C72.3475,82.6675 73.96,84.6025 75.7875,85.355 C77.7225,86.1075 80.195,86 81.7,87.3975 C83.0975,88.795 82.99,91.375 83.7425,93.31 C84.495,95.1375 86.43,96.8575 86.43,98.9 Z" id="_241431520" fill="#FEFEFE"></path>
                    <path d="M70.1975,84.925 C69.5525,84.925 68.6925,85.4625 67.8325,86.1075 C67.08,86.645 66.3275,87.075 65.4675,87.505 C64.6075,87.8275 63.64,88.0425 62.78,88.2575 C61.8125,88.4725 60.7375,88.6875 60.3075,89.1175 C59.8775,89.5475 59.6625,90.6225 59.4475,91.59 C59.2325,92.45 59.125,93.4175 58.695,94.2775 C58.3725,95.1375 57.835,95.89 57.2975,96.6425 C56.6525,97.5025 56.115,98.3625 56.115,99.0075 C56.115,99.6525 56.6525,100.5125 57.2975,101.3725 C57.835,102.125 58.265,102.8775 58.695,103.7375 C59.0175,104.5975 59.2325,105.565 59.4475,106.425 C59.6625,107.3925 59.8775,108.4675 60.3075,108.8975 C60.7375,109.3275 61.8125,109.5425 62.78,109.7575 C63.64,109.9725 64.6075,110.08 65.4675,110.51 C66.3275,110.8325 67.08,111.37 67.8325,111.9075 C68.6925,112.5525 69.5525,113.09 70.1975,113.09 C70.8425,113.09 71.7025,112.5525 72.5625,111.9075 C73.315,111.37 74.0675,110.94 74.9275,110.51 C75.7875,110.1875 76.755,109.9725 77.615,109.7575 C78.5825,109.5425 79.6575,109.3275 80.0875,108.8975 C80.5175,108.4675 80.7325,107.3925 80.9475,106.425 C81.1625,105.565 81.27,104.5975 81.7,103.7375 C82.0225,102.8775 82.56,102.125 83.0975,101.3725 C83.7425,100.5125 84.28,99.6525 84.28,99.0075 C84.28,98.3625 83.7425,97.5025 83.0975,96.6425 C82.56,95.89 82.13,95.1375 81.7,94.2775 C81.3775,93.4175 81.1625,92.45 80.9475,91.59 C80.7325,90.6225 80.5175,89.5475 80.0875,89.1175 C79.6575,88.6875 78.5825,88.4725 77.615,88.2575 C76.755,88.0425 75.7875,87.935 74.9275,87.505 C74.0675,87.1825 73.315,86.645 72.5625,86.1075 C71.7025,85.4625 70.8425,84.925 70.1975,84.925 L70.1975,84.925 Z M70.1975,117.39 C68.155,117.39 66.5425,116.315 65.2525,115.455 C64.715,115.025 64.1775,114.7025 63.64,114.4875 C63.1025,114.2725 62.4575,114.165 61.705,113.95 C60.0925,113.6275 58.3725,113.305 56.975,111.9075 C55.5775,110.51 55.255,108.79 54.9325,107.1775 C54.825,106.425 54.61,105.78 54.395,105.2425 C54.18,104.8125 53.8575,104.275 53.4275,103.63 C52.5675,102.34 51.4925,100.7275 51.4925,98.685 C51.4925,96.6425 52.5675,95.03 53.4275,93.74 C53.8575,93.2025 54.18,92.665 54.395,92.1275 C54.61,91.59 54.7175,90.945 54.9325,90.1925 C55.255,88.58 55.5775,86.86 56.975,85.4625 C58.3725,84.065 60.0925,83.7425 61.705,83.42 C62.4575,83.3125 63.1025,83.0975 63.64,82.8825 C64.07,82.6675 64.6075,82.345 65.2525,81.915 C66.5425,81.055 68.155,79.98 70.1975,79.98 C72.24,79.98 73.8525,81.055 75.1425,81.915 C75.68,82.345 76.2175,82.6675 76.755,82.8825 C77.2925,83.0975 77.9375,83.205 78.69,83.42 C80.3025,83.7425 82.0225,84.065 83.42,85.4625 C84.8175,86.86 85.14,88.58 85.4625,90.1925 C85.57,90.945 85.785,91.59 86,92.1275 C86.215,92.5575 86.5375,93.095 86.9675,93.74 C87.8275,95.03 88.9025,96.6425 88.9025,98.685 C88.9025,100.7275 87.8275,102.34 86.9675,103.63 C86.5375,104.1675 86.215,104.705 86,105.2425 C85.785,105.78 85.6775,106.425 85.4625,107.1775 C85.14,108.79 84.8175,110.51 83.42,111.9075 C82.0225,113.305 80.3025,113.6275 78.69,113.95 C77.9375,114.0575 77.2925,114.2725 76.755,114.4875 C76.325,114.7025 75.7875,115.025 75.1425,115.455 C73.745,116.4225 72.1325,117.39 70.1975,117.39 Z" id="_241430968" fill="#3484C5"></path>
                    <path d="M70.1975,84.925 C69.5525,84.925 68.6925,85.4625 67.8325,86.1075 C67.08,86.645 66.3275,87.075 65.4675,87.505 C64.6075,87.8275 63.64,88.0425 62.78,88.2575 C61.8125,88.4725 60.7375,88.6875 60.3075,89.1175 C59.8775,89.5475 59.6625,90.6225 59.4475,91.59 C59.2325,92.45 59.125,93.4175 58.695,94.2775 C58.3725,95.1375 57.835,95.89 57.2975,96.6425 C56.6525,97.5025 56.115,98.3625 56.115,99.0075 C56.115,99.6525 56.6525,100.5125 57.2975,101.3725 C57.835,102.125 58.265,102.8775 58.695,103.7375 C59.0175,104.5975 59.2325,105.565 59.4475,106.425 C59.6625,107.3925 59.8775,108.4675 60.3075,108.8975 C60.7375,109.3275 61.8125,109.5425 62.78,109.7575 C63.64,109.9725 64.6075,110.08 65.4675,110.51 C66.3275,110.8325 67.08,111.37 67.8325,111.9075 C68.6925,112.5525 69.5525,113.09 70.1975,113.09 C70.8425,113.09 71.7025,112.5525 72.5625,111.9075 C73.315,111.37 74.0675,110.94 74.9275,110.51 C75.7875,110.1875 76.755,109.9725 77.615,109.7575 C78.5825,109.5425 79.6575,109.3275 80.0875,108.8975 C80.5175,108.4675 80.7325,107.3925 80.9475,106.425 C81.1625,105.565 81.27,104.5975 81.7,103.7375 C82.0225,102.8775 82.56,102.125 83.0975,101.3725 C83.7425,100.5125 84.28,99.6525 84.28,99.0075 C84.28,98.3625 83.7425,97.5025 83.0975,96.6425 C82.56,95.89 82.13,95.1375 81.7,94.2775 C81.3775,93.4175 81.1625,92.45 80.9475,91.59 C80.7325,90.6225 80.5175,89.5475 80.0875,89.1175 C79.6575,88.6875 78.5825,88.4725 77.615,88.2575 C76.755,88.0425 75.7875,87.935 74.9275,87.505 C74.0675,87.1825 73.315,86.645 72.5625,86.1075 C71.7025,85.4625 70.8425,84.925 70.1975,84.925 L70.1975,84.925 Z M70.1975,117.39 C68.155,117.39 66.5425,116.315 65.2525,115.455 C64.715,115.025 64.1775,114.7025 63.64,114.4875 C63.1025,114.2725 62.4575,114.165 61.705,113.95 C60.0925,113.6275 58.3725,113.305 56.975,111.9075 C55.5775,110.51 55.255,108.79 54.9325,107.1775 C54.825,106.425 54.61,105.78 54.395,105.2425 C54.18,104.8125 53.8575,104.275 53.4275,103.63 C52.5675,102.34 51.4925,100.7275 51.4925,98.685 C51.4925,96.6425 52.5675,95.03 53.4275,93.74 C53.8575,93.2025 54.18,92.665 54.395,92.1275 C54.61,91.59 54.7175,90.945 54.9325,90.1925 C55.255,88.58 55.5775,86.86 56.975,85.4625 C58.3725,84.065 60.0925,83.7425 61.705,83.42 C62.4575,83.3125 63.1025,83.0975 63.64,82.8825 C64.07,82.6675 64.6075,82.345 65.2525,81.915 C66.5425,81.055 68.155,79.98 70.1975,79.98 C72.24,79.98 73.8525,81.055 75.1425,81.915 C75.68,82.345 76.2175,82.6675 76.755,82.8825 C77.2925,83.0975 77.9375,83.205 78.69,83.42 C80.3025,83.7425 82.0225,84.065 83.42,85.4625 C84.8175,86.86 85.14,88.58 85.4625,90.1925 C85.57,90.945 85.785,91.59 86,92.1275 C86.215,92.5575 86.5375,93.095 86.9675,93.74 C87.8275,95.03 88.9025,96.6425 88.9025,98.685 C88.9025,100.7275 87.8275,102.34 86.9675,103.63 C86.5375,104.1675 86.215,104.705 86,105.2425 C85.785,105.78 85.6775,106.425 85.4625,107.1775 C85.14,108.79 84.8175,110.51 83.42,111.9075 C82.0225,113.305 80.3025,113.6275 78.69,113.95 C77.9375,114.0575 77.2925,114.2725 76.755,114.4875 C76.325,114.7025 75.7875,115.025 75.1425,115.455 C73.745,116.4225 72.1325,117.39 70.1975,117.39 Z" id="_241431568" fill="#36357D"></path>
                </g>
            </g>
        </g>
    </g>
</svg>