<svg xmlns="http://www.w3.org/2000/svg" width="20" height="14" viewBox="0 0 20 14">
    <g fill="none" fill-rule="evenodd">
        <path fill="#FFF" d="M7.812 9.476l5.313-2.756-5.313-2.782z"/>
        <path fill="#3B1211" d="M7.812 3.938l4.657 3.123.656-.339z" opacity=".12"/>
        <path fill="#E62D27" d="M19.49 2.988s-.192-1.356-.782-1.953C17.959.252 17.119.247 16.738.2 13.98 0 9.845 0 9.845 0S5.707 0 2.95.2c-.385.045-1.223.05-1.969.832C.39 1.63.197 2.989.197 2.989A29.763 29.763 0 0 0 0 6.173v1.494c.009 1.065.074 2.13.197 3.187 0 0 .192 1.357.783 1.954.748.783 1.732.755 2.17.842 1.575.15 6.694.197 6.694.197s4.136 0 6.893-.206c.385-.046 1.225-.05 1.968-.833.59-.597.783-1.954.783-1.954.124-1.058.19-2.122.2-3.187V6.173a29.829 29.829 0 0 0-.197-3.185zM7.813 9.476V3.937l5.313 2.783-5.313 2.756z"/>
    </g>
</svg>
